<?xml version="1.0" encoding="UTF-8" standalone="no"?>
<svg
   xmlns:dc="http://purl.org/dc/elements/1.1/"
   xmlns:cc="http://creativecommons.org/ns#"
   xmlns:rdf="http://www.w3.org/1999/02/22-rdf-syntax-ns#"
   xmlns:svg="http://www.w3.org/2000/svg"
   xmlns="http://www.w3.org/2000/svg"
   xmlns:sodipodi="http://sodipodi.sourceforge.net/DTD/sodipodi-0.dtd"
   xmlns:inkscape="http://www.inkscape.org/namespaces/inkscape"
   width="3000px"
   height="3000px"
   version="1.1"
   id="svg2"
   inkscape:version="0.92.4 (5da689c313, 2019-01-14)"
   sodipodi:docname="Final-Wedge-02.svg">
  <metadata
     id="metadata2247">
    <rdf:RDF>
      <cc:Work
         rdf:about="">
        <dc:format>image/svg+xml</dc:format>
        <dc:type
           rdf:resource="http://purl.org/dc/dcmitype/StillImage" />
        <dc:title></dc:title>
      </cc:Work>
    </rdf:RDF>
  </metadata>
  <sodipodi:namedview
     pagecolor="#ffffff"
     bordercolor="#666666"
     borderopacity="1"
     objecttolerance="10"
     gridtolerance="10"
     guidetolerance="10"
     inkscape:pageopacity="0"
     inkscape:pageshadow="2"
     inkscape:window-width="1920"
     inkscape:window-height="1000"
     id="namedview2245"
     showgrid="false"
     inkscape:zoom="0.11125147"
     inkscape:cx="1222.0751"
     inkscape:cy="1477.0097"
     inkscape:window-x="0"
     inkscape:window-y="52"
     inkscape:window-maximized="1"
     inkscape:current-layer="svg2" />
  <g
     id="g2975"
     transform="rotate(-45,3425.2285,4171.6558)">
    <path
       inkscape:connector-curvature="0"
       id="path74"
       style="fill:#fff7fb;stroke:#000000;stroke-width:8.07166576;stroke-linecap:round"
       d="m 4433.4289,578.50062 a 1955.361,1955.361 0 0 1 -28.4623,332.41567 l 196.8652,33.96089 a 2155.1347,2155.1347 0 0 0 31.3721,-366.37657 z" />
    <path
       inkscape:connector-curvature="0"
       id="path76"
       style="fill:#d0d1e6;stroke:#000000;stroke-width:8.07166576;stroke-linecap:round"
       d="m 4404.9666,910.91629 a 1955.361,1955.361 0 0 1 -84.5593,322.73681 l 188.2263,66.9344 a 2155.1347,2155.1347 0 0 0 93.1982,-355.71032 z" />
    <path
       inkscape:connector-curvature="0"
       id="path78"
       style="fill:#67a9cf;stroke:#000000;stroke-width:8.07166576;stroke-linecap:round"
       d="m 4320.4073,1233.6531 a 1955.361,1955.361 0 0 1 -138.1953,303.6656 l 174.1082,97.9584 a 2155.1347,2155.1347 0 0 0 152.3134,-334.6896 z" />
    <path
       inkscape:connector-curvature="0"
       id="path80"
       style="fill:#02818a;stroke:#000000;stroke-width:8.07166576;stroke-linecap:round"
       d="m 4182.212,1537.3187 a 1955.361,1955.361 0 0 1 -88.0112,141.8881 l 165.1154,112.4554 a 2155.1347,2155.1347 0 0 0 97.004,-156.3851 z" />
    <path
       inkscape:connector-curvature="0"
       id="path82"
       style="fill:#016c59;stroke:#000000;stroke-width:8.07166576;stroke-linecap:round"
       d="m 4094.2008,1679.2068 a 1955.361,1955.361 0 0 1 -99.795,133.8621 l 154.9195,126.133 a 2155.1347,2155.1347 0 0 0 109.9909,-147.5397 z" />
    <path
       inkscape:connector-curvature="0"
       id="path84"
       style="fill:#014636;stroke:#000000;stroke-width:8.07166576;stroke-linecap:round"
       d="m 3994.4058,1813.0689 a 1955.361,1955.361 0 0 1 -110.8517,124.8602 l 143.5946,138.8893 a 2155.1347,2155.1347 0 0 0 122.1766,-137.6165 z" />
    <path
       inkscape:connector-curvature="0"
       id="path88"
       style="fill:#fff7fb;stroke:#000000;stroke-width:8.07166576;stroke-linecap:round"
       d="m 4330.5153,578.50062 a 1852.4472,1852.4472 0 0 1 -6.7542,158.03581 l 102.5391,8.78041 a 1955.361,1955.361 0 0 0 7.1287,-166.81622 z" />
    <path
       inkscape:connector-curvature="0"
       id="path90"
       style="fill:#ece2f0;stroke:#000000;stroke-width:8.07166576;stroke-linecap:round"
       d="m 4323.7611,736.53643 a 1852.4472,1852.4472 0 0 1 -20.2104,156.88283 l 101.4159,17.49703 a 1955.361,1955.361 0 0 0 21.3336,-165.59945 z" />
    <path
       inkscape:connector-curvature="0"
       id="path92"
       style="fill:#d0d1e6;stroke:#000000;stroke-width:8.07166576;stroke-linecap:round"
       d="m 4303.5507,893.41926 a 1852.4472,1852.4472 0 0 1 -33.5215,154.58734 l 99.5542,26.0845 a 1955.361,1955.361 0 0 0 35.3832,-163.17481 z" />
    <path
       inkscape:connector-curvature="0"
       id="path94"
       style="fill:#a6bddb;stroke:#000000;stroke-width:8.07166576;stroke-linecap:round"
       d="m 4270.0292,1048.0066 a 1852.4472,1852.4472 0 0 1 -46.5872,151.165 l 96.9653,34.4815 a 1955.361,1955.361 0 0 0 49.1761,-159.562 z" />
    <path
       inkscape:connector-curvature="0"
       id="path96"
       style="fill:#67a9cf;stroke:#000000;stroke-width:8.07166576;stroke-linecap:round"
       d="m 4223.442,1199.1716 a 1852.4472,1852.4472 0 0 1 -59.3137,146.639 l 93.6697,42.6284 a 1955.361,1955.361 0 0 0 62.6093,-154.7859 z" />
    <path
       inkscape:connector-curvature="0"
       id="path98"
       style="fill:#3690c0;stroke:#000000;stroke-width:8.07166576;stroke-linecap:round"
       d="m 4164.1283,1345.8106 a 1852.4472,1852.4472 0 0 1 -71.6078,141.0433 l 89.6915,50.4648 a 1955.361,1955.361 0 0 0 75.586,-148.8797 z" />
    <path
       inkscape:connector-curvature="0"
       id="path100"
       style="fill:#02818a;stroke:#000000;stroke-width:8.07166576;stroke-linecap:round"
       d="m 4092.5205,1486.8539 a 1852.4472,1852.4472 0 0 1 -83.379,134.4204 l 85.0593,57.9325 a 1955.361,1955.361 0 0 0 88.0112,-141.8881 z" />
    <path
       inkscape:connector-curvature="0"
       id="path102"
       style="fill:#016c59;stroke:#000000;stroke-width:8.07166576;stroke-linecap:round"
       d="m 4009.1415,1621.2743 a 1852.4472,1852.4472 0 0 1 -94.5441,126.8167 l 79.8084,64.9779 a 1955.361,1955.361 0 0 0 99.795,-133.8621 z" />
    <path
       inkscape:connector-curvature="0"
       id="path104"
       style="fill:#014636;stroke:#000000;stroke-width:8.07166576;stroke-linecap:round"
       d="m 3914.5974,1748.091 a 1852.4472,1852.4472 0 0 1 -105.0163,118.2897 l 73.973,71.5484 a 1955.361,1955.361 0 0 0 110.8517,-124.8602 z" />
    <path
       inkscape:connector-curvature="0"
       id="path108"
       style="fill:#3690c0;stroke-width:1.61433315;stroke-linecap:round"
       d="M 4766.8217,578.50062 A 2288.753,2288.753 0 0 1 4123.1905,2169.7142 l 30.9827,29.9668 A 2331.8557,2331.8557 0 0 0 4809.925,578.50062 Z" />
    <path
       inkscape:connector-curvature="0"
       id="path112"
       style="fill:#000000;stroke-width:1.61433315;stroke-linecap:round"
       d="m 3000.871,578.50063 a 522.80177,522.80177 0 0 1 -147.0202,363.46804 l 7.3969,7.15492 a 533.09315,533.09315 0 0 0 149.9129,-370.62296 z" />
    <path
       inkscape:connector-curvature="0"
       id="path116"
       style="fill:#000000;stroke-width:1.61433315;stroke-linecap:round"
       d="m 3632.7607,578.50063 a 1154.6921,1154.6921 0 0 1 -324.7162,802.77877 l 7.397,7.155 a 1164.9835,1164.9835 0 0 0 327.611,-809.93378 z" />
    <path
       inkscape:connector-curvature="0"
       id="path120"
       style="fill:#3690c0;stroke-width:1.61433315;stroke-linecap:round"
       d="m 2842.5876,578.50065 a 364.52126,364.52126 0 0 1 -102.5073,253.42566 l 29.5901,28.61987 a 405.68675,405.68675 0 0 0 114.0844,-282.04556 z" />
    <path
       inkscape:connector-curvature="0"
       id="path124"
       style="fill:#000000;stroke-width:1.61433315;stroke-linecap:round"
       d="M 4188.4938,578.50064 A 1710.4263,1710.4263 0 0 1 3707.4985,1767.6427 l 7.397,7.155 A 1720.7177,1720.7177 0 0 0 4198.7856,578.50064 Z" />
    <path
       inkscape:connector-curvature="0"
       id="path128"
       style="fill:#000000;stroke-width:1.61433315;stroke-linecap:round"
       d="m 3762.4312,578.50064 a 1284.3634,1284.3634 0 0 1 -361.1804,892.93046 l 7.3969,7.1549 A 1294.6548,1294.6548 0 0 0 3772.723,578.50063 Z" />
    <path
       d="M 4536.3425,578.50062 A 2058.2747,2058.2747 0 0 1 3957.5271,2009.4775 l 69.6216,67.3409 A 2155.1347,2155.1347 0 0 0 4633.2039,578.50061 Z"
       style="fill:#3690c0;stroke:#000000;stroke-width:8.07166576;stroke-linecap:round"
       id="path130"
       inkscape:connector-curvature="0" />
    <path
       d="m 4536.3425,578.50062 a 2058.2747,2058.2747 0 0 1 -7.5042,175.59555 l 96.5075,8.26226 a 2155.1347,2155.1347 0 0 0 7.8581,-183.85782 z"
       style="fill:#3690c0;fill-opacity:0.67000002;stroke-width:1.61433315;stroke-linecap:round"
       id="path132"
       inkscape:connector-curvature="0" />
    <path
       d="m 4528.8383,754.09617 a 2058.2747,2058.2747 0 0 1 -22.4557,174.31481 l 95.4492,16.4662 a 2155.1347,2155.1347 0 0 0 23.514,-182.51875 z"
       style="fill:#3690c0;fill-opacity:0.67000002;stroke-width:1.61433315;stroke-linecap:round"
       id="path134"
       inkscape:connector-curvature="0" />
    <path
       d="m 4506.3826,928.41098 a 2058.2747,2058.2747 0 0 1 -37.2462,171.76352 l 93.6971,24.5492 a 2155.1347,2155.1347 0 0 0 38.9983,-179.84652 z"
       style="fill:#3690c0;fill-opacity:0.67000002;stroke-width:1.61433315;stroke-linecap:round"
       id="path136"
       inkscape:connector-curvature="0" />
    <path
       d="m 4469.1364,1100.1745 a 2058.2747,2058.2747 0 0 1 -51.7639,167.96 l 91.2611,32.453 a 2155.1347,2155.1347 0 0 0 54.1999,-175.8638 z"
       style="fill:#3690c0;fill-opacity:0.67000002;stroke-width:1.61433315;stroke-linecap:round"
       id="path138"
       inkscape:connector-curvature="0" />
    <path
       d="m 4417.3725,1268.1345 a 2058.2747,2058.2747 0 0 1 -65.9048,162.9329 l 88.1596,40.1205 a 2155.1347,2155.1347 0 0 0 69.0063,-170.6004 z"
       style="fill:#3690c0;fill-opacity:0.67000002;stroke-width:1.61433315;stroke-linecap:round"
       id="path140"
       inkscape:connector-curvature="0" />
    <path
       d="m 4351.4677,1431.0674 a 2058.2747,2058.2747 0 0 1 -79.5642,156.7139 l 84.4167,47.4958 a 2155.1347,2155.1347 0 0 0 83.3071,-164.0892 z"
       style="fill:#3690c0;fill-opacity:0.67000002;stroke-width:1.61433315;stroke-linecap:round"
       id="path142"
       inkscape:connector-curvature="0" />
    <path
       d="m 4271.9035,1587.7813 a 2058.2747,2058.2747 0 0 1 -92.6434,149.3558 l 80.0561,54.5251 a 2155.1347,2155.1347 0 0 0 97.004,-156.3851 z"
       style="fill:#3690c0;fill-opacity:0.67000002;stroke-width:1.61433315;stroke-linecap:round"
       id="path144"
       inkscape:connector-curvature="0" />
    <path
       d="m 4179.2601,1737.1371 a 2058.2747,2058.2747 0 0 1 -105.0471,140.9086 l 75.1123,61.1562 a 2155.1347,2155.1347 0 0 0 109.9909,-147.5397 z"
       style="fill:#3690c0;fill-opacity:0.67000002;stroke-width:1.61433315;stroke-linecap:round"
       id="path146"
       inkscape:connector-curvature="0" />
    <path
       d="m 4074.213,1878.0457 a 2058.2747,2058.2747 0 0 1 -116.6859,131.4318 l 69.6216,67.3409 a 2155.1347,2155.1347 0 0 0 122.1766,-137.6165 z"
       style="fill:#3690c0;fill-opacity:0.67000002;stroke-width:1.61433315;stroke-linecap:round"
       id="path148"
       inkscape:connector-curvature="0" />
    <path
       d="M 4536.3425,578.50062 A 2058.2747,2058.2747 0 0 1 3957.5271,2009.4775 l 69.6216,67.3409 A 2155.1347,2155.1347 0 0 0 4633.2039,578.50061 Z"
       style="fill:none;stroke:#000000;stroke-width:8.07166576;stroke-linecap:round"
       id="path150"
       inkscape:connector-curvature="0" />
    <path
       d="m 4083.5231,578.5006 a 1605.4543,1605.4543 0 0 1 -5.8536,136.96476 l 102.538,8.77928 a 1708.368,1708.368 0 0 0 6.2293,-145.74398 z"
       style="fill:#ffffcc;stroke-width:1.61433315;stroke-linecap:round"
       id="path552"
       inkscape:connector-curvature="0" />
    <path
       d="m 4077.6695,715.46536 a 1605.4543,1605.4543 0 0 1 -17.5164,135.96588 l 101.416,17.49476 a 1708.368,1708.368 0 0 0 18.6384,-144.68136 z"
       style="fill:#ffeda0;stroke-width:1.61433315;stroke-linecap:round"
       id="path554"
       inkscape:connector-curvature="0" />
    <path
       d="m 4060.1531,851.43124 a 1605.4543,1605.4543 0 0 1 -29.0525,133.97511 l 99.5542,26.08455 a 1708.368,1708.368 0 0 0 30.9143,-142.5649 z"
       style="fill:#ffffcc;stroke-width:1.61433315;stroke-linecap:round"
       id="path556"
       inkscape:connector-curvature="0" />
    <path
       d="m 4031.1006,985.40635 a 1605.4543,1605.4543 0 0 1 -40.375,131.00845 l 96.964,34.4825 a 1708.368,1708.368 0 0 0 42.9652,-139.4064 z"
       style="fill:#ffffcc;stroke-width:1.61433315;stroke-linecap:round"
       id="path558"
       inkscape:connector-curvature="0" />
    <path
       d="m 3990.7256,1116.4148 a 1605.4543,1605.4543 0 0 1 -51.4055,127.0872 l 93.6697,42.6284 a 1708.368,1708.368 0 0 0 54.6998,-135.2331 z"
       style="fill:#ffffcc;stroke-width:1.61433315;stroke-linecap:round"
       id="path560"
       inkscape:connector-curvature="0" />
    <path
       d="m 3939.3201,1243.502 a 1605.4543,1605.4543 0 0 1 -62.0602,122.2382 l 89.6926,50.4636 a 1708.368,1708.368 0 0 0 66.0373,-130.0734 z"
       style="fill:#ffffcc;stroke-width:1.61433315;stroke-linecap:round"
       id="path562"
       inkscape:connector-curvature="0" />
    <path
       d="m 3877.2599,1365.7402 a 1605.4543,1605.4543 0 0 1 -72.2619,116.4975 l 85.0593,57.9325 a 1708.368,1708.368 0 0 0 76.8952,-123.9664 z"
       style="fill:#ffffcc;stroke-width:1.61433315;stroke-linecap:round"
       id="path564"
       inkscape:connector-curvature="0" />
    <path
       d="m 3804.998,1482.2377 a 1605.4543,1605.4543 0 0 1 -81.9373,109.9087 l 79.8072,64.9768 a 1708.368,1708.368 0 0 0 87.1894,-116.953 z"
       style="fill:#ffffcc;stroke-width:1.61433315;stroke-linecap:round"
       id="path566"
       inkscape:connector-curvature="0" />
    <path
       d="m 3723.0607,1592.1464 a 1605.4543,1605.4543 0 0 1 -91.0146,102.5164 l 73.9719,71.5495 a 1708.368,1708.368 0 0 0 96.8499,-109.0891 z"
       style="fill:#ffeda0;stroke-width:1.61433315;stroke-linecap:round"
       id="path568"
       inkscape:connector-curvature="0" />
    <path
       d="m 3980.6095,578.5006 a 1502.5405,1502.5405 0 0 1 -5.4792,128.18428 l 102.5392,8.78048 a 1605.4543,1605.4543 0 0 0 5.8536,-136.96476 z"
       style="fill:#ffffcc;stroke-width:1.61433315;stroke-linecap:round"
       id="path658"
       inkscape:connector-curvature="0" />
    <path
       d="m 3975.1303,706.68488 a 1502.5405,1502.5405 0 0 1 -16.392,127.25052 l 101.4148,17.49584 a 1605.4543,1605.4543 0 0 0 17.5164,-135.96588 z"
       style="fill:#ffffcc;stroke-width:1.61433315;stroke-linecap:round"
       id="path660"
       inkscape:connector-curvature="0" />
    <path
       d="m 3958.7383,833.9354 a 1502.5405,1502.5405 0 0 1 -27.1907,125.38758 l 99.553,26.08337 a 1605.4543,1605.4543 0 0 0 29.0525,-133.97511 z"
       style="fill:#ffffcc;stroke-width:1.61433315;stroke-linecap:round"
       id="path662"
       inkscape:connector-curvature="0" />
    <path
       d="m 3931.5476,959.32298 a 1502.5405,1502.5405 0 0 1 -37.7873,122.61022 l 96.9653,34.4816 a 1605.4543,1605.4543 0 0 0 40.375,-131.00845 z"
       style="fill:#ffffcc;stroke-width:1.61433315;stroke-linecap:round"
       id="path664"
       inkscape:connector-curvature="0" />
    <path
       d="m 3893.7603,1081.9332 a 1502.5405,1502.5405 0 0 1 -48.1099,118.9404 l 93.6697,42.6284 a 1605.4543,1605.4543 0 0 0 51.4055,-127.0872 z"
       style="fill:#ffffcc;stroke-width:1.61433315;stroke-linecap:round"
       id="path666"
       inkscape:connector-curvature="0" />
    <path
       d="m 3845.6504,1200.8736 a 1502.5405,1502.5405 0 0 1 -58.0821,114.4017 l 89.6916,50.4649 a 1605.4543,1605.4543 0 0 0 62.0602,-122.2382 z"
       style="fill:#ffeda0;stroke-width:1.61433315;stroke-linecap:round"
       id="path668"
       inkscape:connector-curvature="0" />
    <path
       d="m 3787.5683,1315.2753 a 1502.5405,1502.5405 0 0 1 -67.6296,109.0298 l 85.0593,57.9326 a 1605.4543,1605.4543 0 0 0 72.2619,-116.4975 z"
       style="fill:#ffffcc;stroke-width:1.61433315;stroke-linecap:round"
       id="path670"
       inkscape:connector-curvature="0" />
    <path
       d="m 3719.9387,1424.3051 a 1502.5405,1502.5405 0 0 1 -76.6841,102.8634 l 79.8061,64.9779 a 1605.4543,1605.4543 0 0 0 81.9373,-109.9087 z"
       style="fill:#ffeda0;stroke-width:1.61433315;stroke-linecap:round"
       id="path672"
       inkscape:connector-curvature="0" />
    <path
       d="m 3643.2546,1527.1685 a 1502.5405,1502.5405 0 0 1 -85.1815,95.9458 l 73.973,71.5485 a 1605.4543,1605.4543 0 0 0 91.0146,-102.5164 z"
       style="fill:#ffffcc;stroke-width:1.61433315;stroke-linecap:round"
       id="path674"
       inkscape:connector-curvature="0" />
    <path
       d="m 3877.6959,578.5006 a 1399.6268,1399.6268 0 0 1 -5.1037,119.40495 l 102.5381,8.77933 a 1502.5405,1502.5405 0 0 0 5.4792,-128.18428 z"
       style="fill:#feb24c;stroke-width:1.61433315;stroke-linecap:round"
       id="path764"
       inkscape:connector-curvature="0" />
    <path
       d="m 3872.5922,697.90555 a 1399.6268,1399.6268 0 0 1 -15.271,118.53396 l 101.4171,17.49589 a 1502.5405,1502.5405 0 0 0 16.392,-127.25052 z"
       style="fill:#feb24c;stroke-width:1.61433315;stroke-linecap:round"
       id="path766"
       inkscape:connector-curvature="0" />
    <path
       d="m 3857.3212,816.43951 a 1399.6268,1399.6268 0 0 1 -25.3266,116.80004 l 99.553,26.08343 a 1502.5405,1502.5405 0 0 0 27.1907,-125.38758 z"
       style="fill:#fd8d3c;stroke-width:1.61433315;stroke-linecap:round"
       id="path768"
       inkscape:connector-curvature="0" />
    <path
       d="m 3831.9946,933.23955 a 1399.6268,1399.6268 0 0 1 -35.1995,114.21225 l 96.9652,34.4814 a 1502.5405,1502.5405 0 0 0 37.7873,-122.61022 z"
       style="fill:#feb24c;stroke-width:1.61433315;stroke-linecap:round"
       id="path770"
       inkscape:connector-curvature="0" />
    <path
       d="m 3796.7951,1047.4518 a 1399.6268,1399.6268 0 0 1 -44.8144,110.7934 l 93.6697,42.6284 a 1502.5405,1502.5405 0 0 0 48.1099,-118.9404 z"
       style="fill:#feb24c;stroke-width:1.61433315;stroke-linecap:round"
       id="path772"
       inkscape:connector-curvature="0" />
    <path
       d="m 3751.9807,1158.2452 a 1399.6268,1399.6268 0 0 1 -54.105,106.5665 l 89.6926,50.4636 a 1502.5405,1502.5405 0 0 0 58.0821,-114.4017 z"
       style="fill:#feb24c;stroke-width:1.61433315;stroke-linecap:round"
       id="path774"
       inkscape:connector-curvature="0" />
    <path
       d="m 3697.8757,1264.8117 a 1399.6268,1399.6268 0 0 1 -62.9975,101.562 l 85.0605,57.9314 a 1502.5405,1502.5405 0 0 0 67.6296,-109.0298 z"
       style="fill:#feb24c;stroke-width:1.61433315;stroke-linecap:round"
       id="path776"
       inkscape:connector-curvature="0" />
    <path
       d="m 3634.8782,1366.3737 a 1399.6268,1399.6268 0 0 1 -71.432,95.8169 l 79.8084,64.9779 a 1502.5405,1502.5405 0 0 0 76.6841,-102.8634 z"
       style="fill:#fd8d3c;stroke-width:1.61433315;stroke-linecap:round"
       id="path778"
       inkscape:connector-curvature="0" />
    <path
       d="m 3563.4462,1462.1906 a 1399.6268,1399.6268 0 0 1 -79.3461,89.3753 l 73.973,71.5484 a 1502.5405,1502.5405 0 0 0 85.1815,-95.9458 z"
       style="fill:#fed976;stroke-width:1.61433315;stroke-linecap:round"
       id="path780"
       inkscape:connector-curvature="0" />
    <path
       d="m 3774.7823,578.50061 a 1296.7131,1296.7131 0 0 1 -4.7281,110.62566 l 102.538,8.77928 a 1399.6268,1399.6268 0 0 0 5.1037,-119.40495 z"
       style="fill:#fd8d3c;stroke-width:1.61433315;stroke-linecap:round"
       id="path870"
       inkscape:connector-curvature="0" />
    <path
       d="m 3770.0542,689.12627 a 1296.7131,1296.7131 0 0 1 -14.1478,109.81741 l 101.4148,17.49583 a 1399.6268,1399.6268 0 0 0 15.271,-118.53396 z"
       style="fill:#feb24c;stroke-width:1.61433315;stroke-linecap:round"
       id="path872"
       inkscape:connector-curvature="0" />
    <path
       d="m 3755.9064,798.94368 a 1296.7131,1296.7131 0 0 1 -23.466,108.2113 l 99.5542,26.08457 a 1399.6268,1399.6268 0 0 0 25.3266,-116.80004 z"
       style="fill:#feb24c;stroke-width:1.61433315;stroke-linecap:round"
       id="path874"
       inkscape:connector-curvature="0" />
    <path
       d="m 3732.4404,907.15498 a 1296.7131,1296.7131 0 0 1 -32.6105,105.81532 l 96.9652,34.4815 a 1399.6268,1399.6268 0 0 0 35.1995,-114.21225 z"
       style="fill:#feb24c;stroke-width:1.61433315;stroke-linecap:round"
       id="path876"
       inkscape:connector-curvature="0" />
    <path
       d="m 3699.8299,1012.9703 a 1296.7131,1296.7131 0 0 1 -41.52,102.6477 l 93.6708,42.6272 a 1399.6268,1399.6268 0 0 0 44.8144,-110.7934 z"
       style="fill:#fd8d3c;stroke-width:1.61433315;stroke-linecap:round"
       id="path878"
       inkscape:connector-curvature="0" />
    <path
       d="m 3658.3099,1115.618 a 1296.7131,1296.7131 0 0 1 -50.1247,98.7299 l 89.6905,50.4638 a 1399.6268,1399.6268 0 0 0 54.105,-106.5665 z"
       style="fill:#feb24c;stroke-width:1.61433315;stroke-linecap:round"
       id="path880"
       inkscape:connector-curvature="0" />
    <path
       d="m 3608.1852,1214.3479 a 1296.7131,1296.7131 0 0 1 -58.3651,94.0944 l 85.0581,57.9314 a 1399.6268,1399.6268 0 0 0 62.9975,-101.562 z"
       style="fill:#fd8d3c;stroke-width:1.61433315;stroke-linecap:round"
       id="path882"
       inkscape:connector-curvature="0" />
    <path
       d="m 3549.8201,1308.4423 a 1296.7131,1296.7131 0 0 1 -66.1811,88.7715 l 79.8072,64.9768 a 1399.6268,1399.6268 0 0 0 71.432,-95.8169 z"
       style="fill:#fed976;stroke-width:1.61433315;stroke-linecap:round"
       id="path884"
       inkscape:connector-curvature="0" />
    <path
       d="m 3483.639,1397.2138 a 1296.7131,1296.7131 0 0 1 -73.5119,82.8036 l 73.973,71.5485 a 1399.6268,1399.6268 0 0 0 79.3461,-89.3753 z"
       style="fill:#feb24c;stroke-width:1.61433315;stroke-linecap:round"
       id="path886"
       inkscape:connector-curvature="0" />
    <path
       d="m 3013.2198,578.50062 a 535.15142,535.15142 0 0 1 -1.9508,45.65454 l 615.2305,52.67819 a 1152.6338,1152.6338 0 0 0 4.202,-98.3327 z"
       style="fill:#feebe2;stroke-width:1.61433315;stroke-linecap:round"
       id="path990"
       inkscape:connector-curvature="0" />
    <path
       d="m 3011.2656,624.16086 615.2374,52.6805"
       style="fill:#feebe2;stroke-width:1.61433315;stroke-linecap:round"
       id="path992"
       inkscape:connector-curvature="0" />
    <path
       d="m 3011.269,624.15516 a 535.15142,535.15142 0 0 1 -5.8399,45.32236 l 608.4956,104.97284 a 1152.6338,1152.6338 0 0 0 12.5748,-97.61701 z"
       style="fill:#feebe2;stroke-width:1.61433315;stroke-linecap:round"
       id="path994"
       inkscape:connector-curvature="0" />
    <path
       d="m 3005.421,669.47862 608.5026,104.96151"
       style="fill:#feebe2;stroke-width:1.61433315;stroke-linecap:round"
       id="path996"
       inkscape:connector-curvature="0" />
    <path
       d="m 3005.4291,669.47752 a 535.15142,535.15142 0 0 1 -9.6834,44.65915 l 597.3215,156.50158 a 1152.6338,1152.6338 0 0 0 20.8575,-96.18789 z"
       style="fill:#feebe2;stroke-width:1.61433315;stroke-linecap:round"
       id="path998"
       inkscape:connector-curvature="0" />
    <path
       d="m 2995.7411,714.13435 597.3272,156.50049"
       style="fill:#feebe2;stroke-width:1.61433315;stroke-linecap:round"
       id="path1000"
       inkscape:connector-curvature="0" />
    <path
       d="m 2995.7457,714.13667 a 535.15142,535.15142 0 0 1 -13.4584,43.6694 l 581.7902,206.88998 a 1152.6338,1152.6338 0 0 0 28.9897,-94.0578 z"
       style="fill:#feebe2;stroke-width:1.61433315;stroke-linecap:round"
       id="path1002"
       inkscape:connector-curvature="0" />
    <path
       d="M 2982.2942,757.80838 3564.074,964.69486"
       style="fill:#feebe2;stroke-width:1.61433315;stroke-linecap:round"
       id="path1004"
       inkscape:connector-curvature="0" />
    <path
       d="m 2982.2873,757.80607 a 535.15142,535.15142 0 0 1 -17.1352,42.36244 l 562.0193,255.76919 a 1152.6338,1152.6338 0 0 0 36.9061,-91.24165 z"
       style="fill:#feebe2;stroke-width:1.61433315;stroke-linecap:round"
       id="path1006"
       inkscape:connector-curvature="0" />
    <path
       d="m 2965.1602,800.16968 562.009,255.76582"
       style="fill:#feebe2;stroke-width:1.61433315;stroke-linecap:round"
       id="path1008"
       inkscape:connector-curvature="0" />
    <path
       d="m 2965.1521,800.16851 a 535.15142,535.15142 0 0 1 -20.6863,40.74488 l 538.1504,302.78561 a 1152.6338,1152.6338 0 0 0 44.5552,-87.7613 z"
       style="fill:#feebe2;stroke-width:1.61433315;stroke-linecap:round"
       id="path1010"
       inkscape:connector-curvature="0" />
    <path
       d="m 2944.4646,840.90999 538.1516,302.79581"
       style="fill:#feebe2;stroke-width:1.61433315;stroke-linecap:round"
       id="path1012"
       inkscape:connector-curvature="0" />
    <path
       d="m 2944.4658,840.91339 a 535.15142,535.15142 0 0 1 -24.0869,38.83291 l 510.3569,347.5919 a 1152.6338,1152.6338 0 0 0 51.8804,-83.6392 z"
       style="fill:#feebe2;stroke-width:1.61433315;stroke-linecap:round"
       id="path1014"
       inkscape:connector-curvature="0" />
    <path
       d="M 2920.3789,879.74403 3430.7348,1227.344"
       style="fill:#feebe2;stroke-width:1.61433315;stroke-linecap:round"
       id="path1016"
       inkscape:connector-curvature="0" />
    <path
       d="m 2920.3789,879.7463 a 535.15142,535.15142 0 0 1 -27.3129,36.63661 l 478.8435,389.86309 a 1152.6338,1152.6338 0 0 0 58.8263,-78.9078 z"
       style="fill:#feebe2;stroke-width:1.61433315;stroke-linecap:round"
       id="path1018"
       inkscape:connector-curvature="0" />
    <path
       d="m 2893.0626,916.37497 478.8389,389.86993"
       style="fill:#feebe2;stroke-width:1.61433315;stroke-linecap:round"
       id="path1020"
       inkscape:connector-curvature="0" />
    <path
       d="m 2893.066,916.38291 a 535.15142,535.15142 0 0 1 -30.3389,34.17214 l 443.8381,429.29305 a 1152.6338,1152.6338 0 0 0 65.3443,-73.6021 z"
       style="fill:#feebe2;stroke-width:1.61433315;stroke-linecap:round"
       id="path1022"
       inkscape:connector-curvature="0" />
    <path
       d="m 3013.2198,578.50062 a 535.15142,535.15142 0 0 1 -1.9508,45.65454 l 615.2305,52.67819 a 1152.6338,1152.6338 0 0 0 4.202,-98.3327 z"
       style="fill:#fcc5c0;stroke-width:1.61433315;stroke-linecap:round"
       id="path1200"
       inkscape:connector-curvature="0" />
    <path
       d="m 3011.2656,624.16086 615.2374,52.6805"
       style="fill:#fcc5c0;stroke-width:1.61433315;stroke-linecap:round"
       id="path1202"
       inkscape:connector-curvature="0" />
    <path
       d="m 3011.269,624.15516 a 535.15142,535.15142 0 0 1 -5.8399,45.32236 l 608.4956,104.97284 a 1152.6338,1152.6338 0 0 0 12.5748,-97.61701 z"
       style="fill:#fcc5c0;stroke-width:1.61433315;stroke-linecap:round"
       id="path1204"
       inkscape:connector-curvature="0" />
    <path
       d="m 3005.421,669.47862 608.5026,104.96151"
       style="fill:#fcc5c0;stroke-width:1.61433315;stroke-linecap:round"
       id="path1206"
       inkscape:connector-curvature="0" />
    <path
       d="m 3005.4291,669.47752 a 535.15142,535.15142 0 0 1 -9.6834,44.65915 l 597.3215,156.50158 a 1152.6338,1152.6338 0 0 0 20.8575,-96.18789 z"
       style="fill:#fcc5c0;stroke-width:1.61433315;stroke-linecap:round"
       id="path1208"
       inkscape:connector-curvature="0" />
    <path
       d="m 2995.7411,714.13435 597.3272,156.50049"
       style="fill:#fcc5c0;stroke-width:1.61433315;stroke-linecap:round"
       id="path1210"
       inkscape:connector-curvature="0" />
    <path
       d="m 2995.7457,714.13667 a 535.15142,535.15142 0 0 1 -13.4584,43.6694 l 581.7902,206.88998 a 1152.6338,1152.6338 0 0 0 28.9897,-94.0578 z"
       style="fill:#fcc5c0;stroke-width:1.61433315;stroke-linecap:round"
       id="path1212"
       inkscape:connector-curvature="0" />
    <path
       d="M 2982.2942,757.80838 3564.074,964.69486"
       style="fill:#fcc5c0;stroke-width:1.61433315;stroke-linecap:round"
       id="path1214"
       inkscape:connector-curvature="0" />
    <path
       d="m 2982.2873,757.80607 a 535.15142,535.15142 0 0 1 -17.1352,42.36244 l 562.0193,255.76919 a 1152.6338,1152.6338 0 0 0 36.9061,-91.24165 z"
       style="fill:#fcc5c0;stroke-width:1.61433315;stroke-linecap:round"
       id="path1216"
       inkscape:connector-curvature="0" />
    <path
       d="m 2965.1602,800.16968 562.009,255.76582"
       style="fill:#fcc5c0;stroke-width:1.61433315;stroke-linecap:round"
       id="path1218"
       inkscape:connector-curvature="0" />
    <path
       d="m 2965.1521,800.16851 a 535.15142,535.15142 0 0 1 -20.6863,40.74488 l 538.1504,302.78561 a 1152.6338,1152.6338 0 0 0 44.5552,-87.7613 z"
       style="fill:#fcc5c0;stroke-width:1.61433315;stroke-linecap:round"
       id="path1220"
       inkscape:connector-curvature="0" />
    <path
       d="m 2944.4646,840.90999 538.1516,302.79581"
       style="fill:#fcc5c0;stroke-width:1.61433315;stroke-linecap:round"
       id="path1222"
       inkscape:connector-curvature="0" />
    <path
       d="m 2944.4658,840.91339 a 535.15142,535.15142 0 0 1 -24.0869,38.83291 l 510.3569,347.5919 a 1152.6338,1152.6338 0 0 0 51.8804,-83.6392 z"
       style="fill:#fcc5c0;stroke-width:1.61433315;stroke-linecap:round"
       id="path1224"
       inkscape:connector-curvature="0" />
    <path
       d="M 2920.3789,879.74403 3430.7348,1227.344"
       style="fill:#fcc5c0;stroke-width:1.61433315;stroke-linecap:round"
       id="path1226"
       inkscape:connector-curvature="0" />
    <path
       d="m 2920.3789,879.7463 a 535.15142,535.15142 0 0 1 -27.3129,36.63661 l 478.8435,389.86309 a 1152.6338,1152.6338 0 0 0 58.8263,-78.9078 z"
       style="fill:#fcc5c0;stroke-width:1.61433315;stroke-linecap:round"
       id="path1228"
       inkscape:connector-curvature="0" />
    <path
       d="m 2893.0626,916.37497 478.8389,389.86993"
       style="fill:#fcc5c0;stroke-width:1.61433315;stroke-linecap:round"
       id="path1230"
       inkscape:connector-curvature="0" />
    <path
       d="m 2893.066,916.38291 a 535.15142,535.15142 0 0 1 -30.3389,34.17214 l 443.8381,429.29305 a 1152.6338,1152.6338 0 0 0 65.3443,-73.6021 z"
       style="fill:#fcc5c0;stroke-width:1.61433315;stroke-linecap:round"
       id="path1232"
       inkscape:connector-curvature="0" />
    <path
       d="m 3013.2198,578.50062 a 535.15142,535.15142 0 0 1 -1.9508,45.65454 l 615.2305,52.67819 a 1152.6338,1152.6338 0 0 0 4.202,-98.3327 z"
       style="fill:#fa9fb5;stroke-width:1.61433315;stroke-linecap:round"
       id="path1410"
       inkscape:connector-curvature="0" />
    <path
       d="m 3011.2656,624.16086 615.2374,52.6805"
       style="fill:#fa9fb5;stroke-width:1.61433315;stroke-linecap:round"
       id="path1412"
       inkscape:connector-curvature="0" />
    <path
       d="m 3011.269,624.15516 a 535.15142,535.15142 0 0 1 -5.8399,45.32236 l 608.4956,104.97284 a 1152.6338,1152.6338 0 0 0 12.5748,-97.61701 z"
       style="fill:#fa9fb5;stroke-width:1.61433315;stroke-linecap:round"
       id="path1414"
       inkscape:connector-curvature="0" />
    <path
       d="m 3005.421,669.47862 608.5026,104.96151"
       style="fill:#fa9fb5;stroke-width:1.61433315;stroke-linecap:round"
       id="path1416"
       inkscape:connector-curvature="0" />
    <path
       d="m 3005.4291,669.47752 a 535.15142,535.15142 0 0 1 -9.6834,44.65915 l 597.3215,156.50158 a 1152.6338,1152.6338 0 0 0 20.8575,-96.18789 z"
       style="fill:#fa9fb5;stroke-width:1.61433315;stroke-linecap:round"
       id="path1418"
       inkscape:connector-curvature="0" />
    <path
       d="m 2995.7411,714.13435 597.3272,156.50049"
       style="fill:#fa9fb5;stroke-width:1.61433315;stroke-linecap:round"
       id="path1420"
       inkscape:connector-curvature="0" />
    <path
       d="m 2995.7457,714.13667 a 535.15142,535.15142 0 0 1 -13.4584,43.6694 l 581.7902,206.88998 a 1152.6338,1152.6338 0 0 0 28.9897,-94.0578 z"
       style="fill:#fa9fb5;stroke-width:1.61433315;stroke-linecap:round"
       id="path1422"
       inkscape:connector-curvature="0" />
    <path
       d="M 2982.2942,757.80838 3564.074,964.69486"
       style="fill:#fa9fb5;stroke-width:1.61433315;stroke-linecap:round"
       id="path1424"
       inkscape:connector-curvature="0" />
    <path
       d="m 2982.2873,757.80607 a 535.15142,535.15142 0 0 1 -17.1352,42.36244 l 562.0193,255.76919 a 1152.6338,1152.6338 0 0 0 36.9061,-91.24165 z"
       style="fill:#fa9fb5;stroke-width:1.61433315;stroke-linecap:round"
       id="path1426"
       inkscape:connector-curvature="0" />
    <path
       d="m 2965.1602,800.16968 562.009,255.76582"
       style="fill:#fa9fb5;stroke-width:1.61433315;stroke-linecap:round"
       id="path1428"
       inkscape:connector-curvature="0" />
    <path
       d="m 2965.1521,800.16851 a 535.15142,535.15142 0 0 1 -20.6863,40.74488 l 538.1504,302.78561 a 1152.6338,1152.6338 0 0 0 44.5552,-87.7613 z"
       style="fill:#fa9fb5;stroke-width:1.61433315;stroke-linecap:round"
       id="path1430"
       inkscape:connector-curvature="0" />
    <path
       d="m 2944.4646,840.90999 538.1516,302.79581"
       style="fill:#fa9fb5;stroke-width:1.61433315;stroke-linecap:round"
       id="path1432"
       inkscape:connector-curvature="0" />
    <path
       d="m 2944.4658,840.91339 a 535.15142,535.15142 0 0 1 -24.0869,38.83291 l 510.3569,347.5919 a 1152.6338,1152.6338 0 0 0 51.8804,-83.6392 z"
       style="fill:#fa9fb5;stroke-width:1.61433315;stroke-linecap:round"
       id="path1434"
       inkscape:connector-curvature="0" />
    <path
       d="M 2920.3789,879.74403 3430.7348,1227.344"
       style="fill:#fa9fb5;stroke-width:1.61433315;stroke-linecap:round"
       id="path1436"
       inkscape:connector-curvature="0" />
    <path
       d="m 2920.3789,879.7463 a 535.15142,535.15142 0 0 1 -27.3129,36.63661 l 478.8435,389.86309 a 1152.6338,1152.6338 0 0 0 58.8263,-78.9078 z"
       style="fill:#fa9fb5;stroke-width:1.61433315;stroke-linecap:round"
       id="path1438"
       inkscape:connector-curvature="0" />
    <path
       d="m 2893.0626,916.37497 478.8389,389.86993"
       style="fill:#fa9fb5;stroke-width:1.61433315;stroke-linecap:round"
       id="path1440"
       inkscape:connector-curvature="0" />
    <path
       d="m 2893.066,916.38291 a 535.15142,535.15142 0 0 1 -30.3389,34.17214 l 443.8381,429.29305 a 1152.6338,1152.6338 0 0 0 65.3443,-73.6021 z"
       style="fill:#fa9fb5;stroke-width:1.61433315;stroke-linecap:round"
       id="path1442"
       inkscape:connector-curvature="0" />
    <path
       d="m 3013.2198,578.50062 a 535.15142,535.15142 0 0 1 -1.9508,45.65454 l 615.2305,52.67819 a 1152.6338,1152.6338 0 0 0 4.202,-98.3327 z"
       style="fill:#f768a1;stroke-width:1.61433315;stroke-linecap:round"
       id="path1620"
       inkscape:connector-curvature="0" />
    <path
       d="m 3011.2656,624.16086 615.2374,52.6805"
       style="fill:#f768a1;stroke-width:1.61433315;stroke-linecap:round"
       id="path1622"
       inkscape:connector-curvature="0" />
    <path
       d="m 3011.269,624.15516 a 535.15142,535.15142 0 0 1 -5.8399,45.32236 l 608.4956,104.97284 a 1152.6338,1152.6338 0 0 0 12.5748,-97.61701 z"
       style="fill:#f768a1;stroke-width:1.61433315;stroke-linecap:round"
       id="path1624"
       inkscape:connector-curvature="0" />
    <path
       d="m 3005.421,669.47862 608.5026,104.96151"
       style="fill:#f768a1;stroke-width:1.61433315;stroke-linecap:round"
       id="path1626"
       inkscape:connector-curvature="0" />
    <path
       d="m 3005.4291,669.47752 a 535.15142,535.15142 0 0 1 -9.6834,44.65915 l 597.3215,156.50158 a 1152.6338,1152.6338 0 0 0 20.8575,-96.18789 z"
       style="fill:#f768a1;stroke-width:1.61433315;stroke-linecap:round"
       id="path1628"
       inkscape:connector-curvature="0" />
    <path
       d="m 2995.7411,714.13435 597.3272,156.50049"
       style="fill:#f768a1;stroke-width:1.61433315;stroke-linecap:round"
       id="path1630"
       inkscape:connector-curvature="0" />
    <path
       d="m 2995.7457,714.13667 a 535.15142,535.15142 0 0 1 -13.4584,43.6694 l 581.7902,206.88998 a 1152.6338,1152.6338 0 0 0 28.9897,-94.0578 z"
       style="fill:#f768a1;stroke-width:1.61433315;stroke-linecap:round"
       id="path1632"
       inkscape:connector-curvature="0" />
    <path
       d="M 2982.2942,757.80838 3564.074,964.69486"
       style="fill:#f768a1;stroke-width:1.61433315;stroke-linecap:round"
       id="path1634"
       inkscape:connector-curvature="0" />
    <path
       d="m 2982.2873,757.80607 a 535.15142,535.15142 0 0 1 -17.1352,42.36244 l 562.0193,255.76919 a 1152.6338,1152.6338 0 0 0 36.9061,-91.24165 z"
       style="fill:#f768a1;stroke-width:1.61433315;stroke-linecap:round"
       id="path1636"
       inkscape:connector-curvature="0" />
    <path
       d="m 2965.1602,800.16968 562.009,255.76582"
       style="fill:#f768a1;stroke-width:1.61433315;stroke-linecap:round"
       id="path1638"
       inkscape:connector-curvature="0" />
    <path
       d="m 2965.1521,800.16851 a 535.15142,535.15142 0 0 1 -20.6863,40.74488 l 538.1504,302.78561 a 1152.6338,1152.6338 0 0 0 44.5552,-87.7613 z"
       style="fill:#f768a1;stroke-width:1.61433315;stroke-linecap:round"
       id="path1640"
       inkscape:connector-curvature="0" />
    <path
       d="m 2944.4646,840.90999 538.1516,302.79581"
       style="fill:#f768a1;stroke-width:1.61433315;stroke-linecap:round"
       id="path1642"
       inkscape:connector-curvature="0" />
    <path
       d="m 2944.4658,840.91339 a 535.15142,535.15142 0 0 1 -24.0869,38.83291 l 510.3569,347.5919 a 1152.6338,1152.6338 0 0 0 51.8804,-83.6392 z"
       style="fill:#f768a1;stroke-width:1.61433315;stroke-linecap:round"
       id="path1644"
       inkscape:connector-curvature="0" />
    <path
       d="M 2920.3789,879.74403 3430.7348,1227.344"
       style="fill:#f768a1;stroke-width:1.61433315;stroke-linecap:round"
       id="path1646"
       inkscape:connector-curvature="0" />
    <path
       d="m 2920.3789,879.7463 a 535.15142,535.15142 0 0 1 -27.3129,36.63661 l 478.8435,389.86309 a 1152.6338,1152.6338 0 0 0 58.8263,-78.9078 z"
       style="fill:#f768a1;stroke-width:1.61433315;stroke-linecap:round"
       id="path1648"
       inkscape:connector-curvature="0" />
    <path
       d="m 2893.0626,916.37497 478.8389,389.86993"
       style="fill:#f768a1;stroke-width:1.61433315;stroke-linecap:round"
       id="path1650"
       inkscape:connector-curvature="0" />
    <path
       d="m 2893.066,916.38291 a 535.15142,535.15142 0 0 1 -30.3389,34.17214 l 443.8381,429.29305 a 1152.6338,1152.6338 0 0 0 65.3443,-73.6021 z"
       style="fill:#f768a1;stroke-width:1.61433315;stroke-linecap:round"
       id="path1652"
       inkscape:connector-curvature="0" />
    <path
       d="m 3013.2198,578.50062 a 535.15142,535.15142 0 0 1 -1.9508,45.65454 l 615.2305,52.67819 a 1152.6338,1152.6338 0 0 0 4.202,-98.3327 z"
       style="fill:#c51b8a;stroke-width:1.61433315;stroke-linecap:round"
       id="path1830"
       inkscape:connector-curvature="0" />
    <path
       d="m 3011.2656,624.16086 615.2374,52.6805"
       style="fill:#c51b8a;stroke-width:1.61433315;stroke-linecap:round"
       id="path1832"
       inkscape:connector-curvature="0" />
    <path
       d="m 3011.269,624.15516 a 535.15142,535.15142 0 0 1 -5.8399,45.32236 l 608.4956,104.97284 a 1152.6338,1152.6338 0 0 0 12.5748,-97.61701 z"
       style="fill:#c51b8a;stroke-width:1.61433315;stroke-linecap:round"
       id="path1834"
       inkscape:connector-curvature="0" />
    <path
       d="m 3005.421,669.47862 608.5026,104.96151"
       style="fill:#c51b8a;stroke-width:1.61433315;stroke-linecap:round"
       id="path1836"
       inkscape:connector-curvature="0" />
    <path
       d="m 3005.4291,669.47752 a 535.15142,535.15142 0 0 1 -9.6834,44.65915 l 597.3215,156.50158 a 1152.6338,1152.6338 0 0 0 20.8575,-96.18789 z"
       style="fill:#c51b8a;stroke-width:1.61433315;stroke-linecap:round"
       id="path1838"
       inkscape:connector-curvature="0" />
    <path
       d="m 2995.7411,714.13435 597.3272,156.50049"
       style="fill:#c51b8a;stroke-width:1.61433315;stroke-linecap:round"
       id="path1840"
       inkscape:connector-curvature="0" />
    <path
       d="m 2995.7457,714.13667 a 535.15142,535.15142 0 0 1 -13.4584,43.6694 l 581.7902,206.88998 a 1152.6338,1152.6338 0 0 0 28.9897,-94.0578 z"
       style="fill:#c51b8a;stroke-width:1.61433315;stroke-linecap:round"
       id="path1842"
       inkscape:connector-curvature="0" />
    <path
       d="M 2982.2942,757.80838 3564.074,964.69486"
       style="fill:#c51b8a;stroke-width:1.61433315;stroke-linecap:round"
       id="path1844"
       inkscape:connector-curvature="0" />
    <path
       d="m 2982.2873,757.80607 a 535.15142,535.15142 0 0 1 -17.1352,42.36244 l 562.0193,255.76919 a 1152.6338,1152.6338 0 0 0 36.9061,-91.24165 z"
       style="fill:#c51b8a;stroke-width:1.61433315;stroke-linecap:round"
       id="path1846"
       inkscape:connector-curvature="0" />
    <path
       d="m 2965.1602,800.16968 562.009,255.76582"
       style="fill:#c51b8a;stroke-width:1.61433315;stroke-linecap:round"
       id="path1848"
       inkscape:connector-curvature="0" />
    <path
       d="m 2965.1521,800.16851 a 535.15142,535.15142 0 0 1 -20.6863,40.74488 l 538.1504,302.78561 a 1152.6338,1152.6338 0 0 0 44.5552,-87.7613 z"
       style="fill:#c51b8a;stroke-width:1.61433315;stroke-linecap:round"
       id="path1850"
       inkscape:connector-curvature="0" />
    <path
       d="m 2944.4646,840.90999 538.1516,302.79581"
       style="fill:#c51b8a;stroke-width:1.61433315;stroke-linecap:round"
       id="path1852"
       inkscape:connector-curvature="0" />
    <path
       d="m 2944.4658,840.91339 a 535.15142,535.15142 0 0 1 -24.0869,38.83291 l 510.3569,347.5919 a 1152.6338,1152.6338 0 0 0 51.8804,-83.6392 z"
       style="fill:#c51b8a;stroke-width:1.61433315;stroke-linecap:round"
       id="path1854"
       inkscape:connector-curvature="0" />
    <path
       d="M 2920.3789,879.74403 3430.7348,1227.344"
       style="fill:#c51b8a;stroke-width:1.61433315;stroke-linecap:round"
       id="path1856"
       inkscape:connector-curvature="0" />
    <path
       d="m 2920.3789,879.7463 a 535.15142,535.15142 0 0 1 -27.3129,36.63661 l 478.8435,389.86309 a 1152.6338,1152.6338 0 0 0 58.8263,-78.9078 z"
       style="fill:#c51b8a;stroke-width:1.61433315;stroke-linecap:round"
       id="path1858"
       inkscape:connector-curvature="0" />
    <path
       d="m 2893.0626,916.37497 478.8389,389.86993"
       style="fill:#c51b8a;stroke-width:1.61433315;stroke-linecap:round"
       id="path1860"
       inkscape:connector-curvature="0" />
    <path
       d="m 2893.066,916.38291 a 535.15142,535.15142 0 0 1 -30.3389,34.17214 l 443.8381,429.29305 a 1152.6338,1152.6338 0 0 0 65.3443,-73.6021 z"
       style="fill:#c51b8a;stroke-width:1.61433315;stroke-linecap:round"
       id="path1862"
       inkscape:connector-curvature="0" />
    <path
       d="m 3013.2198,578.50062 a 535.15142,535.15142 0 0 1 -1.9508,45.65454 l 97.391,8.33984 a 632.89929,632.89929 0 0 0 2.307,-53.99437 z"
       style="fill:#7a0177;stroke-width:1.61433315;stroke-linecap:round"
       id="path2040"
       inkscape:connector-curvature="0" />
    <path
       d="m 3011.2656,624.16086 97.3933,8.33301"
       style="fill:#7a0177;stroke-width:1.61433315;stroke-linecap:round"
       id="path2042"
       inkscape:connector-curvature="0" />
    <path
       d="m 3011.269,624.15516 a 535.15142,535.15142 0 0 1 -5.8399,45.32236 l 96.3259,16.61685 a 632.89929,632.89929 0 0 0 6.905,-53.59937 z"
       style="fill:#7a0177;stroke-width:1.61433315;stroke-linecap:round"
       id="path2044"
       inkscape:connector-curvature="0" />
    <path
       d="m 3005.421,669.47862 96.3317,16.60894"
       style="fill:#7a0177;stroke-width:1.61433315;stroke-linecap:round"
       id="path2046"
       inkscape:connector-curvature="0" />
    <path
       d="m 3005.4291,669.47752 a 535.15142,535.15142 0 0 1 -9.6834,44.65915 l 94.5554,24.77292 a 632.89929,632.89929 0 0 0 11.4539,-52.81522 z"
       style="fill:#7a0177;stroke-width:1.61433315;stroke-linecap:round"
       id="path2048"
       inkscape:connector-curvature="0" />
    <path
       d="m 2995.7411,714.13435 94.5623,24.77068"
       style="fill:#7a0177;stroke-width:1.61433315;stroke-linecap:round"
       id="path2050"
       inkscape:connector-curvature="0" />
    <path
       d="m 2995.7457,714.13667 a 535.15142,535.15142 0 0 1 -13.4584,43.6694 l 92.0967,32.7498 a 632.89929,632.89929 0 0 0 15.9171,-51.64628 z"
       style="fill:#7a0177;stroke-width:1.61433315;stroke-linecap:round"
       id="path2052"
       inkscape:connector-curvature="0" />
    <path
       d="m 2982.2942,757.80838 92.0852,32.74978"
       style="fill:#7a0177;stroke-width:1.61433315;stroke-linecap:round"
       id="path2054"
       inkscape:connector-curvature="0" />
    <path
       d="m 2982.2873,757.80607 a 535.15142,535.15142 0 0 1 -17.1352,42.36244 l 88.9678,40.48804 a 632.89929,632.89929 0 0 0 20.2641,-50.10068 z"
       style="fill:#7a0177;stroke-width:1.61433315;stroke-linecap:round"
       id="path2056"
       inkscape:connector-curvature="0" />
    <path
       d="m 2965.1602,800.16968 88.9575,40.48915"
       style="fill:#7a0177;stroke-width:1.61433315;stroke-linecap:round"
       id="path2058"
       inkscape:connector-curvature="0" />
    <path
       d="m 2965.1521,800.16851 a 535.15142,535.15142 0 0 1 -20.6863,40.74488 l 85.1894,47.93074 a 632.89929,632.89929 0 0 0 24.4647,-48.18758 z"
       style="fill:#7a0177;stroke-width:1.61433315;stroke-linecap:round"
       id="path2060"
       inkscape:connector-curvature="0" />
    <path
       d="m 2944.4646,840.90999 85.1906,47.93186"
       style="fill:#7a0177;stroke-width:1.61433315;stroke-linecap:round"
       id="path2062"
       inkscape:connector-curvature="0" />
    <path
       d="m 2944.4658,840.91339 a 535.15142,535.15142 0 0 1 -24.0869,38.83291 l 80.7889,55.02291 a 632.89929,632.89929 0 0 0 28.4874,-45.92508 z"
       style="fill:#7a0177;stroke-width:1.61433315;stroke-linecap:round"
       id="path2064"
       inkscape:connector-curvature="0" />
    <path
       d="m 2920.3789,879.74403 80.7844,55.03201"
       style="fill:#7a0177;stroke-width:1.61433315;stroke-linecap:round"
       id="path2066"
       inkscape:connector-curvature="0" />
    <path
       d="m 2920.3789,879.7463 a 535.15142,535.15142 0 0 1 -27.3129,36.63661 l 75.8006,61.71441 a 632.89929,632.89929 0 0 0 32.3012,-43.32811 z"
       style="fill:#7a0177;stroke-width:1.61433315;stroke-linecap:round"
       id="path2068"
       inkscape:connector-curvature="0" />
    <path
       d="m 2893.0626,916.37497 75.8074,61.7212"
       style="fill:#7a0177;stroke-width:1.61433315;stroke-linecap:round"
       id="path2070"
       inkscape:connector-curvature="0" />
    <path
       d="m 2893.066,916.38291 a 535.15142,535.15142 0 0 1 -30.3389,34.17214 l 70.2597,67.95615 a 632.89929,632.89929 0 0 0 35.8798,-40.41388 z"
       style="fill:#7a0177;stroke-width:1.61433315;stroke-linecap:round"
       id="path2072"
       inkscape:connector-curvature="0" />
  </g>
  <defs
     id="defs2220">
    <pattern
       id="hline-sparse"
       width="10"
       height="10"
       patternTransform="rotate(0 0 0)"
       patternUnits="userSpaceOnUse">
      <line
         x1="0"
         y1="0"
         x2="10"
         y2="0"
         style="stroke:black;stroke-width:2"
         id="line2223" />
    </pattern>
    <pattern
       id="checker"
       width="10"
       height="10"
       patternTransform="rotate(45 0 0)"
       patternUnits="userSpaceOnUse">
      <line
         x1="0"
         y1="0"
         x2="10"
         y2="0"
         style="stroke:black;stroke-width:5"
         id="line2226" />
      <line
         x1="0"
         y1="0"
         x2="0"
         y2="10"
         style="stroke:black;stroke-width:4"
         id="line2228" />
    </pattern>
    <pattern
       id="vline"
       width="10"
       height="10"
       patternTransform="rotate(0 0 0)"
       patternUnits="userSpaceOnUse">
      <line
         x1="0"
         y1="0"
         x2="0"
         y2="10"
         style="stroke:black;stroke-width:5"
         id="line2231" />
    </pattern>
    <pattern
       id="vline-sparse"
       width="10"
       height="10"
       patternTransform="rotate(0 0 0)"
       patternUnits="userSpaceOnUse">
      <line
         x1="0"
         y1="0"
         x2="0"
         y2="10"
         style="stroke:black;stroke-width:2"
         id="line2234" />
    </pattern>
    <pattern
       id="pattern2236"
       width="10"
       height="10"
       patternTransform="rotate(45 0 0)"
       patternUnits="userSpaceOnUse">
      <line
         x1="0"
         y1="0"
         x2="10"
         y2="0"
         style="stroke:black;stroke-width:2"
         id="line2238" />
      <line
         x1="0"
         y1="0"
         x2="0"
         y2="10"
         style="stroke:black;stroke-width:2"
         id="line2240" />
    </pattern>
    <pattern
       id="hline"
       width="10"
       height="10"
       patternTransform="rotate(0 0 0)"
       patternUnits="userSpaceOnUse">
      <line
         x1="0"
         y1="0"
         x2="10"
         y2="0"
         style="stroke:black;stroke-width:5"
         id="line2243" />
    </pattern>
  </defs>
</svg>
