<?xml version="1.0" encoding="UTF-8" standalone="no"?>
<svg
   xmlns:dc="http://purl.org/dc/elements/1.1/"
   xmlns:cc="http://creativecommons.org/ns#"
   xmlns:rdf="http://www.w3.org/1999/02/22-rdf-syntax-ns#"
   xmlns:svg="http://www.w3.org/2000/svg"
   xmlns="http://www.w3.org/2000/svg"
   xmlns:sodipodi="http://sodipodi.sourceforge.net/DTD/sodipodi-0.dtd"
   xmlns:inkscape="http://www.inkscape.org/namespaces/inkscape"
   width="3000px"
   height="3000px"
   version="1.1"
   id="svg2"
   inkscape:version="0.92.4 (5da689c313, 2019-01-14)"
   sodipodi:docname="Final-Wedge-04.svg">
  <metadata
     id="metadata2247">
    <rdf:RDF>
      <cc:Work
         rdf:about="">
        <dc:format>image/svg+xml</dc:format>
        <dc:type
           rdf:resource="http://purl.org/dc/dcmitype/StillImage" />
        <dc:title></dc:title>
      </cc:Work>
    </rdf:RDF>
  </metadata>
  <sodipodi:namedview
     pagecolor="#ffffff"
     bordercolor="#666666"
     borderopacity="1"
     objecttolerance="10"
     gridtolerance="10"
     guidetolerance="10"
     inkscape:pageopacity="0"
     inkscape:pageshadow="2"
     inkscape:window-width="1920"
     inkscape:window-height="1000"
     id="namedview2245"
     showgrid="false"
     inkscape:zoom="0.11125147"
     inkscape:cx="1222.0751"
     inkscape:cy="1477.0097"
     inkscape:window-x="0"
     inkscape:window-y="52"
     inkscape:window-maximized="1"
     inkscape:current-layer="svg2" />
  <g
     id="g3463"
     transform="rotate(-45,1014.4217,2511.7829)">
    <path
       inkscape:connector-curvature="0"
       id="path216"
       style="fill:#edf8fb;stroke:#000000;stroke-width:8.07166576;stroke-linecap:round"
       d="M 2421.4997,2590.4294 A 1955.361,1955.361 0 0 1 1252.7963,2202.7329 l -119.4027,160.1635 a 2155.1347,2155.1347 0 0 0 1288.1061,427.3079 z" />
    <path
       inkscape:connector-curvature="0"
       id="path218"
       style="fill:#006d2c;stroke:#000000;stroke-width:8.07166576;stroke-linecap:round"
       d="m 1252.7963,2202.7329 a 1955.361,1955.361 0 0 1 -190.7251,-162.1783 l -138.88937,143.5946 a 2155.1347,2155.1347 0 0 0 210.21177,178.7472 z" />
    <path
       inkscape:connector-curvature="0"
       id="path222"
       style="fill:#edf8fb;stroke:#000000;stroke-width:8.07166576;stroke-linecap:round"
       d="m 2421.4997,2487.5158 a 1852.4472,1852.4472 0 0 1 -236.6936,-15.1843 l -13.1501,102.0711 a 1955.361,1955.361 0 0 0 249.8437,16.0268 z" />
    <path
       inkscape:connector-curvature="0"
       id="path224"
       style="fill:#ccece6;stroke:#000000;stroke-width:8.07166576;stroke-linecap:round"
       d="m 2184.8061,2472.3315 a 1852.4472,1852.4472 0 0 1 -232.8124,-45.3018 l -26.0845,99.5542 a 1955.361,1955.361 0 0 0 245.7468,47.8187 z" />
    <path
       inkscape:connector-curvature="0"
       id="path226"
       style="fill:#99d8c9;stroke:#000000;stroke-width:8.07166576;stroke-linecap:round"
       d="m 1951.9937,2427.0297 a 1852.4472,1852.4472 0 0 1 -225.1175,-74.6784 l -38.5897,95.4047 a 1955.361,1955.361 0 0 0 237.6227,78.8279 z" />
    <path
       inkscape:connector-curvature="0"
       id="path228"
       style="fill:#66c2a4;stroke:#000000;stroke-width:8.07166576;stroke-linecap:round"
       d="m 1726.8762,2352.3513 a 1852.4472,1852.4472 0 0 1 -213.7299,-102.8304 l -50.4648,89.6916 a 1955.361,1955.361 0 0 0 225.605,108.5435 z" />
    <path
       inkscape:connector-curvature="0"
       id="path230"
       style="fill:#2ca25f;stroke:#000000;stroke-width:8.07166576;stroke-linecap:round"
       d="m 1513.1463,2249.5209 a 1852.4472,1852.4472 0 0 1 -198.8388,-129.296 l -61.5112,82.508 a 1955.361,1955.361 0 0 0 209.8852,136.4796 z" />
    <path
       inkscape:connector-curvature="0"
       id="path232"
       style="fill:#006d2c;stroke:#000000;stroke-width:8.07166576;stroke-linecap:round"
       d="m 1314.3075,2120.2249 a 1852.4472,1852.4472 0 0 1 -180.6879,-153.6433 l -71.5484,73.973 a 1955.361,1955.361 0 0 0 190.7251,162.1783 z" />
    <path
       inkscape:connector-curvature="0"
       id="path236"
       style="fill:#66c2a4;stroke-width:1.61433315;stroke-linecap:round"
       d="M 2421.4997,2923.8222 A 2288.753,2288.753 0 0 1 830.2861,2280.191 l -29.96676,30.9827 a 2331.8557,2331.8557 0 0 0 1621.18036,655.7517 z" />
    <path
       inkscape:connector-curvature="0"
       id="path240"
       style="fill:#000000;stroke-width:1.61433315;stroke-linecap:round"
       d="m 2421.4997,1157.8715 a 522.80177,522.80177 0 0 1 -363.4681,-147.0202 l -7.1549,7.3969 a 533.09315,533.09315 0 0 0 370.623,149.9128 z" />
    <path
       inkscape:connector-curvature="0"
       id="path244"
       style="fill:#000000;stroke-width:1.61433315;stroke-linecap:round"
       d="M 2421.4997,1789.7612 A 1154.6921,1154.6921 0 0 1 1618.7208,1465.045 l -7.155,7.397 a 1164.9835,1164.9835 0 0 0 809.9339,327.611 z" />
    <path
       inkscape:connector-curvature="0"
       id="path248"
       style="fill:#66c2a4;stroke-width:1.61433315;stroke-linecap:round"
       d="M 2421.4997,999.58803 A 364.52126,364.52126 0 0 1 2168.074,897.08081 l -28.6199,29.59005 a 405.68675,405.68675 0 0 0 282.0456,114.08444 z" />
    <path
       inkscape:connector-curvature="0"
       id="path252"
       style="fill:#000000;stroke-width:1.61433315;stroke-linecap:round"
       d="M 2421.4997,2345.4943 A 1710.4263,1710.4263 0 0 1 1232.3576,1864.499 l -7.155,7.397 a 1720.7177,1720.7177 0 0 0 1196.2971,483.8901 z" />
    <path
       inkscape:connector-curvature="0"
       id="path256"
       style="fill:#000000;stroke-width:1.61433315;stroke-linecap:round"
       d="m 2421.4997,1919.4317 a 1284.3634,1284.3634 0 0 1 -892.9305,-361.1804 l -7.1549,7.3969 a 1294.6548,1294.6548 0 0 0 900.0854,364.0753 z" />
    <path
       d="M 2421.4997,2693.343 A 2058.2747,2058.2747 0 0 1 990.52272,2114.5276 l -67.34089,69.6216 a 2155.1347,2155.1347 0 0 0 1498.31787,606.0551 z"
       style="fill:#66c2a4;stroke:#000000;stroke-width:8.07166576;stroke-linecap:round"
       id="path258"
       inkscape:connector-curvature="0" />
    <path
       d="m 2421.4997,2693.343 a 2058.2747,2058.2747 0 0 1 -262.9927,-16.8703 l -12.3762,96.0668 a 2155.1347,2155.1347 0 0 0 275.3689,17.6648 z"
       style="fill:#66c2a4;fill-opacity:0.67000002;stroke-width:1.61433315;stroke-linecap:round"
       id="path260"
       inkscape:connector-curvature="0" />
    <path
       d="m 2158.507,2676.4727 a 2058.2747,2058.2747 0 0 1 -258.6812,-50.3359 l -24.5492,93.6972 a 2155.1347,2155.1347 0 0 0 270.8542,52.7055 z"
       style="fill:#66c2a4;fill-opacity:0.67000002;stroke-width:1.61433315;stroke-linecap:round"
       id="path262"
       inkscape:connector-curvature="0" />
    <path
       d="m 1899.8258,2626.1368 a 2058.2747,2058.2747 0 0 1 -250.1302,-82.9772 l -36.3205,89.7932 a 2155.1347,2155.1347 0 0 0 261.9015,86.8812 z"
       style="fill:#66c2a4;fill-opacity:0.67000002;stroke-width:1.61433315;stroke-linecap:round"
       id="path264"
       inkscape:connector-curvature="0" />
    <path
       d="M 1649.6956,2543.1596 A 2058.2747,2058.2747 0 0 1 1412.219,2428.904 l -47.4958,84.4167 a 2155.1347,2155.1347 0 0 0 248.6519,119.6321 z"
       style="fill:#66c2a4;fill-opacity:0.67000002;stroke-width:1.61433315;stroke-linecap:round"
       id="path266"
       inkscape:connector-curvature="0" />
    <path
       d="m 1412.219,2428.904 a 2058.2747,2058.2747 0 0 1 -220.9328,-143.6619 l -57.8926,77.6543 a 2155.1347,2155.1347 0 0 0 231.3296,150.4243 z"
       style="fill:#66c2a4;fill-opacity:0.67000002;stroke-width:1.61433315;stroke-linecap:round"
       id="path268"
       inkscape:connector-curvature="0" />
    <path
       d="M 1191.2862,2285.2421 A 2058.2747,2058.2747 0 0 1 990.52272,2114.5276 l -67.34089,69.6216 a 2155.1347,2155.1347 0 0 0 210.21177,178.7472 z"
       style="fill:#66c2a4;fill-opacity:0.67000002;stroke-width:1.61433315;stroke-linecap:round"
       id="path270"
       inkscape:connector-curvature="0" />
    <path
       d="M 2421.4997,2693.343 A 2058.2747,2058.2747 0 0 1 990.52272,2114.5276 l -67.34089,69.6216 a 2155.1347,2155.1347 0 0 0 1498.31787,606.0551 z"
       style="fill:none;stroke:#000000;stroke-width:8.07166576;stroke-linecap:round"
       id="path272"
       inkscape:connector-curvature="0" />
    <path
       d="m 2421.4997,2240.5236 a 1605.4543,1605.4543 0 0 1 -205.1343,-13.1604 l -13.1502,102.0712 a 1708.368,1708.368 0 0 0 218.2845,14.0029 z"
       style="fill:#ffffcc;stroke-width:1.61433315;stroke-linecap:round"
       id="path582"
       inkscape:connector-curvature="0" />
    <path
       d="m 2216.3654,2227.3632 a 1605.4543,1605.4543 0 0 1 -201.7715,-39.2621 l -26.0845,99.5542 a 1708.368,1708.368 0 0 0 214.7058,41.7791 z"
       style="fill:#ffffcc;stroke-width:1.61433315;stroke-linecap:round"
       id="path584"
       inkscape:connector-curvature="0" />
    <path
       d="M 2014.5939,2188.1011 A 1605.4543,1605.4543 0 0 1 1819.4923,2123.38 l -38.5897,95.4048 a 1708.368,1708.368 0 0 0 207.6068,68.8705 z"
       style="fill:#ffffcc;stroke-width:1.61433315;stroke-linecap:round"
       id="path586"
       inkscape:connector-curvature="0" />
    <path
       d="m 1819.4923,2123.38 a 1605.4543,1605.4543 0 0 1 -185.2322,-89.1196 l -50.4636,89.6926 a 1708.368,1708.368 0 0 0 197.1061,94.8318 z"
       style="fill:#ffffcc;stroke-width:1.61433315;stroke-linecap:round"
       id="path588"
       inkscape:connector-curvature="0" />
    <path
       d="m 1634.2601,2034.2604 a 1605.4543,1605.4543 0 0 1 -172.3263,-112.0571 l -61.5112,82.5081 a 1708.368,1708.368 0 0 0 183.3739,119.2416 z"
       style="fill:#ffffcc;stroke-width:1.61433315;stroke-linecap:round"
       id="path590"
       inkscape:connector-curvature="0" />
    <path
       d="m 1461.9338,1922.2033 a 1605.4543,1605.4543 0 0 1 -156.5963,-133.1567 l -71.5495,73.9719 a 1708.368,1708.368 0 0 0 166.6346,141.6929 z"
       style="fill:#ffffcc;stroke-width:1.61433315;stroke-linecap:round"
       id="path592"
       inkscape:connector-curvature="0" />
    <path
       d="m 2421.4997,2137.61 a 1502.5405,1502.5405 0 0 1 -191.9853,-12.3169 l -13.149,102.0701 a 1605.4543,1605.4543 0 0 0 205.1343,13.1604 z"
       style="fill:#ffffcc;stroke-width:1.61433315;stroke-linecap:round"
       id="path688"
       inkscape:connector-curvature="0" />
    <path
       d="m 2229.5144,2125.2931 a 1502.5405,1502.5405 0 0 1 -188.8371,-36.745 l -26.0834,99.553 a 1605.4543,1605.4543 0 0 0 201.7715,39.2621 z"
       style="fill:#ffffcc;stroke-width:1.61433315;stroke-linecap:round"
       id="path690"
       inkscape:connector-curvature="0" />
    <path
       d="m 2040.6773,2088.5481 a 1502.5405,1502.5405 0 0 1 -182.5953,-60.5729 l -38.5897,95.4048 a 1605.4543,1605.4543 0 0 0 195.1016,64.7211 z"
       style="fill:#ffffcc;stroke-width:1.61433315;stroke-linecap:round"
       id="path692"
       inkscape:connector-curvature="0" />
    <path
       d="m 1858.082,2027.9752 a 1502.5405,1502.5405 0 0 1 -173.3571,-83.4064 l -50.4648,89.6916 a 1605.4543,1605.4543 0 0 0 185.2322,89.1196 z"
       style="fill:#ffffcc;stroke-width:1.61433315;stroke-linecap:round"
       id="path694"
       inkscape:connector-curvature="0" />
    <path
       d="m 1684.7249,1944.5688 a 1502.5405,1502.5405 0 0 1 -161.281,-104.8747 l -61.5101,82.5092 a 1605.4543,1605.4543 0 0 0 172.3263,112.0571 z"
       style="fill:#ffffcc;stroke-width:1.61433315;stroke-linecap:round"
       id="path696"
       inkscape:connector-curvature="0" />
    <path
       d="m 1523.4439,1839.6941 a 1502.5405,1502.5405 0 0 1 -146.558,-124.6205 l -71.5484,73.973 a 1605.4543,1605.4543 0 0 0 156.5963,133.1567 z"
       style="fill:#ffffcc;stroke-width:1.61433315;stroke-linecap:round"
       id="path698"
       inkscape:connector-curvature="0" />
    <path
       d="m 2421.4997,2034.6964 a 1399.6268,1399.6268 0 0 1 -178.8352,-11.4721 l -13.1501,102.0688 a 1502.5405,1502.5405 0 0 0 191.9853,12.3169 z"
       style="fill:#ffffcc;stroke-width:1.61433315;stroke-linecap:round"
       id="path794"
       inkscape:connector-curvature="0" />
    <path
       d="m 2242.6645,2023.2243 a 1399.6268,1399.6268 0 0 1 -175.9038,-34.2292 l -26.0834,99.553 a 1502.5405,1502.5405 0 0 0 188.8371,36.745 z"
       style="fill:#ffffcc;stroke-width:1.61433315;stroke-linecap:round"
       id="path796"
       inkscape:connector-curvature="0" />
    <path
       d="m 2066.7607,1988.9951 a 1399.6268,1399.6268 0 0 1 -170.0878,-56.4236 l -38.5909,95.4037 a 1502.5405,1502.5405 0 0 0 182.5953,60.5729 z"
       style="fill:#fed976;stroke-width:1.61433315;stroke-linecap:round"
       id="path798"
       inkscape:connector-curvature="0" />
    <path
       d="m 1896.6729,1932.5715 a 1399.6268,1399.6268 0 0 1 -161.4843,-77.6954 l -50.4637,89.6927 a 1502.5405,1502.5405 0 0 0 173.3571,83.4064 z"
       style="fill:#ffffcc;stroke-width:1.61433315;stroke-linecap:round"
       id="path800"
       inkscape:connector-curvature="0" />
    <path
       d="m 1735.1886,1854.8761 a 1399.6268,1399.6268 0 0 1 -150.2335,-97.6901 l -61.5112,82.5081 a 1502.5405,1502.5405 0 0 0 161.281,104.8747 z"
       style="fill:#ffffcc;stroke-width:1.61433315;stroke-linecap:round"
       id="path802"
       inkscape:connector-curvature="0" />
    <path
       d="m 1584.9551,1757.186 a 1399.6268,1399.6268 0 0 1 -136.5207,-116.0854 l -71.5485,73.973 a 1502.5405,1502.5405 0 0 0 146.558,124.6205 z"
       style="fill:#ffffcc;stroke-width:1.61433315;stroke-linecap:round"
       id="path804"
       inkscape:connector-curvature="0" />
    <path
       d="m 2421.4997,1931.7828 a 1296.7131,1296.7131 0 0 1 -165.6851,-10.6297 l -13.1501,102.0712 a 1399.6268,1399.6268 0 0 0 178.8352,11.4721 z"
       style="fill:#b10026;stroke-width:1.61433315;stroke-linecap:round"
       id="path900"
       inkscape:connector-curvature="0" />
    <path
       d="m 2255.8146,1921.1531 a 1296.7131,1296.7131 0 0 1 -162.9693,-31.7122 l -26.0846,99.5542 a 1399.6268,1399.6268 0 0 0 175.9038,34.2292 z"
       style="fill:#b10026;stroke-width:1.61433315;stroke-linecap:round"
       id="path902"
       inkscape:connector-curvature="0" />
    <path
       d="m 2092.8453,1889.4409 a 1296.7131,1296.7131 0 0 1 -157.5827,-52.2741 l -38.5897,95.4047 a 1399.6268,1399.6268 0 0 0 170.0878,56.4236 z"
       style="fill:#fc4e2a;stroke-width:1.61433315;stroke-linecap:round"
       id="path904"
       inkscape:connector-curvature="0" />
    <path
       d="m 1935.2626,1837.1668 a 1296.7131,1296.7131 0 0 1 -149.6102,-71.9811 l -50.4638,89.6904 a 1399.6268,1399.6268 0 0 0 161.4843,77.6954 z"
       style="fill:#b10026;stroke-width:1.61433315;stroke-linecap:round"
       id="path906"
       inkscape:connector-curvature="0" />
    <path
       d="m 1785.6524,1765.1857 a 1296.7131,1296.7131 0 0 1 -139.1873,-90.5088 l -61.51,82.5091 a 1399.6268,1399.6268 0 0 0 150.2335,97.6901 z"
       style="fill:#b10026;stroke-width:1.61433315;stroke-linecap:round"
       id="path908"
       inkscape:connector-curvature="0" />
    <path
       d="m 1646.4651,1674.6769 a 1296.7131,1296.7131 0 0 1 -126.4823,-107.5493 l -71.5484,73.973 a 1399.6268,1399.6268 0 0 0 136.5207,116.0854 z"
       style="fill:#b10026;stroke-width:1.61433315;stroke-linecap:round"
       id="path910"
       inkscape:connector-curvature="0" />
    <path
       d="m 2421.4997,1170.2203 a 535.15142,535.15142 0 0 1 -68.3774,-4.3868 l -78.8906,612.3597 a 1152.5725,1152.5725 0 0 0 147.268,9.4471 z"
       style="fill:#feebe2;stroke-width:1.61433315;stroke-linecap:round"
       id="path1050"
       inkscape:connector-curvature="0" />
    <path
       d="m 2353.112,1165.8346 -78.8895,612.3608"
       style="fill:#feebe2;stroke-width:1.61433315;stroke-linecap:round"
       id="path1052"
       inkscape:connector-curvature="0" />
    <path
       d="m 2353.1223,1165.8335 a 535.15142,535.15142 0 0 1 -67.2587,-13.0873 l -156.4867,597.2609 a 1152.5725,1152.5725 0 0 0 144.8548,28.1861 z"
       style="fill:#feebe2;stroke-width:1.61433315;stroke-linecap:round"
       id="path1054"
       inkscape:connector-curvature="0" />
    <path
       d="m 2285.866,1152.7416 -156.4891,597.27"
       style="fill:#feebe2;stroke-width:1.61433315;stroke-linecap:round"
       id="path1056"
       inkscape:connector-curvature="0" />
    <path
       d="m 2285.8636,1152.7462 a 535.15142,535.15142 0 0 1 -65.0327,-21.5734 l -231.5179,572.3693 a 1152.5725,1152.5725 0 0 0 140.0639,46.465 z"
       style="fill:#feebe2;stroke-width:1.61433315;stroke-linecap:round"
       id="path1058"
       inkscape:connector-curvature="0" />
    <path
       d="m 2220.8344,1131.1785 -231.5203,572.3739"
       style="fill:#feebe2;stroke-width:1.61433315;stroke-linecap:round"
       id="path1060"
       inkscape:connector-curvature="0" />
    <path
       d="m 2220.8309,1131.1728 a 535.15142,535.15142 0 0 1 -61.744,-29.7066 l -302.7548,538.0968 a 1152.5725,1152.5725 0 0 0 132.9809,63.9791 z"
       style="fill:#feebe2;stroke-width:1.61433315;stroke-linecap:round"
       id="path1062"
       inkscape:connector-curvature="0" />
    <path
       d="m 2159.0903,1101.4651 -302.7616,538.0945"
       style="fill:#feebe2;stroke-width:1.61433315;stroke-linecap:round"
       id="path1064"
       inkscape:connector-curvature="0" />
    <path
       d="m 2159.0869,1101.4662 a 535.15142,535.15142 0 0 1 -57.4429,-37.3522 l -369.0272,495.0014 a 1152.5725,1152.5725 0 0 0 123.7153,80.4476 z"
       style="fill:#feebe2;stroke-width:1.61433315;stroke-linecap:round"
       id="path1066"
       inkscape:connector-curvature="0" />
    <path
       d="m 2101.6497,1064.115 -369.026,495.0026"
       style="fill:#feebe2;stroke-width:1.61433315;stroke-linecap:round"
       id="path1068"
       inkscape:connector-curvature="0" />
    <path
       d="m 2101.644,1064.114 a 535.15142,535.15142 0 0 1 -52.1988,-44.3864 l -429.2507,443.7935 a 1152.5725,1152.5725 0 0 0 112.4223,95.5943 z"
       style="fill:#feebe2;stroke-width:1.61433315;stroke-linecap:round"
       id="path1070"
       inkscape:connector-curvature="0" />
    <path
       d="m 1620.1968,1463.5166 429.2518,-443.7947"
       style="fill:none;stroke-width:1.61433315;stroke-linecap:round"
       id="path1072"
       inkscape:connector-curvature="0" />
    <path
       d="m 2421.4997,1170.2203 a 535.15142,535.15142 0 0 1 -68.3774,-4.3868 l -78.7091,610.9522 a 1151.1519,1151.1519 0 0 0 147.0865,9.4346 z"
       style="fill:#fcc5c0;stroke-width:1.61433315;stroke-linecap:round"
       id="path1260"
       inkscape:connector-curvature="0" />
    <path
       d="m 2353.112,1165.8346 -78.6954,610.9569"
       style="fill:#fcc5c0;stroke-width:1.61433315;stroke-linecap:round"
       id="path1262"
       inkscape:connector-curvature="0" />
    <path
       d="m 2353.1223,1165.8335 a 535.15142,535.15142 0 0 1 -67.2587,-13.0873 l -156.126,595.8866 a 1151.1519,1151.1519 0 0 0 144.6756,28.1529 z"
       style="fill:#fcc5c0;stroke-width:1.61433315;stroke-linecap:round"
       id="path1264"
       inkscape:connector-curvature="0" />
    <path
       d="m 2285.866,1152.7416 -156.1352,595.8888"
       style="fill:#fcc5c0;stroke-width:1.61433315;stroke-linecap:round"
       id="path1266"
       inkscape:connector-curvature="0" />
    <path
       d="m 2285.8636,1152.7462 a 535.15142,535.15142 0 0 1 -65.0327,-21.5734 l -230.9849,571.0531 a 1151.1519,1151.1519 0 0 0 139.8916,46.4069 z"
       style="fill:#fcc5c0;stroke-width:1.61433315;stroke-linecap:round"
       id="path1268"
       inkscape:connector-curvature="0" />
    <path
       d="m 2220.8344,1131.1785 -230.9952,571.0498"
       style="fill:#fcc5c0;stroke-width:1.61433315;stroke-linecap:round"
       id="path1270"
       inkscape:connector-curvature="0" />
    <path
       d="m 2220.8309,1131.1728 a 535.15142,535.15142 0 0 1 -61.744,-29.7066 l -302.0585,536.8594 a 1151.1519,1151.1519 0 0 0 132.8176,63.9003 z"
       style="fill:#fcc5c0;stroke-width:1.61433315;stroke-linecap:round"
       id="path1272"
       inkscape:connector-curvature="0" />
    <path
       d="m 2159.0903,1101.4651 -302.0538,536.8616"
       style="fill:#fcc5c0;stroke-width:1.61433315;stroke-linecap:round"
       id="path1274"
       inkscape:connector-curvature="0" />
    <path
       d="m 2159.0869,1101.4662 a 535.15142,535.15142 0 0 1 -57.4429,-37.3522 l -368.1779,493.8644 a 1151.1519,1151.1519 0 0 0 123.5623,80.3472 z"
       style="fill:#fcc5c0;stroke-width:1.61433315;stroke-linecap:round"
       id="path1276"
       inkscape:connector-curvature="0" />
    <path
       d="m 2101.6497,1064.115 -368.1813,493.8611"
       style="fill:#fcc5c0;stroke-width:1.61433315;stroke-linecap:round"
       id="path1278"
       inkscape:connector-curvature="0" />
    <path
       d="m 2101.644,1064.114 a 535.15142,535.15142 0 0 1 -52.1988,-44.3864 l -428.2621,442.773 a 1151.1519,1151.1519 0 0 0 112.283,95.4778 z"
       style="fill:#fcc5c0;stroke-width:1.61433315;stroke-linecap:round"
       id="path1280"
       inkscape:connector-curvature="0" />
    <path
       d="m 1621.1898,1462.5006 428.2588,-442.7787"
       style="fill:none;stroke-width:1.61433315;stroke-linecap:round"
       id="path1282"
       inkscape:connector-curvature="0" />
    <path
       d="m 2421.4997,1170.2203 a 535.15142,535.15142 0 0 1 -68.3774,-4.3868 l -74.8428,580.9432 a 1120.896,1120.896 0 0 0 143.2202,9.1868 z"
       style="fill:#fa9fb5;stroke-width:1.61433315;stroke-linecap:round"
       id="path1470"
       inkscape:connector-curvature="0" />
    <path
       d="m 2353.112,1165.8346 -74.8371,580.9352"
       style="fill:#fa9fb5;stroke-width:1.61433315;stroke-linecap:round"
       id="path1472"
       inkscape:connector-curvature="0" />
    <path
       d="m 2353.1223,1165.8335 a 535.15142,535.15142 0 0 1 -67.2587,-13.0873 l -148.4574,566.6183 a 1120.896,1120.896 0 0 0 140.8733,27.4122 z"
       style="fill:#fa9fb5;stroke-width:1.61433315;stroke-linecap:round"
       id="path1474"
       inkscape:connector-curvature="0" />
    <path
       d="m 2285.866,1152.7416 -148.4643,566.6206"
       style="fill:#fa9fb5;stroke-width:1.61433315;stroke-linecap:round"
       id="path1476"
       inkscape:connector-curvature="0" />
    <path
       d="m 2285.8636,1152.7462 a 535.15142,535.15142 0 0 1 -65.0327,-21.5734 l -219.6405,543.0041 a 1120.896,1120.896 0 0 0 136.2158,45.1876 z"
       style="fill:#fa9fb5;stroke-width:1.61433315;stroke-linecap:round"
       id="path1478"
       inkscape:connector-curvature="0" />
    <path
       d="m 2220.8344,1131.1785 -219.6372,543.0029"
       style="fill:#fa9fb5;stroke-width:1.61433315;stroke-linecap:round"
       id="path1480"
       inkscape:connector-curvature="0" />
    <path
       d="m 2220.8309,1131.1728 a 535.15142,535.15142 0 0 1 -61.744,-29.7066 l -287.2223,510.4895 a 1120.896,1120.896 0 0 0 129.3258,62.2212 z"
       style="fill:#fa9fb5;stroke-width:1.61433315;stroke-linecap:round"
       id="path1482"
       inkscape:connector-curvature="0" />
    <path
       d="m 2159.0903,1101.4651 -287.2257,510.4814"
       style="fill:#fa9fb5;stroke-width:1.61433315;stroke-linecap:round"
       id="path1484"
       inkscape:connector-curvature="0" />
    <path
       d="m 2159.0869,1101.4662 a 535.15142,535.15142 0 0 1 -57.4429,-37.3522 l -350.0941,469.6052 a 1120.896,1120.896 0 0 0 120.3147,78.2365 z"
       style="fill:#fa9fb5;stroke-width:1.61433315;stroke-linecap:round"
       id="path1486"
       inkscape:connector-curvature="0" />
    <path
       d="m 2101.6497,1064.115 -350.0998,469.6155"
       style="fill:#fa9fb5;stroke-width:1.61433315;stroke-linecap:round"
       id="path1488"
       inkscape:connector-curvature="0" />
    <path
       d="m 2101.644,1064.114 a 535.15142,535.15142 0 0 1 -52.1988,-44.3864 l -407.2276,421.0239 a 1120.896,1120.896 0 0 0 109.3323,92.9677 z"
       style="fill:#fa9fb5;stroke-width:1.61433315;stroke-linecap:round"
       id="path1490"
       inkscape:connector-curvature="0" />
    <path
       d="m 1642.2164,1440.7435 407.2322,-421.0216"
       style="fill:none;stroke-width:1.61433315;stroke-linecap:round"
       id="path1492"
       inkscape:connector-curvature="0" />
    <path
       d="m 2421.4997,1170.2203 a 535.15142,535.15142 0 0 1 -68.3774,-4.3868 l -74.1887,575.8601 a 1115.7705,1115.7705 0 0 0 142.5661,9.1445 z"
       style="fill:#f768a1;stroke-width:1.61433315;stroke-linecap:round"
       id="path1680"
       inkscape:connector-curvature="0" />
    <path
       d="m 2353.112,1165.8346 -74.175,575.8669"
       style="fill:#f768a1;stroke-width:1.61433315;stroke-linecap:round"
       id="path1682"
       inkscape:connector-curvature="0" />
    <path
       d="m 2353.1223,1165.8335 a 535.15142,535.15142 0 0 1 -67.2587,-13.0873 l -147.1583,561.6596 a 1115.7705,1115.7705 0 0 0 140.2283,27.2878 z"
       style="fill:#f768a1;stroke-width:1.61433315;stroke-linecap:round"
       id="path1684"
       inkscape:connector-curvature="0" />
    <path
       d="m 2285.866,1152.7416 -147.163,561.6666"
       style="fill:#f768a1;stroke-width:1.61433315;stroke-linecap:round"
       id="path1686"
       inkscape:connector-curvature="0" />
    <path
       d="m 2285.8636,1152.7462 a 535.15142,535.15142 0 0 1 -65.0327,-21.5734 l -217.7183,538.2531 a 1115.7705,1115.7705 0 0 0 135.5927,44.9799 z"
       style="fill:#f768a1;stroke-width:1.61433315;stroke-linecap:round"
       id="path1688"
       inkscape:connector-curvature="0" />
    <path
       d="M 2220.8344,1131.1785 2003.115,1669.4328"
       style="fill:#f768a1;stroke-width:1.61433315;stroke-linecap:round"
       id="path1690"
       inkscape:connector-curvature="0" />
    <path
       d="m 2220.8309,1131.1728 a 535.15142,535.15142 0 0 1 -61.744,-29.7066 l -284.7076,506.0228 a 1115.7705,1115.7705 0 0 0 128.7333,61.9369 z"
       style="fill:#f768a1;stroke-width:1.61433315;stroke-linecap:round"
       id="path1692"
       inkscape:connector-curvature="0" />
    <path
       d="m 2159.0903,1101.4651 -284.7144,506.0296"
       style="fill:#f768a1;stroke-width:1.61433315;stroke-linecap:round"
       id="path1694"
       inkscape:connector-curvature="0" />
    <path
       d="m 2159.0869,1101.4662 a 535.15142,535.15142 0 0 1 -57.4429,-37.3522 l -347.0315,465.4968 a 1115.7705,1115.7705 0 0 0 119.7668,77.8782 z"
       style="fill:#f768a1;stroke-width:1.61433315;stroke-linecap:round"
       id="path1696"
       inkscape:connector-curvature="0" />
    <path
       d="m 2101.6497,1064.115 -347.0292,465.4947"
       style="fill:#f768a1;stroke-width:1.61433315;stroke-linecap:round"
       id="path1698"
       inkscape:connector-curvature="0" />
    <path
       d="m 2101.644,1064.114 a 535.15142,535.15142 0 0 1 -52.1988,-44.3864 l -403.6638,417.3414 a 1115.7705,1115.7705 0 0 0 108.8311,92.5418 z"
       style="fill:#f768a1;stroke-width:1.61433315;stroke-linecap:round"
       id="path1700"
       inkscape:connector-curvature="0" />
    <path
       d="m 1645.7779,1437.0678 403.6707,-417.3459"
       style="fill:none;stroke-width:1.61433315;stroke-linecap:round"
       id="path1702"
       inkscape:connector-curvature="0" />
    <path
       d="m 2421.4997,1170.2203 a 535.15142,535.15142 0 0 1 -68.3774,-4.3868 l -72.9022,565.8776 a 1105.7052,1105.7052 0 0 0 141.2796,9.0635 z"
       style="fill:#c51b8a;stroke-width:1.61433315;stroke-linecap:round"
       id="path1890"
       inkscape:connector-curvature="0" />
    <path
       d="m 2353.112,1165.8346 -72.8851,565.8787"
       style="fill:#c51b8a;stroke-width:1.61433315;stroke-linecap:round"
       id="path1892"
       inkscape:connector-curvature="0" />
    <path
       d="m 2353.1223,1165.8335 a 535.15142,535.15142 0 0 1 -67.2587,-13.0873 l -144.607,551.9238 a 1105.7052,1105.7052 0 0 0 138.9635,27.0411 z"
       style="fill:#c51b8a;stroke-width:1.61433315;stroke-linecap:round"
       id="path1894"
       inkscape:connector-curvature="0" />
    <path
       d="M 2285.866,1152.7416 2141.2486,1704.671"
       style="fill:#c51b8a;stroke-width:1.61433315;stroke-linecap:round"
       id="path1896"
       inkscape:connector-curvature="0" />
    <path
       d="m 2285.8636,1152.7462 a 535.15142,535.15142 0 0 1 -65.0327,-21.5734 l -213.9444,528.9224 a 1105.7052,1105.7052 0 0 0 134.3701,44.5748 z"
       style="fill:#c51b8a;stroke-width:1.61433315;stroke-linecap:round"
       id="path1898"
       inkscape:connector-curvature="0" />
    <path
       d="m 2220.8344,1131.1785 -213.9525,528.9168"
       style="fill:#c51b8a;stroke-width:1.61433315;stroke-linecap:round"
       id="path1900"
       inkscape:connector-curvature="0" />
    <path
       d="m 2220.8309,1131.1728 a 535.15142,535.15142 0 0 1 -61.744,-29.7066 l -279.7728,497.2503 a 1105.7052,1105.7052 0 0 0 127.5724,61.3787 z"
       style="fill:#c51b8a;stroke-width:1.61433315;stroke-linecap:round"
       id="path1902"
       inkscape:connector-curvature="0" />
    <path
       d="m 2159.0903,1101.4651 -279.7717,497.2514"
       style="fill:#c51b8a;stroke-width:1.61433315;stroke-linecap:round"
       id="path1904"
       inkscape:connector-curvature="0" />
    <path
       d="m 2159.0869,1101.4662 a 535.15142,535.15142 0 0 1 -57.4429,-37.3522 l -341.0146,457.4275 a 1105.7052,1105.7052 0 0 0 118.6847,77.175 z"
       style="fill:#c51b8a;stroke-width:1.61433315;stroke-linecap:round"
       id="path1906"
       inkscape:connector-curvature="0" />
    <path
       d="m 2101.6497,1064.115 -341.0135,457.4243"
       style="fill:#c51b8a;stroke-width:1.61433315;stroke-linecap:round"
       id="path1908"
       inkscape:connector-curvature="0" />
    <path
       d="m 2101.644,1064.114 a 535.15142,535.15142 0 0 1 -52.1988,-44.3864 l -396.6664,410.1066 a 1105.7052,1105.7052 0 0 0 107.8506,91.7073 z"
       style="fill:#c51b8a;stroke-width:1.61433315;stroke-linecap:round"
       id="path1910"
       inkscape:connector-curvature="0" />
    <path
       d="m 1652.7868,1429.8307 396.6618,-410.1088"
       style="fill:none;stroke-width:1.61433315;stroke-linecap:round"
       id="path1912"
       inkscape:connector-curvature="0" />
    <path
       d="m 2421.4997,1170.2203 a 535.15142,535.15142 0 0 1 -68.3774,-4.3868 l -34.1082,264.7494 a 802.08947,802.08947 45 0 0 102.4856,6.574 z"
       style="fill:#7a0177;stroke-width:1.61433315;stroke-linecap:round"
       id="path2100"
       inkscape:connector-curvature="0" />
    <path
       d="m 2353.112,1165.8346 -34.0967,264.7495"
       style="fill:#7a0177;stroke-width:1.61433315;stroke-linecap:round"
       id="path2102"
       inkscape:connector-curvature="0" />
    <path
       d="m 2353.1223,1165.8335 a 535.15142,535.15142 0 0 1 -67.2587,-13.0873 l -67.6547,258.2223 a 802.08947,802.08947 45 0 0 100.8052,19.6144 z"
       style="fill:#7a0177;stroke-width:1.61433315;stroke-linecap:round"
       id="path2104"
       inkscape:connector-curvature="0" />
    <path
       d="m 2285.866,1152.7416 -67.6571,258.22"
       style="fill:#7a0177;stroke-width:1.61433315;stroke-linecap:round"
       id="path2106"
       inkscape:connector-curvature="0" />
    <path
       d="m 2285.8636,1152.7462 a 535.15142,535.15142 0 0 1 -65.0327,-21.5734 l -100.0964,247.4602 a 802.08947,802.08947 45 0 0 97.4744,32.3355 z"
       style="fill:#7a0177;stroke-width:1.61433315;stroke-linecap:round"
       id="path2108"
       inkscape:connector-curvature="0" />
    <path
       d="m 2220.8344,1131.1785 -100.0987,247.4443"
       style="fill:#7a0177;stroke-width:1.61433315;stroke-linecap:round"
       id="path2110"
       inkscape:connector-curvature="0" />
    <path
       d="m 2220.8309,1131.1728 a 535.15142,535.15142 0 0 1 -61.744,-29.7066 l -130.8931,232.6424 a 802.08947,802.08947 45 0 0 92.5407,44.5244 z"
       style="fill:#7a0177;stroke-width:1.61433315;stroke-linecap:round"
       id="path2112"
       inkscape:connector-curvature="0" />
    <path
       d="m 2159.0903,1101.4651 -130.8965,232.6503"
       style="fill:#7a0177;stroke-width:1.61433315;stroke-linecap:round"
       id="path2114"
       inkscape:connector-curvature="0" />
    <path
       d="m 2159.0869,1101.4662 a 535.15142,535.15142 0 0 1 -57.4429,-37.3522 l -159.5471,214.0106 a 802.08947,802.08947 45 0 0 86.0969,55.984 z"
       style="fill:#7a0177;stroke-width:1.61433315;stroke-linecap:round"
       id="path2116"
       inkscape:connector-curvature="0" />
    <path
       d="M 2101.6497,1064.115 1942.09,1278.1246"
       style="fill:#7a0177;stroke-width:1.61433315;stroke-linecap:round"
       id="path2118"
       inkscape:connector-curvature="0" />
    <path
       d="m 2101.644,1064.114 a 535.15142,535.15142 0 0 1 -52.1988,-44.3864 l -185.5837,191.8712 a 802.08947,802.08947 45 0 0 78.2354,66.5258 z"
       style="fill:#7a0177;stroke-width:1.61433315;stroke-linecap:round"
       id="path2120"
       inkscape:connector-curvature="0" />
  </g>
  <defs
     id="defs2220">
    <pattern
       id="hline-sparse"
       width="10"
       height="10"
       patternTransform="rotate(0 0 0)"
       patternUnits="userSpaceOnUse">
      <line
         x1="0"
         y1="0"
         x2="10"
         y2="0"
         style="stroke:black;stroke-width:2"
         id="line2223" />
    </pattern>
    <pattern
       id="checker"
       width="10"
       height="10"
       patternTransform="rotate(45 0 0)"
       patternUnits="userSpaceOnUse">
      <line
         x1="0"
         y1="0"
         x2="10"
         y2="0"
         style="stroke:black;stroke-width:5"
         id="line2226" />
      <line
         x1="0"
         y1="0"
         x2="0"
         y2="10"
         style="stroke:black;stroke-width:4"
         id="line2228" />
    </pattern>
    <pattern
       id="vline"
       width="10"
       height="10"
       patternTransform="rotate(0 0 0)"
       patternUnits="userSpaceOnUse">
      <line
         x1="0"
         y1="0"
         x2="0"
         y2="10"
         style="stroke:black;stroke-width:5"
         id="line2231" />
    </pattern>
    <pattern
       id="vline-sparse"
       width="10"
       height="10"
       patternTransform="rotate(0 0 0)"
       patternUnits="userSpaceOnUse">
      <line
         x1="0"
         y1="0"
         x2="0"
         y2="10"
         style="stroke:black;stroke-width:2"
         id="line2234" />
    </pattern>
    <pattern
       id="pattern2236"
       width="10"
       height="10"
       patternTransform="rotate(45 0 0)"
       patternUnits="userSpaceOnUse">
      <line
         x1="0"
         y1="0"
         x2="10"
         y2="0"
         style="stroke:black;stroke-width:2"
         id="line2238" />
      <line
         x1="0"
         y1="0"
         x2="0"
         y2="10"
         style="stroke:black;stroke-width:2"
         id="line2240" />
    </pattern>
    <pattern
       id="hline"
       width="10"
       height="10"
       patternTransform="rotate(0 0 0)"
       patternUnits="userSpaceOnUse">
      <line
         x1="0"
         y1="0"
         x2="10"
         y2="0"
         style="stroke:black;stroke-width:5"
         id="line2243" />
    </pattern>
  </defs>
</svg>
