<?xml version="1.0" encoding="UTF-8" standalone="no"?>
<svg
   xmlns:dc="http://purl.org/dc/elements/1.1/"
   xmlns:cc="http://creativecommons.org/ns#"
   xmlns:rdf="http://www.w3.org/1999/02/22-rdf-syntax-ns#"
   xmlns:svg="http://www.w3.org/2000/svg"
   xmlns="http://www.w3.org/2000/svg"
   xmlns:sodipodi="http://sodipodi.sourceforge.net/DTD/sodipodi-0.dtd"
   xmlns:inkscape="http://www.inkscape.org/namespaces/inkscape"
   width="3000px"
   height="3000px"
   version="1.1"
   id="svg2"
   inkscape:version="0.92.4 (5da689c313, 2019-01-14)"
   sodipodi:docname="Final-Wedge-06.svg">
  <metadata
     id="metadata2247">
    <rdf:RDF>
      <cc:Work
         rdf:about="">
        <dc:format>image/svg+xml</dc:format>
        <dc:type
           rdf:resource="http://purl.org/dc/dcmitype/StillImage" />
        <dc:title></dc:title>
      </cc:Work>
    </rdf:RDF>
  </metadata>
  <sodipodi:namedview
     pagecolor="#ffffff"
     bordercolor="#666666"
     borderopacity="1"
     objecttolerance="10"
     gridtolerance="10"
     guidetolerance="10"
     inkscape:pageopacity="0"
     inkscape:pageshadow="2"
     inkscape:window-width="1920"
     inkscape:window-height="1000"
     id="namedview2245"
     showgrid="false"
     inkscape:zoom="0.11125147"
     inkscape:cx="1222.0751"
     inkscape:cy="1477.0097"
     inkscape:window-x="0"
     inkscape:window-y="52"
     inkscape:window-maximized="1"
     inkscape:current-layer="svg2" />
  <g
     id="g3955"
     transform="rotate(-45,2664.4617,84.515626)">
    <path
       inkscape:connector-curvature="0"
       id="path342"
       style="fill:#ffffb2;stroke:#000000;stroke-width:8.07166576;stroke-linecap:round"
       d="m 409.57059,578.50045 a 1955.361,1955.361 0 0 1 16.02676,-249.8437 l -198.1369,-25.5252 a 2155.1347,2155.1347 0 0 0 -17.66479,275.36889 z" />
    <path
       inkscape:connector-curvature="0"
       id="path344"
       style="fill:#fed976;stroke:#000000;stroke-width:8.07166576;stroke-linecap:round"
       d="M 425.59735,328.65675 A 1955.361,1955.361 0 0 1 473.41613,82.909975 L 280.16602,32.277361 A 2155.1347,2155.1347 0 0 0 227.46045,303.13155 Z" />
    <path
       inkscape:connector-curvature="0"
       id="path346"
       style="fill:#feb24c;stroke:#000000;stroke-width:8.07166576;stroke-linecap:round"
       d="M 473.41613,82.909975 A 1955.361,1955.361 0 0 1 552.24395,-154.71272 L 367.04724,-229.62411 A 2155.1347,2155.1347 0 0 0 280.16602,32.277361 Z" />
    <path
       inkscape:connector-curvature="0"
       id="path348"
       style="fill:#fd8d3c;stroke:#000000;stroke-width:8.07166576;stroke-linecap:round"
       d="M 552.24395,-154.71272 A 1955.361,1955.361 0 0 1 660.7875,-380.31771 l -174.10819,-97.95831 a 2155.1347,2155.1347 0 0 0 -119.63207,248.65191 z" />
    <path
       inkscape:connector-curvature="0"
       id="path350"
       style="fill:#f03b20;stroke:#000000;stroke-width:8.07166576;stroke-linecap:round"
       d="M 660.7875,-380.31771 A 1955.361,1955.361 0 0 1 797.26707,-590.20295 L 637.10353,-709.60561 a 2155.1347,2155.1347 0 0 0 -150.42422,231.32959 z" />
    <path
       inkscape:connector-curvature="0"
       id="path352"
       style="fill:#bd0026;stroke:#000000;stroke-width:8.07166576;stroke-linecap:round"
       d="M 797.26707,-590.20295 A 1955.361,1955.361 0 0 1 959.44538,-780.92804 L 815.85079,-919.81734 A 2155.1347,2155.1347 0 0 0 637.10353,-709.60561 Z" />
    <path
       inkscape:connector-curvature="0"
       id="path356"
       style="fill:#ffffb2;stroke:#000000;stroke-width:8.07166576;stroke-linecap:round"
       d="M 512.48419,578.50045 A 1852.4472,1852.4472 0 0 1 527.66848,341.80694 L 425.59735,328.65675 a 1955.361,1955.361 0 0 0 -16.02676,249.8437 z" />
    <path
       inkscape:connector-curvature="0"
       id="path358"
       style="fill:#fed976;stroke:#000000;stroke-width:8.07166576;stroke-linecap:round"
       d="M 527.66848,341.80694 A 1852.4472,1852.4472 0 0 1 572.97032,108.99449 L 473.41613,82.909975 A 1955.361,1955.361 0 0 0 425.59735,328.65675 Z" />
    <path
       inkscape:connector-curvature="0"
       id="path360"
       style="fill:#feb24c;stroke:#000000;stroke-width:8.07166576;stroke-linecap:round"
       d="m 572.97032,108.99449 a 1852.4472,1852.4472 0 0 1 74.67841,-225.11747 l -95.40478,-38.58974 A 1955.361,1955.361 0 0 0 473.41613,82.909975 Z" />
    <path
       inkscape:connector-curvature="0"
       id="path362"
       style="fill:#fd8d3c;stroke:#000000;stroke-width:8.07166576;stroke-linecap:round"
       d="M 647.64873,-116.12298 A 1852.4472,1852.4472 0 0 1 750.47907,-329.85289 L 660.7875,-380.31771 A 1955.361,1955.361 0 0 0 552.24395,-154.71272 Z" />
    <path
       inkscape:connector-curvature="0"
       id="path364"
       style="fill:#f03b20;stroke:#000000;stroke-width:8.07166576;stroke-linecap:round"
       d="m 750.47907,-329.85289 a 1852.4472,1852.4472 0 0 1 129.29605,-198.83887 l -82.50805,-61.51119 A 1955.361,1955.361 0 0 0 660.7875,-380.31771 Z" />
    <path
       inkscape:connector-curvature="0"
       id="path366"
       style="fill:#bd0026;stroke:#000000;stroke-width:8.07166576;stroke-linecap:round"
       d="m 879.77512,-528.69176 a 1852.4472,1852.4472 0 0 1 153.64328,-180.68783 l -73.97302,-71.54845 a 1955.361,1955.361 0 0 0 -162.17831,190.72509 z" />
    <path
       inkscape:connector-curvature="0"
       id="path370"
       style="fill:#fd8d3c;stroke-width:1.61433315;stroke-linecap:round"
       d="M 76.177807,578.50045 A 2288.753,2288.753 0 0 1 719.80905,-1012.7131 l -30.98275,-29.9668 A 2331.8557,2331.8557 0 0 0 33.07455,578.50044 Z" />
    <path
       inkscape:connector-curvature="0"
       id="path374"
       style="fill:#000000;stroke-width:1.61433315;stroke-linecap:round"
       d="M 1842.1285,578.50044 A 522.80177,522.80177 0 0 1 1989.1487,215.0324 l -7.3969,-7.15491 A 533.09315,533.09315 0 0 0 1831.839,578.50044 Z" />
    <path
       inkscape:connector-curvature="0"
       id="path378"
       style="fill:#000000;stroke-width:1.61433315;stroke-linecap:round"
       d="m 1210.2388,578.50045 a 1154.6921,1154.6921 0 0 1 324.7162,-802.77882 l -7.397,-7.15499 a 1164.9835,1164.9835 0 0 0 -327.611,809.93381 z" />
    <path
       inkscape:connector-curvature="0"
       id="path382"
       style="fill:#fd8d3c;stroke-width:1.61433315;stroke-linecap:round"
       d="m 2000.412,578.50042 a 364.52126,364.52126 0 0 1 102.5073,-253.42565 l -29.5902,-28.61988 a 405.68675,405.68675 0 0 0 -114.0844,282.04557 z" />
    <path
       inkscape:connector-curvature="0"
       id="path386"
       style="fill:#000000;stroke-width:1.61433315;stroke-linecap:round"
       d="M 654.50574,578.50045 A 1710.4263,1710.4263 0 0 1 1135.501,-610.64161 l -7.397,-7.15496 A 1720.7177,1720.7177 0 0 0 644.21394,578.50045 Z" />
    <path
       inkscape:connector-curvature="0"
       id="path390"
       style="fill:#000000;stroke-width:1.61433315;stroke-linecap:round"
       d="m 1080.5683,578.50045 a 1284.3634,1284.3634 0 0 1 361.1804,-892.93043 l -7.3969,-7.15491 a 1294.6548,1294.6548 0 0 0 -364.0753,900.08534 z" />
    <path
       d="M 306.65699,578.50044 A 2058.2747,2058.2747 0 0 1 885.47237,-852.47649 l -69.62158,-67.34085 A 2155.1347,2155.1347 0 0 0 209.79566,578.50044 Z"
       style="fill:#fd8d3c;stroke:#000000;stroke-width:8.07166576;stroke-linecap:round"
       id="path392"
       inkscape:connector-curvature="0" />
    <path
       d="m 306.65699,578.50044 a 2058.2747,2058.2747 0 0 1 16.8703,-262.99267 l -96.06684,-12.37622 a 2155.1347,2155.1347 0 0 0 -17.66479,275.36889 z"
       style="fill:#fd8d3c;fill-opacity:0.67000002;stroke-width:1.61433315;stroke-linecap:round"
       id="path394"
       inkscape:connector-curvature="0" />
    <path
       d="M 323.52729,315.50777 A 2058.2747,2058.2747 0 0 1 373.86316,56.826532 L 280.16602,32.277361 A 2155.1347,2155.1347 0 0 0 227.46045,303.13155 Z"
       style="fill:#fd8d3c;fill-opacity:0.67000002;stroke-width:1.61433315;stroke-linecap:round"
       id="path396"
       inkscape:connector-curvature="0" />
    <path
       d="m 373.86316,56.826532 a 2058.2747,2058.2747 0 0 1 82.97721,-250.130192 l -89.79313,-36.32045 A 2155.1347,2155.1347 0 0 0 280.16602,32.277361 Z"
       style="fill:#fd8d3c;fill-opacity:0.67000002;stroke-width:1.61433315;stroke-linecap:round"
       id="path398"
       inkscape:connector-curvature="0" />
    <path
       d="m 456.84037,-193.30366 a 2058.2747,2058.2747 0 0 1 114.25558,-237.47659 l -84.41664,-47.49577 a 2155.1347,2155.1347 0 0 0 -119.63207,248.65191 z"
       style="fill:#fd8d3c;fill-opacity:0.67000002;stroke-width:1.61433315;stroke-linecap:round"
       id="path400"
       inkscape:connector-curvature="0" />
    <path
       d="M 571.09595,-430.78025 A 2058.2747,2058.2747 0 0 1 714.75789,-651.713 l -77.65436,-57.89261 a 2155.1347,2155.1347 0 0 0 -150.42422,231.32959 z"
       style="fill:#fd8d3c;fill-opacity:0.67000002;stroke-width:1.61433315;stroke-linecap:round"
       id="path402"
       inkscape:connector-curvature="0" />
    <path
       d="m 714.75789,-651.713 a 2058.2747,2058.2747 0 0 1 170.71448,-200.76349 l -69.62158,-67.34085 a 2155.1347,2155.1347 0 0 0 -178.74726,210.21173 z"
       style="fill:#fd8d3c;fill-opacity:0.67000002;stroke-width:1.61433315;stroke-linecap:round"
       id="path404"
       inkscape:connector-curvature="0" />
    <path
       d="M 306.65699,578.50044 A 2058.2747,2058.2747 0 0 1 885.47237,-852.47649 l -69.62158,-67.34085 A 2155.1347,2155.1347 0 0 0 209.79566,578.50044 Z"
       style="fill:none;stroke:#000000;stroke-width:8.07166576;stroke-linecap:round"
       id="path406"
       inkscape:connector-curvature="0" />
    <path
       d="M 759.47644,578.50045 A 1605.4543,1605.4543 0 0 1 772.63676,373.36616 L 670.56562,360.21595 a 1708.368,1708.368 0 0 0 -14.00291,218.2845 z"
       style="fill:#ffffcc;stroke-width:1.61433315;stroke-linecap:round"
       id="path606"
       inkscape:connector-curvature="0" />
    <path
       d="m 772.63676,373.36616 a 1605.4543,1605.4543 0 0 1 39.26218,-201.77144 l -99.55422,-26.08455 a 1708.368,1708.368 0 0 0 -41.7791,214.70578 z"
       style="fill:#ffffcc;stroke-width:1.61433315;stroke-linecap:round"
       id="path608"
       inkscape:connector-curvature="0" />
    <path
       d="M 811.89894,171.59472 A 1605.4543,1605.4543 0 0 1 876.62,-23.506922 l -95.40478,-38.589745 a 1708.368,1708.368 0 0 0 -68.8705,207.606837 z"
       style="fill:#ffeda0;stroke-width:1.61433315;stroke-linecap:round"
       id="path610"
       inkscape:connector-curvature="0" />
    <path
       d="m 876.62,-23.506922 a 1605.4543,1605.4543 0 0 1 89.11963,-185.232148 l -89.69269,-50.46368 a 1708.368,1708.368 0 0 0 -94.83172,197.106083 z"
       style="fill:#ffeda0;stroke-width:1.61433315;stroke-linecap:round"
       id="path612"
       inkscape:connector-curvature="0" />
    <path
       d="m 965.73963,-208.73907 a 1605.4543,1605.4543 0 0 1 112.05707,-172.3263 l -82.50804,-61.51119 a 1708.368,1708.368 0 0 0 -119.24172,183.37381 z"
       style="fill:#ffeda0;stroke-width:1.61433315;stroke-linecap:round"
       id="path614"
       inkscape:connector-curvature="0" />
    <path
       d="m 1077.7967,-381.06537 a 1605.4543,1605.4543 0 0 1 133.1567,-156.59635 l -73.9719,-71.54959 a 1708.368,1708.368 0 0 0 -141.69284,166.63475 z"
       style="fill:#ffeda0;stroke-width:1.61433315;stroke-linecap:round"
       id="path616"
       inkscape:connector-curvature="0" />
    <path
       d="m 862.39004,578.50045 a 1502.5405,1502.5405 0 0 1 12.31681,-191.98529 l -102.07009,-13.149 a 1605.4543,1605.4543 0 0 0 -13.16032,205.13429 z"
       style="fill:#ffeda0;stroke-width:1.61433315;stroke-linecap:round"
       id="path712"
       inkscape:connector-curvature="0" />
    <path
       d="m 874.70685,386.51516 a 1502.5405,1502.5405 0 0 1 36.74501,-188.83704 l -99.55292,-26.0834 a 1605.4543,1605.4543 0 0 0 -39.26218,201.77144 z"
       style="fill:#ffeda0;stroke-width:1.61433315;stroke-linecap:round"
       id="path714"
       inkscape:connector-curvature="0" />
    <path
       d="M 911.45186,197.67812 A 1502.5405,1502.5405 0 0 1 972.02475,15.082787 L 876.62,-23.506922 A 1605.4543,1605.4543 0 0 0 811.89894,171.59472 Z"
       style="fill:#ffffcc;stroke-width:1.61433315;stroke-linecap:round"
       id="path716"
       inkscape:connector-curvature="0" />
    <path
       d="m 972.02475,15.082787 a 1502.5405,1502.5405 0 0 1 83.40645,-173.357037 l -89.69157,-50.46482 A 1605.4543,1605.4543 0 0 0 876.62,-23.506922 Z"
       style="fill:#ffffcc;stroke-width:1.61433315;stroke-linecap:round"
       id="path718"
       inkscape:connector-curvature="0" />
    <path
       d="m 1055.4312,-158.27425 a 1502.5405,1502.5405 0 0 1 104.8747,-161.28108 l -82.5092,-61.51004 a 1605.4543,1605.4543 0 0 0 -112.05707,172.3263 z"
       style="fill:#ffeda0;stroke-width:1.61433315;stroke-linecap:round"
       id="path720"
       inkscape:connector-curvature="0" />
    <path
       d="m 1160.3059,-319.55533 a 1502.5405,1502.5405 0 0 1 124.6205,-146.55794 l -73.973,-71.54845 a 1605.4543,1605.4543 0 0 0 -133.1567,156.59635 z"
       style="fill:#ffffcc;stroke-width:1.61433315;stroke-linecap:round"
       id="path722"
       inkscape:connector-curvature="0" />
    <path
       d="M 965.30363,578.50045 A 1399.6268,1399.6268 0 0 1 976.77566,399.6653 L 874.70685,386.51516 a 1502.5405,1502.5405 0 0 0 -12.31681,191.98529 z"
       style="fill:#fc4e2a;stroke-width:1.61433315;stroke-linecap:round"
       id="path818"
       inkscape:connector-curvature="0" />
    <path
       d="m 976.77566,399.6653 a 1399.6268,1399.6268 0 0 1 34.22924,-175.90378 l -99.55304,-26.0834 a 1502.5405,1502.5405 0 0 0 -36.74501,188.83704 z"
       style="fill:#fc4e2a;stroke-width:1.61433315;stroke-linecap:round"
       id="path820"
       inkscape:connector-curvature="0" />
    <path
       d="M 1011.0049,223.76152 A 1399.6268,1399.6268 0 0 1 1067.4284,53.673705 L 972.02475,15.082787 A 1502.5405,1502.5405 0 0 0 911.45186,197.67812 Z"
       style="fill:#fd8d3c;stroke-width:1.61433315;stroke-linecap:round"
       id="path822"
       inkscape:connector-curvature="0" />
    <path
       d="m 1067.4284,53.673705 a 1399.6268,1399.6268 0 0 1 77.6954,-161.484295 l -89.6926,-50.46366 A 1502.5405,1502.5405 0 0 0 972.02475,15.082787 Z"
       style="fill:#fc4e2a;stroke-width:1.61433315;stroke-linecap:round"
       id="path824"
       inkscape:connector-curvature="0" />
    <path
       d="m 1145.1238,-107.81059 a 1399.6268,1399.6268 0 0 1 97.6902,-150.23353 l -82.5081,-61.51121 a 1502.5405,1502.5405 0 0 0 -104.8747,161.28108 z"
       style="fill:#fd8d3c;stroke-width:1.61433315;stroke-linecap:round"
       id="path826"
       inkscape:connector-curvature="0" />
    <path
       d="m 1242.814,-258.04412 a 1399.6268,1399.6268 0 0 1 116.0854,-136.52068 l -73.973,-71.54847 a 1502.5405,1502.5405 0 0 0 -124.6205,146.55794 z"
       style="fill:#fc4e2a;stroke-width:1.61433315;stroke-linecap:round"
       id="path828"
       inkscape:connector-curvature="0" />
    <path
       d="m 1068.2172,578.50045 a 1296.7131,1296.7131 0 0 1 10.6297,-165.68502 L 976.77566,399.6653 a 1399.6268,1399.6268 0 0 0 -11.47203,178.83515 z"
       style="fill:#ffffcc;stroke-width:1.61433315;stroke-linecap:round"
       id="path924"
       inkscape:connector-curvature="0" />
    <path
       d="m 1078.8469,412.81543 a 1296.7131,1296.7131 0 0 1 31.7122,-162.96937 l -99.5542,-26.08454 A 1399.6268,1399.6268 0 0 0 976.77566,399.6653 Z"
       style="fill:#ffffcc;stroke-width:1.61433315;stroke-linecap:round"
       id="path926"
       inkscape:connector-curvature="0" />
    <path
       d="M 1110.5591,249.84606 A 1296.7131,1296.7131 0 0 1 1162.8332,92.263421 L 1067.4284,53.673705 A 1399.6268,1399.6268 0 0 0 1011.0049,223.76152 Z"
       style="fill:#ffffcc;stroke-width:1.61433315;stroke-linecap:round"
       id="path928"
       inkscape:connector-curvature="0" />
    <path
       d="m 1162.8332,92.263421 a 1296.7131,1296.7131 0 0 1 71.9811,-149.610254 l -89.6905,-50.463757 a 1399.6268,1399.6268 0 0 0 -77.6954,161.484295 z"
       style="fill:#ffffcc;stroke-width:1.61433315;stroke-linecap:round"
       id="path930"
       inkscape:connector-curvature="0" />
    <path
       d="m 1234.8143,-57.346833 a 1296.7131,1296.7131 0 0 1 90.5088,-139.187297 l -82.5091,-61.50999 a 1399.6268,1399.6268 0 0 0 -97.6902,150.23353 z"
       style="fill:#ffffcc;stroke-width:1.61433315;stroke-linecap:round"
       id="path932"
       inkscape:connector-curvature="0" />
    <path
       d="m 1325.3231,-196.53413 a 1296.7131,1296.7131 0 0 1 107.5493,-126.48223 l -73.973,-71.54844 a 1399.6268,1399.6268 0 0 0 -116.0854,136.52068 z"
       style="fill:#ffffcc;stroke-width:1.61433315;stroke-linecap:round"
       id="path934"
       inkscape:connector-curvature="0" />
    <path
       d="m 1829.7797,578.50046 a 535.15142,535.15142 0 0 1 4.3868,-68.37738 l -612.4202,-78.89862 a 1152.6338,1152.6338 0 0 0 -9.4483,147.27599 z"
       style="fill:#feebe2;stroke-width:1.61433315;stroke-linecap:round"
       id="path1098"
       inkscape:connector-curvature="0" />
    <path
       d="M 1834.1654,510.11285 1221.736,431.2234"
       style="fill:#feebe2;stroke-width:1.61433315;stroke-linecap:round"
       id="path1100"
       inkscape:connector-curvature="0" />
    <path
       d="m 1834.1665,510.12308 a 535.15142,535.15142 0 0 1 13.0873,-67.25867 L 1249.9324,286.36282 a 1152.6338,1152.6338 0 0 0 -28.1861,144.86164 z"
       style="fill:#feebe2;stroke-width:1.61433315;stroke-linecap:round"
       id="path1102"
       inkscape:connector-curvature="0" />
    <path
       d="M 1847.2584,442.86673 1249.9312,286.36621"
       style="fill:#feebe2;stroke-width:1.61433315;stroke-linecap:round"
       id="path1104"
       inkscape:connector-curvature="0" />
    <path
       d="m 1847.2538,442.86441 a 535.15142,535.15142 0 0 1 21.5734,-65.0327 L 1296.3997,146.28984 a 1152.6338,1152.6338 0 0 0 -46.4673,140.07298 z"
       style="fill:#feebe2;stroke-width:1.61433315;stroke-linecap:round"
       id="path1106"
       inkscape:connector-curvature="0" />
    <path
       d="M 1868.8215,377.83514 1296.4019,146.29211"
       style="fill:#feebe2;stroke-width:1.61433315;stroke-linecap:round"
       id="path1108"
       inkscape:connector-curvature="0" />
    <path
       d="m 1868.8272,377.83171 a 535.15142,535.15142 0 0 1 29.7066,-61.74403 L 1360.3833,13.302044 a 1152.6338,1152.6338 0 0 0 -63.9836,132.987796 z"
       style="fill:#feebe2;stroke-width:1.61433315;stroke-linecap:round"
       id="path1110"
       inkscape:connector-curvature="0" />
    <path
       d="M 1898.5349,316.09108 1360.3833,13.295228"
       style="fill:#feebe2;stroke-width:1.61433315;stroke-linecap:round"
       id="path1112"
       inkscape:connector-curvature="0" />
    <path
       d="m 1898.5338,316.08768 a 535.15142,535.15142 0 0 1 37.3523,-57.44291 l -495.0517,-369.06366 a 1152.6338,1152.6338 0 0 0 -80.4511,123.720934 z"
       style="fill:#feebe2;stroke-width:1.61433315;stroke-linecap:round"
       id="path1114"
       inkscape:connector-curvature="0" />
    <path
       d="m 1935.885,258.65053 -495.0483,-369.0717"
       style="fill:#feebe2;stroke-width:1.61433315;stroke-linecap:round"
       id="path1116"
       inkscape:connector-curvature="0" />
    <path
       d="m 1935.8861,258.64477 a 535.15142,535.15142 0 0 1 44.3863,-52.19875 l -443.8381,-429.293 a 1152.6338,1152.6338 0 0 0 -95.5999,112.42809 z"
       style="fill:#feebe2;stroke-width:1.61433315;stroke-linecap:round"
       id="path1118"
       inkscape:connector-curvature="0" />
    <path
       d="m 1536.4378,-222.84813 443.8403,429.29754"
       style="fill:none;stroke-width:1.61433315;stroke-linecap:round"
       id="path1120"
       inkscape:connector-curvature="0" />
    <path
       d="m 1829.7797,578.50046 a 535.15142,535.15142 0 0 1 4.3868,-68.37738 l -576.7172,-74.29945 a 1116.6342,1116.6342 0 0 0 -9.1528,142.67682 z"
       style="fill:#fcc5c0;stroke-width:1.61433315;stroke-linecap:round"
       id="path1308"
       inkscape:connector-curvature="0" />
    <path
       d="M 1834.1654,510.11285 1257.4538,435.82363"
       style="fill:#fcc5c0;stroke-width:1.61433315;stroke-linecap:round"
       id="path1310"
       inkscape:connector-curvature="0" />
    <path
       d="m 1834.1665,510.12308 a 535.15142,535.15142 0 0 1 13.0873,-67.25867 L 1284.7562,295.4869 a 1116.6342,1116.6342 0 0 0 -27.3069,140.33673 z"
       style="fill:#fcc5c0;stroke-width:1.61433315;stroke-linecap:round"
       id="path1312"
       inkscape:connector-curvature="0" />
    <path
       d="M 1847.2584,442.86673 1284.7586,295.4869"
       style="fill:#fcc5c0;stroke-width:1.61433315;stroke-linecap:round"
       id="path1314"
       inkscape:connector-curvature="0" />
    <path
       d="m 1847.2538,442.86441 a 535.15142,535.15142 0 0 1 21.5734,-65.0327 L 1329.7727,159.78922 a 1116.6342,1116.6342 0 0 0 -45.0165,135.69768 z"
       style="fill:#fcc5c0;stroke-width:1.61433315;stroke-linecap:round"
       id="path1316"
       inkscape:connector-curvature="0" />
    <path
       d="M 1868.8215,377.83514 1329.7681,159.79608"
       style="fill:#fcc5c0;stroke-width:1.61433315;stroke-linecap:round"
       id="path1318"
       inkscape:connector-curvature="0" />
    <path
       d="m 1868.8272,377.83171 a 535.15142,535.15142 0 0 1 29.7066,-61.74403 L 1391.7576,30.955432 a 1116.6342,1116.6342 0 0 0 -61.9849,128.833788 z"
       style="fill:#fcc5c0;stroke-width:1.61433315;stroke-linecap:round"
       id="path1320"
       inkscape:connector-curvature="0" />
    <path
       d="M 1898.5349,316.09108 1391.7634,30.954343"
       style="fill:#fcc5c0;stroke-width:1.61433315;stroke-linecap:round"
       id="path1322"
       inkscape:connector-curvature="0" />
    <path
       d="m 1898.5338,316.08768 a 535.15142,535.15142 0 0 1 37.3523,-57.44291 L 1469.6962,-88.901494 a 1116.6342,1116.6342 0 0 0 -77.9386,119.856926 z"
       style="fill:#fcc5c0;stroke-width:1.61433315;stroke-linecap:round"
       id="path1324"
       inkscape:connector-curvature="0" />
    <path
       d="M 1935.885,258.65053 1469.7053,-88.903806"
       style="fill:#fcc5c0;stroke-width:1.61433315;stroke-linecap:round"
       id="path1326"
       inkscape:connector-curvature="0" />
    <path
       d="m 1935.8861,258.64477 a 535.15142,535.15142 0 0 1 44.3863,-52.19875 l -417.9612,-404.26547 a 1116.6342,1116.6342 0 0 0 -92.615,108.917956 z"
       style="fill:#fcc5c0;stroke-width:1.61433315;stroke-linecap:round"
       id="path1328"
       inkscape:connector-curvature="0" />
    <path
       d="m 1562.3157,-197.81485 417.9624,404.26426"
       style="fill:none;stroke-width:1.61433315;stroke-linecap:round"
       id="path1330"
       inkscape:connector-curvature="0" />
    <path
       d="m 1829.7797,578.50046 a 535.15142,535.15142 0 0 1 4.3868,-68.37738 l -572.4298,-73.74699 a 1112.3126,1112.3126 0 0 0 -9.1183,142.12436 z"
       style="fill:#fa9fb5;stroke-width:1.61433315;stroke-linecap:round"
       id="path1518"
       inkscape:connector-curvature="0" />
    <path
       d="m 1834.1654,510.11285 -572.431,-73.72983"
       style="fill:#fa9fb5;stroke-width:1.61433315;stroke-linecap:round"
       id="path1520"
       inkscape:connector-curvature="0" />
    <path
       d="m 1834.1665,510.12308 a 535.15142,535.15142 0 0 1 13.0873,-67.25867 l -558.315,-146.28164 a 1112.3126,1112.3126 0 0 0 -27.2021,139.79332 z"
       style="fill:#fa9fb5;stroke-width:1.61433315;stroke-linecap:round"
       id="path1522"
       inkscape:connector-curvature="0" />
    <path
       d="M 1847.2584,442.86673 1288.9365,296.58277"
       style="fill:#fa9fb5;stroke-width:1.61433315;stroke-linecap:round"
       id="path1524"
       inkscape:connector-curvature="0" />
    <path
       d="m 1847.2538,442.86441 a 535.15142,535.15142 0 0 1 21.5734,-65.0327 L 1333.7795,161.41019 a 1112.3126,1112.3126 0 0 0 -44.8407,135.17258 z"
       style="fill:#fa9fb5;stroke-width:1.61433315;stroke-linecap:round"
       id="path1526"
       inkscape:connector-curvature="0" />
    <path
       d="M 1868.8215,377.83514 1333.7749,161.4056"
       style="fill:#fa9fb5;stroke-width:1.61433315;stroke-linecap:round"
       id="path1528"
       inkscape:connector-curvature="0" />
    <path
       d="m 1868.8272,377.83171 a 535.15142,535.15142 0 0 1 29.7066,-61.74403 L 1395.5246,33.074101 a 1112.3126,1112.3126 0 0 0 -61.7451,128.336089 z"
       style="fill:#fa9fb5;stroke-width:1.61433315;stroke-linecap:round"
       id="path1530"
       inkscape:connector-curvature="0" />
    <path
       d="M 1898.5349,316.09108 1395.5303,33.077558"
       style="fill:#fa9fb5;stroke-width:1.61433315;stroke-linecap:round"
       id="path1532"
       inkscape:connector-curvature="0" />
    <path
       d="m 1898.5338,316.08768 a 535.15142,535.15142 0 0 1 37.3523,-57.44291 L 1473.1618,-86.319458 a 1112.3126,1112.3126 0 0 0 -77.6372,119.393559 z"
       style="fill:#fa9fb5;stroke-width:1.61433315;stroke-linecap:round"
       id="path1534"
       inkscape:connector-curvature="0" />
    <path
       d="M 1935.885,258.65053 1473.1641,-86.312578"
       style="fill:#fa9fb5;stroke-width:1.61433315;stroke-linecap:round"
       id="path1536"
       inkscape:connector-curvature="0" />
    <path
       d="m 1935.8861,258.64477 a 535.15142,535.15142 0 0 1 44.3863,-52.19875 l -414.8552,-401.25986 a 1112.3126,1112.3126 0 0 0 -92.2554,108.494382 z"
       style="fill:#fa9fb5;stroke-width:1.61433315;stroke-linecap:round"
       id="path1538"
       inkscape:connector-curvature="0" />
    <path
       d="m 1565.4092,-194.81275 414.8689,401.26216"
       style="fill:none;stroke-width:1.61433315;stroke-linecap:round"
       id="path1540"
       inkscape:connector-curvature="0" />
    <path
       d="m 1829.7797,578.50046 a 535.15142,535.15142 0 0 1 4.3868,-68.37738 L 1334.002,445.68741 a 1039.4497,1039.4497 0 0 0 -8.5191,132.81304 z"
       style="fill:#f768a1;stroke-width:1.61433315;stroke-linecap:round"
       id="path1728"
       inkscape:connector-curvature="0" />
    <path
       d="M 1834.1654,510.11285 1334.0032,445.68621"
       style="fill:#f768a1;stroke-width:1.61433315;stroke-linecap:round"
       id="path1730"
       inkscape:connector-curvature="0" />
    <path
       d="m 1834.1665,510.12308 a 535.15142,535.15142 0 0 1 13.0873,-67.25867 L 1359.4222,315.05 a 1039.4497,1039.4497 0 0 0 -25.4202,130.63741 z"
       style="fill:#f768a1;stroke-width:1.61433315;stroke-linecap:round"
       id="path1732"
       inkscape:connector-curvature="0" />
    <path
       d="M 1847.2584,442.86673 1359.4245,315.04088"
       style="fill:#f768a1;stroke-width:1.61433315;stroke-linecap:round"
       id="path1734"
       inkscape:connector-curvature="0" />
    <path
       d="m 1847.2538,442.86441 a 535.15142,535.15142 0 0 1 21.5734,-65.0327 L 1401.3258,188.73215 A 1039.4497,1039.4497 0 0 0 1359.4222,315.05 Z"
       style="fill:#f768a1;stroke-width:1.61433315;stroke-linecap:round"
       id="path1736"
       inkscape:connector-curvature="0" />
    <path
       d="M 1868.8215,377.83514 1401.3292,188.73327"
       style="fill:#f768a1;stroke-width:1.61433315;stroke-linecap:round"
       id="path1738"
       inkscape:connector-curvature="0" />
    <path
       d="m 1868.8272,377.83171 a 535.15142,535.15142 0 0 1 29.7066,-61.74403 L 1459.0266,68.803245 a 1039.4497,1039.4497 0 0 0 -57.7008,119.928905 z"
       style="fill:#f768a1;stroke-width:1.61433315;stroke-linecap:round"
       id="path1740"
       inkscape:connector-curvature="0" />
    <path
       d="M 1898.5349,316.09108 1459.0209,68.806681"
       style="fill:#f768a1;stroke-width:1.61433315;stroke-linecap:round"
       id="path1742"
       inkscape:connector-curvature="0" />
    <path
       d="m 1898.5338,316.08768 a 535.15142,535.15142 0 0 1 37.3523,-57.44291 L 1531.5773,-42.768695 a 1039.4497,1039.4497 0 0 0 -72.5507,111.57194 z"
       style="fill:#f768a1;stroke-width:1.61433315;stroke-linecap:round"
       id="path1744"
       inkscape:connector-curvature="0" />
    <path
       d="M 1935.885,258.65053 1531.575,-42.764141"
       style="fill:#f768a1;stroke-width:1.61433315;stroke-linecap:round"
       id="path1746"
       inkscape:connector-curvature="0" />
    <path
       d="m 1935.8861,258.64477 a 535.15142,535.15142 0 0 1 44.3863,-52.19875 l -362.4818,-350.60328 a 1039.4497,1039.4497 0 0 0 -86.2133,101.388565 z"
       style="fill:#f768a1;stroke-width:1.61433315;stroke-linecap:round"
       id="path1748"
       inkscape:connector-curvature="0" />
    <path
       d="m 1617.7929,-144.1641 362.4852,350.61351"
       style="fill:none;stroke-width:1.61433315;stroke-linecap:round"
       id="path1750"
       inkscape:connector-curvature="0" />
    <path
       d="m 1829.7797,578.50046 a 535.15142,535.15142 0 0 1 4.3868,-68.37738 l -250.726,-32.30113 a 787.94953,787.94953 0 0 0 -6.4587,100.6785 z"
       style="fill:#c51b8a;stroke-width:1.61433315;stroke-linecap:round"
       id="path1938"
       inkscape:connector-curvature="0" />
    <path
       d="M 1834.1654,510.11285 1583.4336,477.81962"
       style="fill:#c51b8a;stroke-width:1.61433315;stroke-linecap:round"
       id="path1940"
       inkscape:connector-curvature="0" />
    <path
       d="m 1834.1665,510.12308 a 535.15142,535.15142 0 0 1 13.0873,-67.25867 l -244.5436,-64.07156 a 787.94953,787.94953 0 0 0 -19.2697,99.0291 z"
       style="fill:#c51b8a;stroke-width:1.61433315;stroke-linecap:round"
       id="path1942"
       inkscape:connector-curvature="0" />
    <path
       d="M 1847.2584,442.86673 1602.7136,378.79396"
       style="fill:#c51b8a;stroke-width:1.61433315;stroke-linecap:round"
       id="path1944"
       inkscape:connector-curvature="0" />
    <path
       d="m 1847.2538,442.86441 a 535.15142,535.15142 0 0 1 21.5734,-65.0327 L 1634.476,283.03879 a 787.94953,787.94953 0 0 0 -31.7658,95.75406 z"
       style="fill:#c51b8a;stroke-width:1.61433315;stroke-linecap:round"
       id="path1946"
       inkscape:connector-curvature="0" />
    <path
       d="M 1868.8215,377.83514 1634.4817,283.03308"
       style="fill:#c51b8a;stroke-width:1.61433315;stroke-linecap:round"
       id="path1948"
       inkscape:connector-curvature="0" />
    <path
       d="m 1868.8272,377.83171 a 535.15142,535.15142 0 0 1 29.7066,-61.74403 l -220.3187,-123.9596 a 787.94953,787.94953 0 0 0 -43.7391,90.91071 z"
       style="fill:#c51b8a;stroke-width:1.61433315;stroke-linecap:round"
       id="path1950"
       inkscape:connector-curvature="0" />
    <path
       d="m 1898.5349,316.09108 -220.322,-123.9561"
       style="fill:#c51b8a;stroke-width:1.61433315;stroke-linecap:round"
       id="path1952"
       inkscape:connector-curvature="0" />
    <path
       d="m 1898.5338,316.08768 a 535.15142,535.15142 0 0 1 37.3523,-57.44291 L 1733.2117,107.5505 a 787.94953,787.94953 0 0 0 -54.9966,84.57758 z"
       style="fill:#c51b8a;stroke-width:1.61433315;stroke-linecap:round"
       id="path1954"
       inkscape:connector-curvature="0" />
    <path
       d="M 1935.885,258.65053 1733.2106,107.54937"
       style="fill:#c51b8a;stroke-width:1.61433315;stroke-linecap:round"
       id="path1956"
       inkscape:connector-curvature="0" />
    <path
       d="m 1935.8861,258.64477 a 535.15142,535.15142 0 0 1 44.3863,-52.19875 L 1798.5652,30.692919 a 787.94953,787.94953 0 0 0 -65.3535,76.857581 z"
       style="fill:#c51b8a;stroke-width:1.61433315;stroke-linecap:round"
       id="path1958"
       inkscape:connector-curvature="0" />
    <path
       d="M 1798.5618,30.691801 1980.2781,206.44941"
       style="fill:none;stroke-width:1.61433315;stroke-linecap:round"
       id="path1960"
       inkscape:connector-curvature="0" />
    <path
       d="m 1829.7797,578.50046 a 535.15142,535.15142 0 0 1 4.3868,-68.37738 l -89.8422,-11.576 a 625.7365,625.7365 0 0 0 -5.1299,79.95337 z"
       style="fill:#7a0177;stroke-width:1.61433315;stroke-linecap:round"
       id="path2148"
       inkscape:connector-curvature="0" />
    <path
       d="m 1834.1654,510.11285 -89.848,-11.56347"
       style="fill:#7a0177;stroke-width:1.61433315;stroke-linecap:round"
       id="path2150"
       inkscape:connector-curvature="0" />
    <path
       d="m 1834.1665,510.12308 a 535.15142,535.15142 0 0 1 13.0873,-67.25867 l -87.6265,-22.95793 a 625.7365,625.7365 0 0 0 -15.303,78.6406 z"
       style="fill:#7a0177;stroke-width:1.61433315;stroke-linecap:round"
       id="path2152"
       inkscape:connector-curvature="0" />
    <path
       d="M 1847.2584,442.86673 1759.625,419.91104"
       style="fill:#7a0177;stroke-width:1.61433315;stroke-linecap:round"
       id="path2154"
       inkscape:connector-curvature="0" />
    <path
       d="m 1847.2538,442.86441 a 535.15142,535.15142 0 0 1 21.5734,-65.0327 l -83.9749,-33.96782 a 625.7365,625.7365 0 0 0 -25.225,76.04259 z"
       style="fill:#7a0177;stroke-width:1.61433315;stroke-linecap:round"
       id="path2156"
       inkscape:connector-curvature="0" />
    <path
       d="m 1868.8215,377.83514 -83.9692,-33.97125"
       style="fill:#7a0177;stroke-width:1.61433315;stroke-linecap:round"
       id="path2158"
       inkscape:connector-curvature="0" />
    <path
       d="m 1868.8272,377.83171 a 535.15142,535.15142 0 0 1 29.7066,-61.74403 l -78.9466,-44.41828 a 625.7365,625.7365 0 0 0 -34.7349,72.19449 z"
       style="fill:#7a0177;stroke-width:1.61433315;stroke-linecap:round"
       id="path2160"
       inkscape:connector-curvature="0" />
    <path
       d="m 1898.5349,316.09108 -78.9466,-44.42743"
       style="fill:#7a0177;stroke-width:1.61433315;stroke-linecap:round"
       id="path2162"
       inkscape:connector-curvature="0" />
    <path
       d="m 1898.5338,316.08768 a 535.15142,535.15142 0 0 1 37.3523,-57.44291 l -72.6237,-54.14045 a 625.7365,625.7365 0 0 0 -43.6752,67.16508 z"
       style="fill:#7a0177;stroke-width:1.61433315;stroke-linecap:round"
       id="path2164"
       inkscape:connector-curvature="0" />
    <path
       d="m 1935.885,258.65053 -72.6227,-54.1531"
       style="fill:#7a0177;stroke-width:1.61433315;stroke-linecap:round"
       id="path2166"
       inkscape:connector-curvature="0" />
    <path
       d="m 1935.8861,258.64477 a 535.15142,535.15142 0 0 1 44.3863,-52.19875 l -65.1115,-62.97691 a 625.7365,625.7365 0 0 0 -51.8985,61.03521 z"
       style="fill:#7a0177;stroke-width:1.61433315;stroke-linecap:round"
       id="path2168"
       inkscape:connector-curvature="0" />
    <path
       d="m 1915.1552,143.47255 65.1229,62.97686"
       style="fill:none;stroke-width:1.61433315;stroke-linecap:round"
       id="path2170"
       inkscape:connector-curvature="0" />
  </g>
  <defs
     id="defs2220">
    <pattern
       id="hline-sparse"
       width="10"
       height="10"
       patternTransform="rotate(0 0 0)"
       patternUnits="userSpaceOnUse">
      <line
         x1="0"
         y1="0"
         x2="10"
         y2="0"
         style="stroke:black;stroke-width:2"
         id="line2223" />
    </pattern>
    <pattern
       id="checker"
       width="10"
       height="10"
       patternTransform="rotate(45 0 0)"
       patternUnits="userSpaceOnUse">
      <line
         x1="0"
         y1="0"
         x2="10"
         y2="0"
         style="stroke:black;stroke-width:5"
         id="line2226" />
      <line
         x1="0"
         y1="0"
         x2="0"
         y2="10"
         style="stroke:black;stroke-width:4"
         id="line2228" />
    </pattern>
    <pattern
       id="vline"
       width="10"
       height="10"
       patternTransform="rotate(0 0 0)"
       patternUnits="userSpaceOnUse">
      <line
         x1="0"
         y1="0"
         x2="0"
         y2="10"
         style="stroke:black;stroke-width:5"
         id="line2231" />
    </pattern>
    <pattern
       id="vline-sparse"
       width="10"
       height="10"
       patternTransform="rotate(0 0 0)"
       patternUnits="userSpaceOnUse">
      <line
         x1="0"
         y1="0"
         x2="0"
         y2="10"
         style="stroke:black;stroke-width:2"
         id="line2234" />
    </pattern>
    <pattern
       id="pattern2236"
       width="10"
       height="10"
       patternTransform="rotate(45 0 0)"
       patternUnits="userSpaceOnUse">
      <line
         x1="0"
         y1="0"
         x2="10"
         y2="0"
         style="stroke:black;stroke-width:2"
         id="line2238" />
      <line
         x1="0"
         y1="0"
         x2="0"
         y2="10"
         style="stroke:black;stroke-width:2"
         id="line2240" />
    </pattern>
    <pattern
       id="hline"
       width="10"
       height="10"
       patternTransform="rotate(0 0 0)"
       patternUnits="userSpaceOnUse">
      <line
         x1="0"
         y1="0"
         x2="10"
         y2="0"
         style="stroke:black;stroke-width:5"
         id="line2243" />
    </pattern>
  </defs>
</svg>
