<?xml version="1.0" encoding="UTF-8" standalone="no"?>
<svg
   xmlns:dc="http://purl.org/dc/elements/1.1/"
   xmlns:cc="http://creativecommons.org/ns#"
   xmlns:rdf="http://www.w3.org/1999/02/22-rdf-syntax-ns#"
   xmlns:svg="http://www.w3.org/2000/svg"
   xmlns="http://www.w3.org/2000/svg"
   xmlns:sodipodi="http://sodipodi.sourceforge.net/DTD/sodipodi-0.dtd"
   xmlns:inkscape="http://www.inkscape.org/namespaces/inkscape"
   width="3000px"
   height="3000px"
   version="1.1"
   id="svg2"
   inkscape:version="0.92.4 (5da689c313, 2019-01-14)"
   sodipodi:docname="Final-Wedge-07.svg">
  <metadata
     id="metadata2247">
    <rdf:RDF>
      <cc:Work
         rdf:about="">
        <dc:format>image/svg+xml</dc:format>
        <dc:type
           rdf:resource="http://purl.org/dc/dcmitype/StillImage" />
        <dc:title></dc:title>
      </cc:Work>
    </rdf:RDF>
  </metadata>
  <sodipodi:namedview
     pagecolor="#ffffff"
     bordercolor="#666666"
     borderopacity="1"
     objecttolerance="10"
     gridtolerance="10"
     guidetolerance="10"
     inkscape:pageopacity="0"
     inkscape:pageshadow="2"
     inkscape:window-width="1920"
     inkscape:window-height="1000"
     id="namedview2245"
     showgrid="false"
     inkscape:zoom="0.11125147"
     inkscape:cx="1222.0751"
     inkscape:cy="1477.0097"
     inkscape:window-x="0"
     inkscape:window-y="52"
     inkscape:window-maximized="1"
     inkscape:current-layer="svg2" />
  <g
     id="g4892"
     transform="rotate(-45,4727.4814,964.79398)">
    <path
       inkscape:connector-curvature="0"
       id="path410"
       style="fill:#feebe2;stroke:#000000;stroke-width:8.07166576;stroke-linecap:round"
       d="M 1038.8509,-860.71724 A 1955.361,1955.361 0 0 1 1226.85,-1026.0507 l -122.0544,-158.1533 a 2155.1347,2155.1347 0 0 0 -207.2061,182.2254 z" />
    <path
       inkscape:connector-curvature="0"
       id="path412"
       style="fill:#fcc5c0;stroke:#000000;stroke-width:8.07166576;stroke-linecap:round"
       d="m 1226.85,-1026.0507 a 1955.361,1955.361 0 0 1 431.3477,-252.2408 l -77.9854,-183.924 a 2155.1347,2155.1347 0 0 0 -475.4167,278.0115 z" />
    <path
       inkscape:connector-curvature="0"
       id="path414"
       style="fill:#f768a1;stroke:#000000;stroke-width:8.07166576;stroke-linecap:round"
       d="m 1658.1977,-1278.2915 a 1955.361,1955.361 0 0 1 236.2769,-82.774 l -53.8449,-192.3803 a 2155.1347,2155.1347 0 0 0 -260.4174,91.2303 z" />
    <path
       inkscape:connector-curvature="0"
       id="path416"
       style="fill:#c51b8a;stroke:#000000;stroke-width:8.07166576;stroke-linecap:round"
       d="m 1894.4746,-1361.0655 a 1955.361,1955.361 0 0 1 244.9169,-51.9066 l -28.823,-197.6837 a 2155.1347,2155.1347 0 0 0 -269.9388,57.21 z" />
    <path
       inkscape:connector-curvature="0"
       id="path418"
       style="fill:#7a0177;stroke:#000000;stroke-width:8.07166576;stroke-linecap:round"
       d="m 2139.3915,-1412.9721 a 1955.361,1955.361 0 0 1 249.5412,-20.1853 l -3.3275,-199.7463 a 2155.1347,2155.1347 0 0 0 -275.0367,22.2479 z" />
    <path
       inkscape:connector-curvature="0"
       id="path422"
       style="fill:#feebe2;stroke:#000000;stroke-width:8.07166576;stroke-linecap:round"
       d="m 1111.6219,-787.94624 a 1852.4472,1852.4472 0 0 1 178.1045,-156.63059 l -62.8764,-81.47387 a 1955.361,1955.361 0 0 0 -187.9991,165.33346 z" />
    <path
       inkscape:connector-curvature="0"
       id="path424"
       style="fill:#fcc5c0;stroke:#000000;stroke-width:8.07166576;stroke-linecap:round"
       d="m 1289.7264,-944.57683 a 1852.4472,1852.4472 0 0 1 196.6564,-132.59047 l -51.9499,-88.8388 a 1955.361,1955.361 0 0 0 -207.5829,139.9554 z" />
    <path
       inkscape:connector-curvature="0"
       id="path426"
       style="fill:#fa9fb5;stroke:#000000;stroke-width:8.07166576;stroke-linecap:round"
       d="m 1486.3828,-1077.1673 a 1852.4472,1852.4472 0 0 1 211.9879,-106.3758 l -40.173,-94.7484 a 1955.361,1955.361 0 0 0 -223.7648,112.2854 z" />
    <path
       inkscape:connector-curvature="0"
       id="path428"
       style="fill:#f768a1;stroke:#000000;stroke-width:8.07166576;stroke-linecap:round"
       d="m 1698.3707,-1183.5431 a 1852.4472,1852.4472 0 0 1 223.8413,-78.418 l -27.7374,-99.1044 a 1955.361,1955.361 0 0 0 -236.2769,82.774 z" />
    <path
       inkscape:connector-curvature="0"
       id="path430"
       style="fill:#c51b8a;stroke:#000000;stroke-width:8.07166576;stroke-linecap:round"
       d="m 1922.212,-1261.9611 a 1852.4472,1852.4472 0 0 1 232.0271,-49.1738 l -14.8476,-101.8372 a 1955.361,1955.361 0 0 0 -244.9169,51.9066 z" />
    <path
       inkscape:connector-curvature="0"
       id="path432"
       style="fill:#7a0177;stroke:#000000;stroke-width:8.07166576;stroke-linecap:round"
       d="m 2154.2391,-1311.1349 a 1852.4472,1852.4472 0 0 1 236.407,-19.1237 l -1.7134,-102.8988 a 1955.361,1955.361 0 0 0 -249.5412,20.1853 z" />
    <path
       inkscape:connector-curvature="0"
       id="path436"
       style="fill:#f768a1;stroke-width:1.61433315;stroke-linecap:round"
       d="m 803.10706,-1096.461 a 2288.753,2288.753 0 0 1 1580.27334,-670.0435 l -0.7192,-43.0963 a 2331.8557,2331.8557 0 0 0 -1610.03235,682.6616 z" />
    <path
       inkscape:connector-curvature="0"
       id="path440"
       style="fill:#000000;stroke-width:1.61433315;stroke-linecap:round"
       d="M 2051.8232,152.2551 A 522.80177,522.80177 0 0 1 2412.7924,-0.79803052 L 2412.6212,-11.087587 A 533.09315,533.09315 0 0 0 2044.5461,144.97798 Z" />
    <path
       inkscape:connector-curvature="0"
       id="path444"
       style="fill:#000000;stroke-width:1.61433315;stroke-linecap:round"
       d="m 1605.0092,-294.55889 a 1154.6921,1154.6921 0 0 1 797.2586,-338.04208 l -0.1713,-10.28955 a 1164.9835,1164.9835 0 0 0 -804.3643,341.05458 z" />
    <path
       inkscape:connector-curvature="0"
       id="path448"
       style="fill:#f768a1;stroke-width:1.61433315;stroke-linecap:round"
       d="m 2163.7444,264.17631 a 364.52126,364.52126 0 0 1 251.6838,-106.71484 l -0.6861,-41.15927 A 405.68675,405.68675 0 0 0 2134.636,235.06791 Z" />
    <path
       inkscape:connector-curvature="0"
       id="path452"
       style="fill:#000000;stroke-width:1.61433315;stroke-linecap:round"
       d="m 1212.0458,-687.52226 a 1710.4263,1710.4263 0 0 1 1180.9655,-500.73524 l -0.1712,-10.2895 a 1720.7177,1720.7177 0 0 0 -1188.0714,503.74764 z" />
    <path
       inkscape:connector-curvature="0"
       id="path456"
       style="fill:#000000;stroke-width:1.61433315;stroke-linecap:round"
       d="m 1513.3177,-386.25034 a 1284.3634,1284.3634 0 0 1 886.7903,-376.00291 l -0.1712,-10.28948 a 1294.6548,1294.6548 0 0 0 -893.8961,379.01534 z" />
    <path
       d="M 966.07985,-933.48824 A 2058.2747,2058.2747 0 0 1 2387.2181,-1536.0572 l -1.6129,-96.8465 a 2155.1347,2155.1347 0 0 0 -1488.0157,630.9251 z"
       style="fill:#f768a1;stroke:#000000;stroke-width:8.07166576;stroke-linecap:round"
       id="path458"
       inkscape:connector-curvature="0" />
    <path
       d="m 966.07985,-933.48824 a 2058.2747,2058.2747 0 0 1 197.89375,-174.03396 l -59.178,-76.6818 a 2155.1347,2155.1347 0 0 0 -207.2061,182.2254 z"
       style="fill:#f768a1;fill-opacity:0.67000002;stroke-width:1.61433315;stroke-linecap:round"
       id="path460"
       inkscape:connector-curvature="0" />
    <path
       d="m 1163.9736,-1107.5222 a 2058.2747,2058.2747 0 0 1 218.5082,-147.3239 l -48.8941,-83.6119 a 2155.1347,2155.1347 0 0 0 -228.7921,154.254 z"
       style="fill:#f768a1;fill-opacity:0.67000002;stroke-width:1.61433315;stroke-linecap:round"
       id="path462"
       inkscape:connector-curvature="0" />
    <path
       d="m 1382.4818,-1254.8461 a 2058.2747,2058.2747 0 0 1 235.5417,-118.195 l -37.8112,-89.1744 a 2155.1347,2155.1347 0 0 0 -246.6246,123.7575 z"
       style="fill:#f768a1;fill-opacity:0.67000002;stroke-width:1.61433315;stroke-linecap:round"
       id="path464"
       inkscape:connector-curvature="0" />
    <path
       d="m 1618.0235,-1373.0411 a 2058.2747,2058.2747 0 0 1 248.7125,-87.13 l -26.1063,-93.2747 a 2155.1347,2155.1347 0 0 0 -260.4174,91.2303 z"
       style="fill:#f768a1;fill-opacity:0.67000002;stroke-width:1.61433315;stroke-linecap:round"
       id="path466"
       inkscape:connector-curvature="0" />
    <path
       d="m 1866.736,-1460.1711 a 2058.2747,2058.2747 0 0 1 257.8068,-54.637 l -13.9743,-95.8477 a 2155.1347,2155.1347 0 0 0 -269.9388,57.21 z"
       style="fill:#f768a1;fill-opacity:0.67000002;stroke-width:1.61433315;stroke-linecap:round"
       id="path468"
       inkscape:connector-curvature="0" />
    <path
       d="m 2124.5428,-1514.8081 a 2058.2747,2058.2747 0 0 1 262.6753,-21.2491 l -1.6129,-96.8465 a 2155.1347,2155.1347 0 0 0 -275.0367,22.2479 z"
       style="fill:#f768a1;fill-opacity:0.67000002;stroke-width:1.61433315;stroke-linecap:round"
       id="path470"
       inkscape:connector-curvature="0" />
    <path
       d="M 966.07985,-933.48824 A 2058.2747,2058.2747 0 0 1 2387.2181,-1536.0572 l -1.6129,-96.8465 a 2155.1347,2155.1347 0 0 0 -1488.0157,630.9251 z"
       style="fill:none;stroke:#000000;stroke-width:8.07166576;stroke-linecap:round"
       id="path472"
       inkscape:connector-curvature="0" />
    <path
       d="m 1286.2723,-613.29584 a 1605.4543,1605.4543 0 0 1 154.3578,-135.74673 l -62.8776,-81.4727 a 1708.368,1708.368 0 0 0 -164.2512,144.44843 z"
       style="fill:#ffffcc;stroke-width:1.61433315;stroke-linecap:round"
       id="path618"
       inkscape:connector-curvature="0" />
    <path
       d="m 1440.6301,-749.04257 a 1605.4543,1605.4543 0 0 1 170.436,-114.91084 l -51.9511,-88.83998 a 1708.368,1708.368 0 0 0 -181.3625,122.27812 z"
       style="fill:#ffffcc;stroke-width:1.61433315;stroke-linecap:round"
       id="path620"
       inkscape:connector-curvature="0" />
    <path
       d="m 1611.0661,-863.95341 a 1605.4543,1605.4543 0 0 1 183.7219,-92.19372 l -40.173,-94.74837 a 1708.368,1708.368 0 0 0 -195.5,98.10211 z"
       style="fill:#ffffcc;stroke-width:1.61433315;stroke-linecap:round"
       id="path622"
       inkscape:connector-curvature="0" />
    <path
       d="m 1794.788,-956.14713 a 1605.4543,1605.4543 0 0 1 193.9955,-67.96187 l -27.7374,-99.1044 a 1708.368,1708.368 0 0 0 -206.4311,72.3179 z"
       style="fill:#ffffcc;stroke-width:1.61433315;stroke-linecap:round"
       id="path624"
       inkscape:connector-curvature="0" />
    <path
       d="m 1988.7835,-1024.109 a 1605.4543,1605.4543 0 0 1 201.09,-42.617 l -14.8476,-101.8371 a 1708.368,1708.368 0 0 0 -213.9798,45.3497 z"
       style="fill:#ffffcc;stroke-width:1.61433315;stroke-linecap:round"
       id="path626"
       inkscape:connector-curvature="0" />
    <path
       d="m 2189.8735,-1066.726 a 1605.4543,1605.4543 0 0 1 204.8877,-16.5735 l -1.7145,-102.8999 a 1708.368,1708.368 0 0 0 -218.0208,17.6363 z"
       style="fill:#ffffcc;stroke-width:1.61433315;stroke-linecap:round"
       id="path628"
       inkscape:connector-curvature="0" />
    <path
       d="m 1359.0433,-540.52484 a 1502.5405,1502.5405 0 0 1 144.4621,-127.04504 l -62.8753,-81.47269 a 1605.4543,1605.4543 0 0 0 -154.3578,135.74673 z"
       style="fill:#ffffcc;stroke-width:1.61433315;stroke-linecap:round"
       id="path724"
       inkscape:connector-curvature="0" />
    <path
       d="m 1503.5054,-667.56988 a 1502.5405,1502.5405 0 0 1 159.5117,-107.54583 l -51.951,-88.8377 a 1605.4543,1605.4543 0 0 0 -170.436,114.91084 z"
       style="fill:#ffffcc;stroke-width:1.61433315;stroke-linecap:round"
       id="path726"
       inkscape:connector-curvature="0" />
    <path
       d="m 1663.0171,-775.11571 a 1502.5405,1502.5405 0 0 1 171.9451,-86.28188 l -40.1742,-94.74954 a 1605.4543,1605.4543 0 0 0 -183.7219,92.19372 z"
       style="fill:#ffffcc;stroke-width:1.61433315;stroke-linecap:round"
       id="path728"
       inkscape:connector-curvature="0" />
    <path
       d="m 1834.9622,-861.39759 a 1502.5405,1502.5405 0 0 1 181.5599,-63.6058 l -27.7386,-99.10561 a 1605.4543,1605.4543 0 0 0 -193.9955,67.96187 z"
       style="fill:#ffffcc;stroke-width:1.61433315;stroke-linecap:round"
       id="path730"
       inkscape:connector-curvature="0" />
    <path
       d="m 2016.5221,-925.00339 a 1502.5405,1502.5405 0 0 1 188.1989,-39.88539 l -14.8475,-101.83722 a 1605.4543,1605.4543 0 0 0 -201.09,42.617 z"
       style="fill:#ffffcc;stroke-width:1.61433315;stroke-linecap:round"
       id="path732"
       inkscape:connector-curvature="0" />
    <path
       d="m 2204.721,-964.88878 a 1502.5405,1502.5405 0 0 1 191.7536,-15.5119 l -1.7134,-102.89882 a 1605.4543,1605.4543 0 0 0 -204.8877,16.5735 z"
       style="fill:#ffffcc;stroke-width:1.61433315;stroke-linecap:round"
       id="path734"
       inkscape:connector-curvature="0" />
    <path
       d="m 1431.8143,-467.75381 a 1399.6268,1399.6268 0 0 1 134.5675,-118.34451 l -62.8764,-81.47156 a 1502.5405,1502.5405 0 0 0 -144.4621,127.04504 z"
       style="fill:#e31a1c;stroke-width:1.61433315;stroke-linecap:round"
       id="path830"
       inkscape:connector-curvature="0" />
    <path
       d="m 1566.3818,-586.09832 a 1399.6268,1399.6268 0 0 1 148.5853,-100.17856 l -51.95,-88.83883 a 1502.5405,1502.5405 0 0 0 -159.5117,107.54583 z"
       style="fill:#e31a1c;stroke-width:1.61433315;stroke-linecap:round"
       id="path832"
       inkscape:connector-curvature="0" />
    <path
       d="m 1714.9671,-686.27688 a 1399.6268,1399.6268 0 0 1 160.1681,-80.37227 l -40.173,-94.74844 a 1502.5405,1502.5405 0 0 0 -171.9451,86.28188 z"
       style="fill:#e31a1c;stroke-width:1.61433315;stroke-linecap:round"
       id="path834"
       inkscape:connector-curvature="0" />
    <path
       d="m 1875.1352,-766.64915 a 1399.6268,1399.6268 0 0 1 169.1255,-59.24874 l -27.7386,-99.1055 a 1502.5405,1502.5405 0 0 0 -181.5599,63.6058 z"
       style="fill:#e31a1c;stroke-width:1.61433315;stroke-linecap:round"
       id="path836"
       inkscape:connector-curvature="0" />
    <path
       d="m 2044.2607,-825.89789 a 1399.6268,1399.6268 0 0 1 175.3079,-37.15369 l -14.8476,-101.8372 a 1502.5405,1502.5405 0 0 0 -188.1989,39.88539 z"
       style="fill:#e31a1c;stroke-width:1.61433315;stroke-linecap:round"
       id="path838"
       inkscape:connector-curvature="0" />
    <path
       d="m 2219.5686,-863.05158 a 1399.6268,1399.6268 0 0 1 178.6205,-14.44926 l -1.7145,-102.89984 a 1502.5405,1502.5405 0 0 0 -191.7536,15.5119 z"
       style="fill:#e31a1c;stroke-width:1.61433315;stroke-linecap:round"
       id="path840"
       inkscape:connector-curvature="0" />
    <path
       d="m 1504.5853,-394.98283 a 1296.7131,1296.7131 0 0 1 124.673,-109.64162 l -62.8765,-81.47387 a 1399.6268,1399.6268 0 0 0 -134.5675,118.34451 z"
       style="fill:#ffeda0;stroke-width:1.61433315;stroke-linecap:round"
       id="path936"
       inkscape:connector-curvature="0" />
    <path
       d="m 1629.2583,-504.62445 a 1296.7131,1296.7131 0 0 1 137.661,-92.8136 l -51.9522,-88.83883 a 1399.6268,1399.6268 0 0 0 -148.5853,100.17856 z"
       style="fill:#ffeda0;stroke-width:1.61433315;stroke-linecap:round"
       id="path938"
       inkscape:connector-curvature="0" />
    <path
       d="m 1766.9193,-597.43805 a 1296.7131,1296.7131 0 0 1 148.3912,-74.46267 l -40.1753,-94.74843 a 1399.6268,1399.6268 0 0 0 -160.1681,80.37227 z"
       style="fill:#ffeda0;stroke-width:1.61433315;stroke-linecap:round"
       id="path940"
       inkscape:connector-curvature="0" />
    <path
       d="m 1915.3105,-671.90072 a 1296.7131,1296.7131 0 0 1 156.6876,-54.89279 l -27.7374,-99.10438 a 1399.6268,1399.6268 0 0 0 -169.1255,59.24874 z"
       style="fill:#ffeda0;stroke-width:1.61433315;stroke-linecap:round"
       id="path942"
       inkscape:connector-curvature="0" />
    <path
       d="m 2071.9981,-726.79351 a 1296.7131,1296.7131 0 0 1 162.4192,-34.4221 l -14.8487,-101.83597 a 1399.6268,1399.6268 0 0 0 -175.3079,37.15369 z"
       style="fill:#ffeda0;stroke-width:1.61433315;stroke-linecap:round"
       id="path944"
       inkscape:connector-curvature="0" />
    <path
       d="m 2234.4173,-761.21561 a 1296.7131,1296.7131 0 0 1 165.4852,-13.38644 l -1.7134,-102.89879 a 1399.6268,1399.6268 0 0 0 -178.6205,14.44926 z"
       style="fill:#ffeda0;stroke-width:1.61433315;stroke-linecap:round"
       id="path946"
       inkscape:connector-curvature="0" />
    <path
       d="m 2043.0906,143.52254 a 535.15142,535.15142 0 0 1 51.4523,-45.249254 L 1717.2843,-390.56293 a 1152.6338,1152.6338 0 0 0 -110.8197,97.45948 z"
       style="fill:#feebe2;stroke-width:1.61433315;stroke-linecap:round"
       id="path1122"
       inkscape:connector-curvature="0" />
    <path
       d="M 2094.5497,98.273258 1717.2821,-390.56519"
       style="fill:#feebe2;stroke-width:1.61433315;stroke-linecap:round"
       id="path1124"
       inkscape:connector-curvature="0" />
    <path
       d="m 2094.5429,98.273286 a 535.15142,535.15142 0 0 1 56.8116,-38.303224 L 1839.6503,-473.06297 a 1152.6338,1152.6338 0 0 0 -122.366,82.50004 z"
       style="fill:#feebe2;stroke-width:1.61433315;stroke-linecap:round"
       id="path1126"
       inkscape:connector-curvature="0" />
    <path
       d="M 2151.3511,59.96432 1839.64,-473.06186"
       style="fill:#feebe2;stroke-width:1.61433315;stroke-linecap:round"
       id="path1128"
       inkscape:connector-curvature="0" />
    <path
       d="m 2151.3545,59.970062 a 535.15142,535.15142 0 0 1 61.2418,-30.73166 L 1971.5525,-539.25322 a 1152.6338,1152.6338 0 0 0 -131.9022,66.19025 z"
       style="fill:#feebe2;stroke-width:1.61433315;stroke-linecap:round"
       id="path1130"
       inkscape:connector-curvature="0" />
    <path
       d="M 2212.5928,29.246378 1971.5525,-539.24633"
       style="fill:#feebe2;stroke-width:1.61433315;stroke-linecap:round"
       id="path1132"
       inkscape:connector-curvature="0" />
    <path
       d="M 2212.5963,29.238402 A 535.15142,535.15142 0 0 1 2277.2615,6.5852532 L 2110.8322,-588.04574 a 1152.6338,1152.6338 0 0 0 -139.2797,48.79252 z"
       style="fill:#feebe2;stroke-width:1.61433315;stroke-linecap:round"
       id="path1134"
       inkscape:connector-curvature="0" />
    <path
       d="M 2277.2592,6.5875301 2110.8276,-588.04572"
       style="fill:#feebe2;stroke-width:1.61433315;stroke-linecap:round"
       id="path1136"
       inkscape:connector-curvature="0" />
    <path
       d="M 2277.2615,6.5852532 A 535.15142,535.15142 0 0 1 2344.2918,-7.620819 L 2255.2041,-618.6438 a 1152.6338,1152.6338 0 0 0 -144.3719,30.59806 z"
       style="fill:#feebe2;stroke-width:1.61433315;stroke-linecap:round"
       id="path1138"
       inkscape:connector-curvature="0" />
    <path
       d="M 2344.2884,-7.6128499 2255.2053,-618.63805"
       style="fill:#feebe2;stroke-width:1.61433315;stroke-linecap:round"
       id="path1140"
       inkscape:connector-curvature="0" />
    <path
       d="m 2344.2918,-7.620819 a 535.15142,535.15142 0 0 1 68.2952,-5.523741 l -10.285,-617.39716 a 1152.6338,1152.6338 0 0 0 -147.0979,11.89792 z"
       style="fill:#feebe2;stroke-width:1.61433315;stroke-linecap:round"
       id="path1142"
       inkscape:connector-curvature="0" />
    <path
       d="m 2402.3112,-630.54396 10.2735,617.394867"
       style="fill:none;stroke-width:1.61433315;stroke-linecap:round"
       id="path1144"
       inkscape:connector-curvature="0" />
    <path
       d="m 2043.0906,143.52254 a 535.15142,535.15142 0 0 1 51.4523,-45.249254 l -366.09,-474.366456 a 1134.3564,1134.3564 0 0 0 -109.0641,95.91386 z"
       style="fill:#fcc5c0;stroke-width:1.61433315;stroke-linecap:round"
       id="path1332"
       inkscape:connector-curvature="0" />
    <path
       d="M 2094.5497,98.273258 1728.446,-376.09094"
       style="fill:#fcc5c0;stroke-width:1.61433315;stroke-linecap:round"
       id="path1334"
       inkscape:connector-curvature="0" />
    <path
       d="m 2094.5429,98.273286 a 535.15142,535.15142 0 0 1 56.8116,-38.303224 L 1848.876,-457.28505 a 1134.3564,1134.3564 0 0 0 -120.4231,81.19188 z"
       style="fill:#fcc5c0;stroke-width:1.61433315;stroke-linecap:round"
       id="path1336"
       inkscape:connector-curvature="0" />
    <path
       d="M 2151.3511,59.96432 1848.8863,-457.28624"
       style="fill:#fcc5c0;stroke-width:1.61433315;stroke-linecap:round"
       id="path1338"
       inkscape:connector-curvature="0" />
    <path
       d="m 2151.3545,59.970062 a 535.15142,535.15142 0 0 1 61.2418,-30.73166 L 1978.6869,-522.4251 a 1134.3564,1134.3564 0 0 0 -129.8109,65.14005 z"
       style="fill:#fcc5c0;stroke-width:1.61433315;stroke-linecap:round"
       id="path1340"
       inkscape:connector-curvature="0" />
    <path
       d="M 2212.5928,29.246378 1978.6869,-522.43199"
       style="fill:#fcc5c0;stroke-width:1.61433315;stroke-linecap:round"
       id="path1342"
       inkscape:connector-curvature="0" />
    <path
       d="M 2212.5963,29.238402 A 535.15142,535.15142 0 0 1 2277.2615,6.5852532 L 2115.7577,-570.44488 a 1134.3564,1134.3564 0 0 0 -137.0708,48.01978 z"
       style="fill:#fcc5c0;stroke-width:1.61433315;stroke-linecap:round"
       id="path1344"
       inkscape:connector-curvature="0" />
    <path
       d="M 2277.2592,6.5875301 2115.7589,-570.44368"
       style="fill:#fcc5c0;stroke-width:1.61433315;stroke-linecap:round"
       id="path1346"
       inkscape:connector-curvature="0" />
    <path
       d="m 2277.2615,6.5852532 a 535.15142,535.15142 0 0 1 67.0303,-14.2060722 l -86.4497,-592.935831 a 1134.3564,1134.3564 0 0 0 -142.0844,30.11177 z"
       style="fill:#fcc5c0;stroke-width:1.61433315;stroke-linecap:round"
       id="path1348"
       inkscape:connector-curvature="0" />
    <path
       d="M 2344.2884,-7.6128499 2257.8308,-600.5566"
       style="fill:#fcc5c0;stroke-width:1.61433315;stroke-linecap:round"
       id="path1350"
       inkscape:connector-curvature="0" />
    <path
       d="m 2344.2918,-7.620819 a 535.15142,535.15142 0 0 1 68.2952,-5.523741 l -9.9802,-599.12275 a 1134.3564,1134.3564 0 0 0 -144.7647,11.71066 z"
       style="fill:#fcc5c0;stroke-width:1.61433315;stroke-linecap:round"
       id="path1352"
       inkscape:connector-curvature="0" />
    <path
       d="m 2402.6079,-612.25709 9.9768,599.107997"
       style="fill:none;stroke-width:1.61433315;stroke-linecap:round"
       id="path1354"
       inkscape:connector-curvature="0" />
    <path
       d="m 2043.0906,143.52254 a 535.15142,535.15142 0 0 1 51.4523,-45.249254 L 1734.7517,-367.92912 a 1124.044,1124.044 0 0 0 -108.0709,95.04178 z"
       style="fill:#fa9fb5;stroke-width:1.61433315;stroke-linecap:round"
       id="path1542"
       inkscape:connector-curvature="0" />
    <path
       d="M 2094.5497,98.273258 1734.7585,-367.92915"
       style="fill:#fa9fb5;stroke-width:1.61433315;stroke-linecap:round"
       id="path1544"
       inkscape:connector-curvature="0" />
    <path
       d="m 2094.5429,98.273286 a 535.15142,535.15142 0 0 1 56.8116,-38.303224 L 1854.0812,-448.38364 a 1124.044,1124.044 0 0 0 -119.3295,80.45452 z"
       style="fill:#fa9fb5;stroke-width:1.61433315;stroke-linecap:round"
       id="path1546"
       inkscape:connector-curvature="0" />
    <path
       d="m 2151.3511,59.96432 -297.2596,-508.3468"
       style="fill:#fa9fb5;stroke-width:1.61433315;stroke-linecap:round"
       id="path1548"
       inkscape:connector-curvature="0" />
    <path
       d="m 2151.3545,59.970062 a 535.15142,535.15142 0 0 1 61.2418,-30.73166 L 1982.7129,-512.93125 a 1124.044,1124.044 0 0 0 -128.6317,64.54761 z"
       style="fill:#fa9fb5;stroke-width:1.61433315;stroke-linecap:round"
       id="path1550"
       inkscape:connector-curvature="0" />
    <path
       d="M 2212.5928,29.246378 1982.705,-512.93463"
       style="fill:#fa9fb5;stroke-width:1.61433315;stroke-linecap:round"
       id="path1552"
       inkscape:connector-curvature="0" />
    <path
       d="M 2212.5963,29.238402 A 535.15142,535.15142 0 0 1 2277.2615,6.5852532 L 2118.5373,-560.51492 a 1124.044,1124.044 0 0 0 -135.8244,47.58367 z"
       style="fill:#fa9fb5;stroke-width:1.61433315;stroke-linecap:round"
       id="path1554"
       inkscape:connector-curvature="0" />
    <path
       d="M 2277.2592,6.5875301 2118.5442,-560.5126"
       style="fill:#fa9fb5;stroke-width:1.61433315;stroke-linecap:round"
       id="path1556"
       inkscape:connector-curvature="0" />
    <path
       d="m 2277.2615,6.5852532 a 535.15142,535.15142 0 0 1 67.0303,-14.2060722 l -84.9623,-582.731911 a 1124.044,1124.044 0 0 0 -140.7922,29.83781 z"
       style="fill:#fa9fb5;stroke-width:1.61433315;stroke-linecap:round"
       id="path1558"
       inkscape:connector-curvature="0" />
    <path
       d="M 2344.2884,-7.6128499 2259.3375,-590.35156"
       style="fill:#fa9fb5;stroke-width:1.61433315;stroke-linecap:round"
       id="path1560"
       inkscape:connector-curvature="0" />
    <path
       d="m 2344.2918,-7.620819 a 535.15142,535.15142 0 0 1 68.2952,-5.523741 l -9.809,-588.81267 a 1124.044,1124.044 0 0 0 -143.4485,11.6045 z"
       style="fill:#fa9fb5;stroke-width:1.61433315;stroke-linecap:round"
       id="path1562"
       inkscape:connector-curvature="0" />
    <path
       d="m 2402.7791,-601.94929 9.8056,588.800197"
       style="fill:none;stroke-width:1.61433315;stroke-linecap:round"
       id="path1564"
       inkscape:connector-curvature="0" />
    <path
       d="m 2043.0906,143.52254 a 535.15142,535.15142 0 0 1 51.4523,-45.249254 l -185.497,-240.360046 a 838.76712,838.76712 0 0 0 -80.644,70.920581 z"
       style="fill:#f768a1;stroke-width:1.61433315;stroke-linecap:round"
       id="path1752"
       inkscape:connector-curvature="0" />
    <path
       d="M 2094.5497,98.273258 1909.0436,-142.09363"
       style="fill:#f768a1;stroke-width:1.61433315;stroke-linecap:round"
       id="path1754"
       inkscape:connector-curvature="0" />
    <path
       d="m 2094.5429,98.273286 a 535.15142,535.15142 0 0 1 56.8116,-38.303224 L 1998.0902,-202.12313 a 838.76712,838.76712 0 0 0 -89.0443,60.03637 z"
       style="fill:#f768a1;stroke-width:1.61433315;stroke-linecap:round"
       id="path1756"
       inkscape:connector-curvature="0" />
    <path
       d="M 2151.3511,59.96432 1998.0925,-202.12542"
       style="fill:#f768a1;stroke-width:1.61433315;stroke-linecap:round"
       id="path1758"
       inkscape:connector-curvature="0" />
    <path
       d="m 2151.3545,59.970062 a 535.15142,535.15142 0 0 1 61.2418,-30.73166 L 2094.0749,-250.28785 a 838.76712,838.76712 0 0 0 -95.9847,48.16472 z"
       style="fill:#f768a1;stroke-width:1.61433315;stroke-linecap:round"
       id="path1760"
       inkscape:connector-curvature="0" />
    <path
       d="M 2212.5928,29.246378 2094.0817,-250.28553"
       style="fill:#f768a1;stroke-width:1.61433315;stroke-linecap:round"
       id="path1762"
       inkscape:connector-curvature="0" />
    <path
       d="M 2212.5963,29.238402 A 535.15142,535.15142 0 0 1 2277.2615,6.5852532 L 2195.428,-285.79439 a 838.76712,838.76712 0 0 0 -101.3531,35.50654 z"
       style="fill:#f768a1;stroke-width:1.61433315;stroke-linecap:round"
       id="path1764"
       inkscape:connector-curvature="0" />
    <path
       d="M 2277.2592,6.5875301 2195.436,-285.79783"
       style="fill:#f768a1;stroke-width:1.61433315;stroke-linecap:round"
       id="path1766"
       inkscape:connector-curvature="0" />
    <path
       d="m 2277.2615,6.5852532 a 535.15142,535.15142 0 0 1 67.0303,-14.2060722 l -43.8041,-300.439771 a 838.76712,838.76712 0 0 0 -105.0597,22.2662 z"
       style="fill:#f768a1;stroke-width:1.61433315;stroke-linecap:round"
       id="path1768"
       inkscape:connector-curvature="0" />
    <path
       d="M 2344.2884,-7.6128499 2300.4888,-308.06855"
       style="fill:#f768a1;stroke-width:1.61433315;stroke-linecap:round"
       id="path1770"
       inkscape:connector-curvature="0" />
    <path
       d="m 2344.2918,-7.620819 a 535.15142,535.15142 0 0 1 68.2952,-5.523741 l -5.0569,-303.57433 a 838.76712,838.76712 0 0 0 -107.0424,8.6583 z"
       style="fill:#f768a1;stroke-width:1.61433315;stroke-linecap:round"
       id="path1772"
       inkscape:connector-curvature="0" />
    <path
       d="m 2407.5392,-316.7212 5.0455,303.572107"
       style="fill:none;stroke-width:1.61433315;stroke-linecap:round"
       id="path1774"
       inkscape:connector-curvature="0" />
    <path
       d="m 2043.0906,143.52254 a 535.15142,535.15142 0 0 1 51.4523,-45.249254 L 1953.826,-84.062887 a 765.47317,765.47317 0 0 0 -73.5974,64.723392 z"
       style="fill:#c51b8a;stroke-width:1.61433315;stroke-linecap:round"
       id="path1962"
       inkscape:connector-curvature="0" />
    <path
       d="M 2094.5497,98.273258 1953.8249,-84.070906"
       style="fill:#c51b8a;stroke-width:1.61433315;stroke-linecap:round"
       id="path1964"
       inkscape:connector-curvature="0" />
    <path
       d="m 2094.5429,98.273286 a 535.15142,535.15142 0 0 1 56.8116,-38.303224 L 2035.0887,-138.85175 a 765.47317,765.47317 0 0 0 -81.2627,54.788863 z"
       style="fill:#c51b8a;stroke-width:1.61433315;stroke-linecap:round"
       id="path1966"
       inkscape:connector-curvature="0" />
    <path
       d="M 2151.3511,59.96432 2035.0887,-138.85175"
       style="fill:#c51b8a;stroke-width:1.61433315;stroke-linecap:round"
       id="path1968"
       inkscape:connector-curvature="0" />
    <path
       d="m 2151.3545,59.970062 a 535.15142,535.15142 0 0 1 61.2418,-30.73166 l -89.9096,-212.046112 a 765.47317,765.47317 0 0 0 -87.598,43.95596 z"
       style="fill:#c51b8a;stroke-width:1.61433315;stroke-linecap:round"
       id="path1970"
       inkscape:connector-curvature="0" />
    <path
       d="m 2212.5928,29.246378 -89.905,-212.046138"
       style="fill:#c51b8a;stroke-width:1.61433315;stroke-linecap:round"
       id="path1972"
       inkscape:connector-curvature="0" />
    <path
       d="M 2212.5963,29.238402 A 535.15142,535.15142 0 0 1 2277.2615,6.5852532 L 2215.183,-215.21275 a 765.47317,765.47317 0 0 0 -92.4963,32.40504 z"
       style="fill:#c51b8a;stroke-width:1.61433315;stroke-linecap:round"
       id="path1974"
       inkscape:connector-curvature="0" />
    <path
       d="M 2277.2592,6.5875301 2215.1841,-215.20708"
       style="fill:#c51b8a;stroke-width:1.61433315;stroke-linecap:round"
       id="path1976"
       inkscape:connector-curvature="0" />
    <path
       d="m 2277.2615,6.5852532 a 535.15142,535.15142 0 0 1 67.0303,-14.2060722 l -33.2304,-227.911931 a 765.47317,765.47317 0 0 0 -95.8784,20.32 z"
       style="fill:#c51b8a;stroke-width:1.61433315;stroke-linecap:round"
       id="path1978"
       inkscape:connector-curvature="0" />
    <path
       d="M 2344.2884,-7.6128499 2311.0592,-235.53728"
       style="fill:#c51b8a;stroke-width:1.61433315;stroke-linecap:round"
       id="path1980"
       inkscape:connector-curvature="0" />
    <path
       d="m 2344.2918,-7.620819 a 535.15142,535.15142 0 0 1 68.2952,-5.523741 l -3.8355,-230.2897 a 765.47317,765.47317 0 0 0 -97.6901,7.90151 z"
       style="fill:#c51b8a;stroke-width:1.61433315;stroke-linecap:round"
       id="path1982"
       inkscape:connector-curvature="0" />
    <path
       d="m 2408.7492,-243.43652 3.8355,230.287427"
       style="fill:none;stroke-width:1.61433315;stroke-linecap:round"
       id="path1984"
       inkscape:connector-curvature="0" />
    <path
       d="m 2043.0906,143.52254 a 535.15142,535.15142 0 0 1 51.4523,-45.249254 L 1985.779,-42.658222 a 713.17201,713.17201 0 0 0 -68.5679,60.30119 z"
       style="fill:#7a0177;stroke-width:1.61433315;stroke-linecap:round"
       id="path2172"
       inkscape:connector-curvature="0" />
    <path
       d="M 2094.5497,98.273258 1985.7871,-42.657048"
       style="fill:#7a0177;stroke-width:1.61433315;stroke-linecap:round"
       id="path2174"
       inkscape:connector-curvature="0" />
    <path
       d="m 2094.5429,98.273286 a 535.15142,535.15142 0 0 1 56.8116,-38.303224 l -89.8639,-153.67411 a 713.17201,713.17201 0 0 0 -75.7116,51.045826 z"
       style="fill:#7a0177;stroke-width:1.61433315;stroke-linecap:round"
       id="path2176"
       inkscape:connector-curvature="0" />
    <path
       d="M 2151.3511,59.96432 2061.4917,-93.705194"
       style="fill:#7a0177;stroke-width:1.61433315;stroke-linecap:round"
       id="path2178"
       inkscape:connector-curvature="0" />
    <path
       d="m 2151.3545,59.970062 a 535.15142,535.15142 0 0 1 61.2418,-30.73166 L 2143.1037,-134.6567 a 713.17201,713.17201 0 0 0 -81.6131,40.952652 z"
       style="fill:#7a0177;stroke-width:1.61433315;stroke-linecap:round"
       id="path2180"
       inkscape:connector-curvature="0" />
    <path
       d="M 2212.5928,29.246378 2143.098,-134.65099"
       style="fill:#7a0177;stroke-width:1.61433315;stroke-linecap:round"
       id="path2182"
       inkscape:connector-curvature="0" />
    <path
       d="M 2212.5963,29.238402 A 535.15142,535.15142 0 0 1 2277.2615,6.5852532 L 2229.2806,-164.84724 a 713.17201,713.17201 0 0 0 -86.1769,30.19054 z"
       style="fill:#7a0177;stroke-width:1.61433315;stroke-linecap:round"
       id="path2184"
       inkscape:connector-curvature="0" />
    <path
       d="M 2277.2592,6.5875301 2229.2817,-164.85527"
       style="fill:#7a0177;stroke-width:1.61433315;stroke-linecap:round"
       id="path2186"
       inkscape:connector-curvature="0" />
    <path
       d="m 2277.2615,6.5852532 a 535.15142,535.15142 0 0 1 67.0303,-14.2060722 l -25.6839,-176.157191 a 713.17201,713.17201 0 0 0 -89.3273,18.93077 z"
       style="fill:#7a0177;stroke-width:1.61433315;stroke-linecap:round"
       id="path2188"
       inkscape:connector-curvature="0" />
    <path
       d="M 2344.2884,-7.6128499 2318.6045,-183.76997"
       style="fill:#7a0177;stroke-width:1.61433315;stroke-linecap:round"
       id="path2190"
       inkscape:connector-curvature="0" />
    <path
       d="m 2344.2918,-7.620819 a 535.15142,535.15142 0 0 1 68.2952,-5.523741 l -2.9645,-177.99615 a 713.17201,713.17201 0 0 0 -91.0146,7.3627 z"
       style="fill:#7a0177;stroke-width:1.61433315;stroke-linecap:round"
       id="path2192"
       inkscape:connector-curvature="0" />
  </g>
  <defs
     id="defs2220">
    <pattern
       id="hline-sparse"
       width="10"
       height="10"
       patternTransform="rotate(0 0 0)"
       patternUnits="userSpaceOnUse">
      <line
         x1="0"
         y1="0"
         x2="10"
         y2="0"
         style="stroke:black;stroke-width:2"
         id="line2223" />
    </pattern>
    <pattern
       id="checker"
       width="10"
       height="10"
       patternTransform="rotate(45 0 0)"
       patternUnits="userSpaceOnUse">
      <line
         x1="0"
         y1="0"
         x2="10"
         y2="0"
         style="stroke:black;stroke-width:5"
         id="line2226" />
      <line
         x1="0"
         y1="0"
         x2="0"
         y2="10"
         style="stroke:black;stroke-width:4"
         id="line2228" />
    </pattern>
    <pattern
       id="vline"
       width="10"
       height="10"
       patternTransform="rotate(0 0 0)"
       patternUnits="userSpaceOnUse">
      <line
         x1="0"
         y1="0"
         x2="0"
         y2="10"
         style="stroke:black;stroke-width:5"
         id="line2231" />
    </pattern>
    <pattern
       id="vline-sparse"
       width="10"
       height="10"
       patternTransform="rotate(0 0 0)"
       patternUnits="userSpaceOnUse">
      <line
         x1="0"
         y1="0"
         x2="0"
         y2="10"
         style="stroke:black;stroke-width:2"
         id="line2234" />
    </pattern>
    <pattern
       id="pattern2236"
       width="10"
       height="10"
       patternTransform="rotate(45 0 0)"
       patternUnits="userSpaceOnUse">
      <line
         x1="0"
         y1="0"
         x2="10"
         y2="0"
         style="stroke:black;stroke-width:2"
         id="line2238" />
      <line
         x1="0"
         y1="0"
         x2="0"
         y2="10"
         style="stroke:black;stroke-width:2"
         id="line2240" />
    </pattern>
    <pattern
       id="hline"
       width="10"
       height="10"
       patternTransform="rotate(0 0 0)"
       patternUnits="userSpaceOnUse">
      <line
         x1="0"
         y1="0"
         x2="10"
         y2="0"
         style="stroke:black;stroke-width:5"
         id="line2243" />
    </pattern>
  </defs>
</svg>
