<?xml version="1.0" encoding="UTF-8" standalone="no"?>
<svg
   xmlns:dc="http://purl.org/dc/elements/1.1/"
   xmlns:cc="http://creativecommons.org/ns#"
   xmlns:rdf="http://www.w3.org/1999/02/22-rdf-syntax-ns#"
   xmlns:svg="http://www.w3.org/2000/svg"
   xmlns="http://www.w3.org/2000/svg"
   xmlns:sodipodi="http://sodipodi.sourceforge.net/DTD/sodipodi-0.dtd"
   xmlns:inkscape="http://www.inkscape.org/namespaces/inkscape"
   width="3000px"
   height="3000px"
   version="1.1"
   id="svg2"
   inkscape:version="0.92.4 (5da689c313, 2019-01-14)"
   sodipodi:docname="Final-Wedge-08.svg">
  <metadata
     id="metadata2247">
    <rdf:RDF>
      <cc:Work
         rdf:about="">
        <dc:format>image/svg+xml</dc:format>
        <dc:type
           rdf:resource="http://purl.org/dc/dcmitype/StillImage" />
        <dc:title></dc:title>
      </cc:Work>
    </rdf:RDF>
  </metadata>
  <sodipodi:namedview
     pagecolor="#ffffff"
     bordercolor="#666666"
     borderopacity="1"
     objecttolerance="10"
     gridtolerance="10"
     guidetolerance="10"
     inkscape:pageopacity="0"
     inkscape:pageshadow="2"
     inkscape:window-width="1920"
     inkscape:window-height="1000"
     id="namedview2245"
     showgrid="false"
     inkscape:zoom="0.11125147"
     inkscape:cx="1222.0751"
     inkscape:cy="1477.0097"
     inkscape:window-x="0"
     inkscape:window-y="52"
     inkscape:window-maximized="1"
     inkscape:current-layer="svg2" />
  <g
     id="g4770"
     transform="rotate(-45,5100.8501,1778.277)">
    <path
       inkscape:connector-curvature="0"
       id="path476"
       style="fill:#feebe2;stroke:#000000;stroke-width:8.07166576;stroke-linecap:round"
       d="m 2421.4999,-1433.429 a 1955.361,1955.361 0 0 1 249.8437,16.0268 l 25.5251,-198.1369 a 2155.1347,2155.1347 0 0 0 -275.3688,-17.6648 z" />
    <path
       inkscape:connector-curvature="0"
       id="path478"
       style="fill:#fcc5c0;stroke:#000000;stroke-width:8.07166576;stroke-linecap:round"
       d="m 2671.3436,-1417.4022 a 1955.361,1955.361 0 0 1 245.7467,47.8187 l 50.6326,-193.2501 a 2155.1347,2155.1347 0 0 0 -270.8542,-52.7055 z" />
    <path
       inkscape:connector-curvature="0"
       id="path480"
       style="fill:#fa9fb5;stroke:#000000;stroke-width:8.07166576;stroke-linecap:round"
       d="m 2917.0903,-1369.5835 a 1955.361,1955.361 0 0 1 863.838,486.02931 l 138.8894,-143.59461 a 2155.1347,2155.1347 0 0 0 -952.0948,-535.6848 z" />
    <path
       inkscape:connector-curvature="0"
       id="path484"
       style="fill:#feebe2;stroke:#000000;stroke-width:8.07166576;stroke-linecap:round"
       d="m 2421.4999,-1330.5154 a 1852.4472,1852.4472 0 0 1 236.6935,15.1843 l 13.1502,-102.0711 a 1955.361,1955.361 0 0 0 -249.8437,-16.0268 z" />
    <path
       inkscape:connector-curvature="0"
       id="path486"
       style="fill:#fcc5c0;stroke:#000000;stroke-width:8.07166576;stroke-linecap:round"
       d="m 2658.1934,-1315.3311 a 1852.4472,1852.4472 0 0 1 232.8124,45.3018 l 26.0845,-99.5542 a 1955.361,1955.361 0 0 0 -245.7467,-47.8187 z" />
    <path
       inkscape:connector-curvature="0"
       id="path488"
       style="fill:#fa9fb5;stroke:#000000;stroke-width:8.07166576;stroke-linecap:round"
       d="m 2891.0058,-1270.0293 a 1852.4472,1852.4472 0 0 1 225.1175,74.6784 l 38.5897,-95.4047 a 1955.361,1955.361 0 0 0 -237.6227,-78.8279 z" />
    <path
       inkscape:connector-curvature="0"
       id="path490"
       style="fill:#f768a1;stroke:#000000;stroke-width:8.07166576;stroke-linecap:round"
       d="m 3116.1233,-1195.3509 a 1852.4472,1852.4472 0 0 1 213.7299,102.8304 l 50.4648,-89.6916 a 1955.361,1955.361 0 0 0 -225.605,-108.5435 z" />
    <path
       inkscape:connector-curvature="0"
       id="path492"
       style="fill:#c51b8a;stroke:#000000;stroke-width:8.07166576;stroke-linecap:round"
       d="m 3329.8532,-1092.5205 a 1852.4472,1852.4472 0 0 1 198.8388,129.29602 l 61.5113,-82.50802 a 1955.361,1955.361 0 0 0 -209.8853,-136.4796 z" />
    <path
       inkscape:connector-curvature="0"
       id="path494"
       style="fill:#7a0177;stroke:#000000;stroke-width:8.07166576;stroke-linecap:round"
       d="m 3528.692,-963.22448 a 1852.4472,1852.4472 0 0 1 180.6879,153.64327 l 71.5484,-73.97298 a 1955.361,1955.361 0 0 0 -190.725,-162.17831 z" />
    <path
       inkscape:connector-curvature="0"
       id="path498"
       style="fill:#f768a1;stroke-width:1.61433315;stroke-linecap:round"
       d="m 2421.4999,-1766.8218 a 2288.753,2288.753 0 0 1 1591.2135,643.6312 l 29.9668,-30.9827 A 2331.8557,2331.8557 0 0 0 2421.4998,-1809.925 Z" />
    <path
       inkscape:connector-curvature="0"
       id="path502"
       style="fill:#000000;stroke-width:1.61433315;stroke-linecap:round"
       d="M 2421.4998,-0.87109587 A 522.80177,522.80177 0 0 1 2784.9679,146.14914 l 7.1549,-7.39695 a 533.09315,533.09315 0 0 0 -370.623,-149.912821 z" />
    <path
       inkscape:connector-curvature="0"
       id="path506"
       style="fill:#000000;stroke-width:1.61433315;stroke-linecap:round"
       d="m 2421.4998,-632.76081 a 1154.6921,1154.6921 0 0 1 802.7789,324.7162 l 7.155,-7.39695 a 1164.9835,1164.9835 0 0 0 -809.9338,-327.61105 z" />
    <path
       inkscape:connector-curvature="0"
       id="path510"
       style="fill:#f768a1;stroke-width:1.61433315;stroke-linecap:round"
       d="m 2421.4998,157.41237 a 364.52126,364.52126 0 0 1 253.4257,102.50723 l 28.6199,-29.59005 a 405.68675,405.68675 0 0 0 -282.0455,-114.0844 z" />
    <path
       inkscape:connector-curvature="0"
       id="path514"
       style="fill:#000000;stroke-width:1.61433315;stroke-linecap:round"
       d="m 2421.4998,-1188.4938 a 1710.4263,1710.4263 0 0 1 1189.1421,480.99519 l 7.155,-7.39697 A 1720.7177,1720.7177 0 0 0 2421.4998,-1198.7856 Z" />
    <path
       inkscape:connector-curvature="0"
       id="path518"
       style="fill:#000000;stroke-width:1.61433315;stroke-linecap:round"
       d="m 2421.4998,-762.43131 a 1284.3634,1284.3634 0 0 1 892.9305,361.18044 l 7.1549,-7.39694 a 1294.6548,1294.6548 0 0 0 -900.0854,-364.07531 z" />
    <path
       d="m 2421.4999,-1536.3426 a 2058.2747,2058.2747 0 0 1 1430.9769,578.81542 l 67.3409,-69.62162 a 2155.1347,2155.1347 0 0 0 -1498.3178,-606.0551 z"
       style="fill:#f768a1;stroke:#000000;stroke-width:8.07166576;stroke-linecap:round"
       id="path520"
       inkscape:connector-curvature="0" />
    <path
       d="m 2421.4999,-1536.3426 a 2058.2747,2058.2747 0 0 1 262.9926,16.8703 l 12.3762,-96.0668 a 2155.1347,2155.1347 0 0 0 -275.3688,-17.6648 z"
       style="fill:#f768a1;fill-opacity:0.67000002;stroke-width:1.61433315;stroke-linecap:round"
       id="path522"
       inkscape:connector-curvature="0" />
    <path
       d="m 2684.4925,-1519.4723 a 2058.2747,2058.2747 0 0 1 258.6812,50.3359 l 24.5492,-93.6972 a 2155.1347,2155.1347 0 0 0 -270.8542,-52.7055 z"
       style="fill:#f768a1;fill-opacity:0.67000002;stroke-width:1.61433315;stroke-linecap:round"
       id="path524"
       inkscape:connector-curvature="0" />
    <path
       d="m 2943.1737,-1469.1364 a 2058.2747,2058.2747 0 0 1 250.1302,82.9772 l 36.3205,-89.7931 a 2155.1347,2155.1347 0 0 0 -261.9015,-86.8813 z"
       style="fill:#f768a1;fill-opacity:0.67000002;stroke-width:1.61433315;stroke-linecap:round"
       id="path526"
       inkscape:connector-curvature="0" />
    <path
       d="m 3193.3039,-1386.1592 a 2058.2747,2058.2747 0 0 1 237.4766,114.2556 l 47.4958,-84.4167 a 2155.1347,2155.1347 0 0 0 -248.6519,-119.632 z"
       style="fill:#f768a1;fill-opacity:0.67000002;stroke-width:1.61433315;stroke-linecap:round"
       id="path528"
       inkscape:connector-curvature="0" />
    <path
       d="m 3430.7805,-1271.9036 a 2058.2747,2058.2747 0 0 1 220.9328,143.6619 l 57.8926,-77.6543 a 2155.1347,2155.1347 0 0 0 -231.3296,-150.4243 z"
       style="fill:#f768a1;fill-opacity:0.67000002;stroke-width:1.61433315;stroke-linecap:round"
       id="path530"
       inkscape:connector-curvature="0" />
    <path
       d="m 3651.7133,-1128.2417 a 2058.2747,2058.2747 0 0 1 200.7635,170.71452 l 67.3409,-69.62162 a 2155.1347,2155.1347 0 0 0 -210.2118,-178.7472 z"
       style="fill:#f768a1;fill-opacity:0.67000002;stroke-width:1.61433315;stroke-linecap:round"
       id="path532"
       inkscape:connector-curvature="0" />
    <path
       d="m 2421.4999,-1536.3426 a 2058.2747,2058.2747 0 0 1 1430.9769,578.81542 l 67.3409,-69.62162 a 2155.1347,2155.1347 0 0 0 -1498.3178,-606.0551 z"
       style="fill:none;stroke:#000000;stroke-width:8.07166576;stroke-linecap:round"
       id="path534"
       inkscape:connector-curvature="0" />
    <path
       d="m 2421.4999,-1083.5232 a 1605.4543,1605.4543 0 0 1 205.1342,13.1604 l 13.1502,-102.0711 a 1708.368,1708.368 0 0 0 -218.2845,-14.0029 z"
       style="fill:#ffffcc;stroke-width:1.61433315;stroke-linecap:round"
       id="path630"
       inkscape:connector-curvature="0" />
    <path
       d="m 2626.6341,-1070.3628 a 1605.4543,1605.4543 0 0 1 201.7715,39.2621 l 26.0845,-99.5542 a 1708.368,1708.368 0 0 0 -214.7058,-41.779 z"
       style="fill:#ffffcc;stroke-width:1.61433315;stroke-linecap:round"
       id="path632"
       inkscape:connector-curvature="0" />
    <path
       d="m 2828.4056,-1031.1007 a 1605.4543,1605.4543 0 0 1 195.1016,64.72111 l 38.5898,-95.40481 a 1708.368,1708.368 0 0 0 -207.6069,-68.8705 z"
       style="fill:#ffffcc;stroke-width:1.61433315;stroke-linecap:round"
       id="path634"
       inkscape:connector-curvature="0" />
    <path
       d="m 3023.5072,-966.37959 a 1605.4543,1605.4543 0 0 1 185.2322,89.11964 l 50.4636,-89.69268 a 1708.368,1708.368 0 0 0 -197.106,-94.83177 z"
       style="fill:#ffffcc;stroke-width:1.61433315;stroke-linecap:round"
       id="path636"
       inkscape:connector-curvature="0" />
    <path
       d="m 3208.7394,-877.25995 a 1605.4543,1605.4543 0 0 1 172.3263,112.05705 l 61.5112,-82.50805 A 1708.368,1708.368 0 0 0 3259.203,-966.95263 Z"
       style="fill:#ffffcc;stroke-width:1.61433315;stroke-linecap:round"
       id="path638"
       inkscape:connector-curvature="0" />
    <path
       d="m 3381.0657,-765.2029 a 1605.4543,1605.4543 0 0 1 156.5963,133.15669 l 71.5496,-73.97186 a 1708.368,1708.368 0 0 0 -166.6347,-141.69288 z"
       style="fill:#ffffcc;stroke-width:1.61433315;stroke-linecap:round"
       id="path640"
       inkscape:connector-curvature="0" />
    <path
       d="m 2421.4999,-980.60958 a 1502.5405,1502.5405 0 0 1 191.9853,12.31683 l 13.1489,-102.07005 a 1605.4543,1605.4543 0 0 0 -205.1342,-13.1604 z"
       style="fill:#ffffcc;stroke-width:1.61433315;stroke-linecap:round"
       id="path736"
       inkscape:connector-curvature="0" />
    <path
       d="m 2613.4852,-968.29275 a 1502.5405,1502.5405 0 0 1 188.837,36.74504 l 26.0834,-99.55299 a 1605.4543,1605.4543 0 0 0 -201.7715,-39.2621 z"
       style="fill:#ffeda0;stroke-width:1.61433315;stroke-linecap:round"
       id="path738"
       inkscape:connector-curvature="0" />
    <path
       d="m 2802.3222,-931.54771 a 1502.5405,1502.5405 0 0 1 182.5953,60.5729 l 38.5897,-95.40478 a 1605.4543,1605.4543 0 0 0 -195.1016,-64.72111 z"
       style="fill:#ffffcc;stroke-width:1.61433315;stroke-linecap:round"
       id="path740"
       inkscape:connector-curvature="0" />
    <path
       d="m 2984.9175,-870.97481 a 1502.5405,1502.5405 0 0 1 173.3571,83.40641 l 50.4648,-89.69155 a 1605.4543,1605.4543 0 0 0 -185.2322,-89.11964 z"
       style="fill:#ffffcc;stroke-width:1.61433315;stroke-linecap:round"
       id="path742"
       inkscape:connector-curvature="0" />
    <path
       d="m 3158.2746,-787.5684 a 1502.5405,1502.5405 0 0 1 161.2811,104.87474 l 61.51,-82.50924 a 1605.4543,1605.4543 0 0 0 -172.3263,-112.05705 z"
       style="fill:#ffffcc;stroke-width:1.61433315;stroke-linecap:round"
       id="path744"
       inkscape:connector-curvature="0" />
    <path
       d="m 3319.5557,-682.69366 a 1502.5405,1502.5405 0 0 1 146.5579,124.62048 l 71.5484,-73.97303 A 1605.4543,1605.4543 0 0 0 3381.0657,-765.2029 Z"
       style="fill:#ffffcc;stroke-width:1.61433315;stroke-linecap:round"
       id="path746"
       inkscape:connector-curvature="0" />
    <path
       d="m 2421.4999,-877.69598 a 1399.6268,1399.6268 0 0 1 178.8351,11.47208 l 13.1502,-102.06885 a 1502.5405,1502.5405 0 0 0 -191.9853,-12.31683 z"
       style="fill:#e31a1c;stroke-width:1.61433315;stroke-linecap:round"
       id="path842"
       inkscape:connector-curvature="0" />
    <path
       d="m 2600.335,-866.2239 a 1399.6268,1399.6268 0 0 1 175.9038,34.22924 l 26.0834,-99.55305 a 1502.5405,1502.5405 0 0 0 -188.837,-36.74504 z"
       style="fill:#fc4e2a;stroke-width:1.61433315;stroke-linecap:round"
       id="path844"
       inkscape:connector-curvature="0" />
    <path
       d="m 2776.2388,-831.99466 a 1399.6268,1399.6268 0 0 1 170.0878,56.42351 l 38.5909,-95.40366 a 1502.5405,1502.5405 0 0 0 -182.5953,-60.5729 z"
       style="fill:#e31a1c;stroke-width:1.61433315;stroke-linecap:round"
       id="path846"
       inkscape:connector-curvature="0" />
    <path
       d="m 2946.3266,-775.57115 a 1399.6268,1399.6268 0 0 1 161.4843,77.69545 l 50.4637,-89.6927 a 1502.5405,1502.5405 0 0 0 -173.3571,-83.40641 z"
       style="fill:#e31a1c;stroke-width:1.61433315;stroke-linecap:round"
       id="path848"
       inkscape:connector-curvature="0" />
    <path
       d="m 3107.8109,-697.8757 a 1399.6268,1399.6268 0 0 1 150.2336,97.69007 l 61.5112,-82.50803 A 1502.5405,1502.5405 0 0 0 3158.2746,-787.5684 Z"
       style="fill:#e31a1c;stroke-width:1.61433315;stroke-linecap:round"
       id="path850"
       inkscape:connector-curvature="0" />
    <path
       d="m 3258.0445,-600.18563 a 1399.6268,1399.6268 0 0 1 136.5206,116.08544 l 71.5485,-73.97299 a 1502.5405,1502.5405 0 0 0 -146.5579,-124.62048 z"
       style="fill:#e31a1c;stroke-width:1.61433315;stroke-linecap:round"
       id="path852"
       inkscape:connector-curvature="0" />
    <path
       d="m 2421.4999,-774.78238 a 1296.7131,1296.7131 0 0 1 165.685,10.62968 l 13.1501,-102.0712 a 1399.6268,1399.6268 0 0 0 -178.8351,-11.47208 z"
       style="fill:#ffeda0;stroke-width:1.61433315;stroke-linecap:round"
       id="path948"
       inkscape:connector-curvature="0" />
    <path
       d="m 2587.1849,-764.1527 a 1296.7131,1296.7131 0 0 1 162.9694,31.71222 l 26.0845,-99.55418 A 1399.6268,1399.6268 0 0 0 2600.335,-866.2239 Z"
       style="fill:#ffffcc;stroke-width:1.61433315;stroke-linecap:round"
       id="path950"
       inkscape:connector-curvature="0" />
    <path
       d="m 2750.1543,-732.44048 a 1296.7131,1296.7131 0 0 1 157.5826,52.27411 l 38.5897,-95.40478 a 1399.6268,1399.6268 0 0 0 -170.0878,-56.42351 z"
       style="fill:#ffeda0;stroke-width:1.61433315;stroke-linecap:round"
       id="path952"
       inkscape:connector-curvature="0" />
    <path
       d="m 2907.7369,-680.16637 a 1296.7131,1296.7131 0 0 1 149.6102,71.98102 l 50.4638,-89.69035 a 1399.6268,1399.6268 0 0 0 -161.4843,-77.69545 z"
       style="fill:#ffffcc;stroke-width:1.61433315;stroke-linecap:round"
       id="path954"
       inkscape:connector-curvature="0" />
    <path
       d="m 3057.3471,-608.18535 a 1296.7131,1296.7131 0 0 1 139.1873,90.50888 l 61.5101,-82.50916 a 1399.6268,1399.6268 0 0 0 -150.2336,-97.69007 z"
       style="fill:#ffeda0;stroke-width:1.61433315;stroke-linecap:round"
       id="path956"
       inkscape:connector-curvature="0" />
    <path
       d="m 3196.5344,-517.67647 a 1296.7131,1296.7131 0 0 1 126.4823,107.54927 l 71.5484,-73.97299 a 1399.6268,1399.6268 0 0 0 -136.5206,-116.08544 z"
       style="fill:#ffffcc;stroke-width:1.61433315;stroke-linecap:round"
       id="path958"
       inkscape:connector-curvature="0" />
    <path
       d="m 2421.4999,-13.219881 a 535.15142,535.15142 0 0 1 68.3773,4.386784 l 78.8986,-612.420163 a 1152.6338,1152.6338 0 0 0 -147.276,-9.44829 z"
       style="fill:#feebe2;stroke-width:1.61433315;stroke-linecap:round"
       id="path1146"
       inkscape:connector-curvature="0" />
    <path
       d="M 2489.8875,-8.8342072 2568.7769,-621.26356"
       style="fill:#feebe2;stroke-width:1.61433315;stroke-linecap:round"
       id="path1148"
       inkscape:connector-curvature="0" />
    <path
       d="m 2489.8772,-8.833097 a 535.15142,535.15142 0 0 1 67.2586,13.0873515 L 2713.6375,-593.06721 a 1152.6338,1152.6338 0 0 0 -144.8617,-28.18605 z"
       style="fill:#feebe2;stroke-width:1.61433315;stroke-linecap:round"
       id="path1150"
       inkscape:connector-curvature="0" />
    <path
       d="M 2557.1335,4.2588083 2713.6341,-593.06834"
       style="fill:#feebe2;stroke-width:1.61433315;stroke-linecap:round"
       id="path1152"
       inkscape:connector-curvature="0" />
    <path
       d="m 2557.1358,4.2542545 a 535.15142,535.15142 0 0 1 65.0328,21.5733695 l 231.5419,-572.427574 a 1152.6338,1152.6338 0 0 0 -140.073,-46.46726 z"
       style="fill:#feebe2;stroke-width:1.61433315;stroke-linecap:round"
       id="path1154"
       inkscape:connector-curvature="0" />
    <path
       d="m 2622.1652,25.821887 231.543,-572.419557"
       style="fill:#feebe2;stroke-width:1.61433315;stroke-linecap:round"
       id="path1156"
       inkscape:connector-curvature="0" />
    <path
       d="m 2622.1686,25.827624 a 535.15142,535.15142 0 0 1 61.744,29.706521 l 302.7856,-538.150425 a 1152.6338,1152.6338 0 0 0 -132.9877,-63.98367 z"
       style="fill:#feebe2;stroke-width:1.61433315;stroke-linecap:round"
       id="path1158"
       inkscape:connector-curvature="0" />
    <path
       d="M 2683.9092,55.535296 2986.7051,-482.61624"
       style="fill:#feebe2;stroke-width:1.61433315;stroke-linecap:round"
       id="path1160"
       inkscape:connector-curvature="0" />
    <path
       d="m 2683.9126,55.534145 a 535.15142,535.15142 0 0 1 57.4429,37.352328 l 369.0637,-495.051653 a 1152.6338,1152.6338 0 0 0 -123.721,-80.4511 z"
       style="fill:#feebe2;stroke-width:1.61433315;stroke-linecap:round"
       id="path1162"
       inkscape:connector-curvature="0" />
    <path
       d="M 2741.3498,92.885361 3110.4215,-402.16291"
       style="fill:#feebe2;stroke-width:1.61433315;stroke-linecap:round"
       id="path1164"
       inkscape:connector-curvature="0" />
    <path
       d="m 2741.3555,92.886473 a 535.15142,535.15142 0 0 1 52.1988,44.386327 l 429.293,-443.83802 a 1152.6338,1152.6338 0 0 0 -112.4281,-95.59996 z"
       style="fill:#feebe2;stroke-width:1.61433315;stroke-linecap:round"
       id="path1166"
       inkscape:connector-curvature="0" />
    <path
       d="M 3222.8484,-306.56181 2793.5508,137.2785"
       style="fill:none;stroke-width:1.61433315;stroke-linecap:round"
       id="path1168"
       inkscape:connector-curvature="0" />
    <path
       d="m 2421.4999,-13.219881 a 535.15142,535.15142 0 0 1 68.3773,4.386784 l 76.5631,-594.293083 a 1134.3564,1134.3564 0 0 0 -144.9404,-9.29754 z"
       style="fill:#fcc5c0;stroke-width:1.61433315;stroke-linecap:round"
       id="path1356"
       inkscape:connector-curvature="0" />
    <path
       d="M 2489.8875,-8.8342072 2566.4369,-603.12503"
       style="fill:#fcc5c0;stroke-width:1.61433315;stroke-linecap:round"
       id="path1358"
       inkscape:connector-curvature="0" />
    <path
       d="m 2489.8772,-8.833097 a 535.15142,535.15142 0 0 1 67.2586,13.0873515 L 2709.0052,-575.38531 a 1134.3564,1134.3564 0 0 0 -142.5649,-27.74087 z"
       style="fill:#fcc5c0;stroke-width:1.61433315;stroke-linecap:round"
       id="path1360"
       inkscape:connector-curvature="0" />
    <path
       d="M 2557.1335,4.2588083 2709.011,-575.3864"
       style="fill:#fcc5c0;stroke-width:1.61433315;stroke-linecap:round"
       id="path1362"
       inkscape:connector-curvature="0" />
    <path
       d="m 2557.1358,4.2542545 a 535.15142,535.15142 0 0 1 65.0328,21.5733695 L 2846.8569,-529.6554 a 1134.3564,1134.3564 0 0 0 -137.8517,-45.72991 z"
       style="fill:#fcc5c0;stroke-width:1.61433315;stroke-linecap:round"
       id="path1364"
       inkscape:connector-curvature="0" />
    <path
       d="m 2622.1652,25.821887 224.694,-555.479577"
       style="fill:#fcc5c0;stroke-width:1.61433315;stroke-linecap:round"
       id="path1366"
       inkscape:connector-curvature="0" />
    <path
       d="m 2622.1686,25.827624 a 535.15142,535.15142 0 0 1 61.744,29.706521 l 293.8225,-522.221805 a 1134.3564,1134.3564 0 0 0 -130.8782,-62.96774 z"
       style="fill:#fcc5c0;stroke-width:1.61433315;stroke-linecap:round"
       id="path1368"
       inkscape:connector-curvature="0" />
    <path
       d="M 2683.9092,55.535296 2977.7328,-466.68083"
       style="fill:#fcc5c0;stroke-width:1.61433315;stroke-linecap:round"
       id="path1370"
       inkscape:connector-curvature="0" />
    <path
       d="m 2683.9126,55.534145 a 535.15142,535.15142 0 0 1 57.4429,37.352328 l 358.1384,-480.398143 a 1134.3564,1134.3564 0 0 0 -121.7588,-79.17599 z"
       style="fill:#fcc5c0;stroke-width:1.61433315;stroke-linecap:round"
       id="path1372"
       inkscape:connector-curvature="0" />
    <path
       d="M 2741.3498,92.885361 3099.4973,-387.51736"
       style="fill:#fcc5c0;stroke-width:1.61433315;stroke-linecap:round"
       id="path1374"
       inkscape:connector-curvature="0" />
    <path
       d="m 2741.3555,92.886473 a 535.15142,535.15142 0 0 1 52.1988,44.386327 l 416.5868,-430.70043 a 1134.3564,1134.3564 0 0 0 -110.6472,-94.08404 z"
       style="fill:#fcc5c0;stroke-width:1.61433315;stroke-linecap:round"
       id="path1376"
       inkscape:connector-curvature="0" />
    <path
       d="M 3210.1435,-293.42303 2793.5508,137.2785"
       style="fill:none;stroke-width:1.61433315;stroke-linecap:round"
       id="path1378"
       inkscape:connector-curvature="0" />
    <path
       d="m 2421.4999,-13.219881 a 535.15142,535.15142 0 0 1 68.3773,4.386784 l 75.2458,-584.065143 a 1124.044,1124.044 0 0 0 -143.6232,-9.21542 z"
       style="fill:#fa9fb5;stroke-width:1.61433315;stroke-linecap:round"
       id="path1566"
       inkscape:connector-curvature="0" />
    <path
       d="M 2489.8875,-8.8342072 2565.1241,-592.90855"
       style="fill:#fa9fb5;stroke-width:1.61433315;stroke-linecap:round"
       id="path1568"
       inkscape:connector-curvature="0" />
    <path
       d="m 2489.8772,-8.833097 a 535.15142,535.15142 0 0 1 67.2586,13.0873515 L 2706.3912,-565.41084 a 1124.044,1124.044 0 0 0 -141.2682,-27.4874 z"
       style="fill:#fa9fb5;stroke-width:1.61433315;stroke-linecap:round"
       id="path1570"
       inkscape:connector-curvature="0" />
    <path
       d="M 2557.1335,4.2588083 2706.3855,-565.40967"
       style="fill:#fa9fb5;stroke-width:1.61433315;stroke-linecap:round"
       id="path1572"
       inkscape:connector-curvature="0" />
    <path
       d="m 2557.1358,4.2542545 a 535.15142,535.15142 0 0 1 65.0328,21.5733695 l 220.8209,-545.924084 a 1124.044,1124.044 0 0 0 -136.5983,-45.31438 z"
       style="fill:#fa9fb5;stroke-width:1.61433315;stroke-linecap:round"
       id="path1574"
       inkscape:connector-curvature="0" />
    <path
       d="M 2622.1652,25.821887 2842.9895,-520.10328"
       style="fill:#fa9fb5;stroke-width:1.61433315;stroke-linecap:round"
       id="path1576"
       inkscape:connector-curvature="0" />
    <path
       d="m 2622.1686,25.827624 a 535.15142,535.15142 0 0 1 61.744,29.706521 l 288.7657,-513.233575 a 1124.044,1124.044 0 0 0 -129.6888,-62.39703 z"
       style="fill:#fa9fb5;stroke-width:1.61433315;stroke-linecap:round"
       id="path1578"
       inkscape:connector-curvature="0" />
    <path
       d="M 2683.9092,55.535296 2972.676,-457.69714"
       style="fill:#fa9fb5;stroke-width:1.61433315;stroke-linecap:round"
       id="path1580"
       inkscape:connector-curvature="0" />
    <path
       d="m 2683.9126,55.534145 a 535.15142,535.15142 0 0 1 57.4429,37.352328 l 351.9754,-472.130223 a 1124.044,1124.044 0 0 0 -120.6526,-78.45568 z"
       style="fill:#fa9fb5;stroke-width:1.61433315;stroke-linecap:round"
       id="path1582"
       inkscape:connector-curvature="0" />
    <path
       d="M 2741.3498,92.885361 3093.3331,-379.25292"
       style="fill:#fa9fb5;stroke-width:1.61433315;stroke-linecap:round"
       id="path1584"
       inkscape:connector-curvature="0" />
    <path
       d="m 2741.3555,92.886473 a 535.15142,535.15142 0 0 1 52.1988,44.386327 l 409.417,-423.28865 a 1124.044,1124.044 0 0 0 -109.6404,-93.2279 z"
       style="fill:#fa9fb5;stroke-width:1.61433315;stroke-linecap:round"
       id="path1586"
       inkscape:connector-curvature="0" />
    <path
       d="M 3202.9634,-286.01468 2793.5508,137.2785"
       style="fill:none;stroke-width:1.61433315;stroke-linecap:round"
       id="path1588"
       inkscape:connector-curvature="0" />
    <path
       d="m 2421.4999,-13.219881 a 535.15142,535.15142 0 0 1 68.3773,4.386784 l 38.7953,-301.126923 a 838.76712,838.76712 0 0 0 -107.1727,-6.87536 z"
       style="fill:#f768a1;stroke-width:1.61433315;stroke-linecap:round"
       id="path1776"
       inkscape:connector-curvature="0" />
    <path
       d="M 2489.8875,-8.8342072 2528.6759,-309.96345"
       style="fill:#f768a1;stroke-width:1.61433315;stroke-linecap:round"
       id="path1778"
       inkscape:connector-curvature="0" />
    <path
       d="m 2489.8772,-8.833097 a 535.15142,535.15142 0 0 1 67.2586,13.0873515 L 2634.087,-289.44836 a 838.76712,838.76712 0 0 0 -105.4145,-20.51166 z"
       style="fill:#f768a1;stroke-width:1.61433315;stroke-linecap:round"
       id="path1780"
       inkscape:connector-curvature="0" />
    <path
       d="M 2557.1335,4.2588083 2634.0939,-289.45059"
       style="fill:#f768a1;stroke-width:1.61433315;stroke-linecap:round"
       id="path1782"
       inkscape:connector-curvature="0" />
    <path
       d="m 2557.1358,4.2542545 a 535.15142,535.15142 0 0 1 65.0328,21.5733695 l 113.8481,-281.462244 a 838.76712,838.76712 0 0 0 -101.9297,-33.81374 z"
       style="fill:#f768a1;stroke-width:1.61433315;stroke-linecap:round"
       id="path1784"
       inkscape:connector-curvature="0" />
    <path
       d="M 2622.1652,25.821887 2736.019,-255.62781"
       style="fill:#f768a1;stroke-width:1.61433315;stroke-linecap:round"
       id="path1786"
       inkscape:connector-curvature="0" />
    <path
       d="m 2622.1686,25.827624 a 535.15142,535.15142 0 0 1 61.744,29.706521 l 148.8798,-264.607935 a 838.76712,838.76712 0 0 0 -96.7757,-46.56083 z"
       style="fill:#f768a1;stroke-width:1.61433315;stroke-linecap:round"
       id="path1788"
       inkscape:connector-curvature="0" />
    <path
       d="M 2683.9092,55.535296 2832.7958,-209.07722"
       style="fill:#f768a1;stroke-width:1.61433315;stroke-linecap:round"
       id="path1790"
       inkscape:connector-curvature="0" />
    <path
       d="m 2683.9126,55.534145 a 535.15142,535.15142 0 0 1 57.4429,37.352328 l 181.4686,-243.415853 a 838.76712,838.76712 0 0 0 -90.0317,-58.54441 z"
       style="fill:#f768a1;stroke-width:1.61433315;stroke-linecap:round"
       id="path1792"
       inkscape:connector-curvature="0" />
    <path
       d="M 2741.3498,92.885361 2922.8264,-150.52938"
       style="fill:#f768a1;stroke-width:1.61433315;stroke-linecap:round"
       id="path1794"
       inkscape:connector-curvature="0" />
    <path
       d="m 2741.3555,92.886473 a 535.15142,535.15142 0 0 1 52.1988,44.386327 L 3004.637,-80.962571 a 838.76712,838.76712 0 0 0 -81.8129,-69.566809 z"
       style="fill:#f768a1;stroke-width:1.61433315;stroke-linecap:round"
       id="path1796"
       inkscape:connector-curvature="0" />
    <path
       d="M 3004.6382,-80.954552 2793.5508,137.2785"
       style="fill:none;stroke-width:1.61433315;stroke-linecap:round"
       id="path1798"
       inkscape:connector-curvature="0" />
    <path
       d="m 2421.4999,-13.219881 a 535.15142,535.15142 0 0 1 68.3773,4.386784 l 29.4303,-228.433603 a 765.47317,765.47317 0 0 0 -97.8076,-6.27483 z"
       style="fill:#c51b8a;stroke-width:1.61433315;stroke-linecap:round"
       id="path1986"
       inkscape:connector-curvature="0" />
    <path
       d="M 2489.8875,-8.8342072 2519.3041,-237.26094"
       style="fill:#c51b8a;stroke-width:1.61433315;stroke-linecap:round"
       id="path1988"
       inkscape:connector-curvature="0" />
    <path
       d="m 2489.8772,-8.833097 a 535.15142,535.15142 0 0 1 67.2586,13.0873515 l 58.3744,-222.8014045 a 765.47317,765.47317 0 0 0 -96.2027,-18.71955 z"
       style="fill:#c51b8a;stroke-width:1.61433315;stroke-linecap:round"
       id="path1990"
       inkscape:connector-curvature="0" />
    <path
       d="M 2557.1335,4.2588083 2615.5102,-218.54026"
       style="fill:#c51b8a;stroke-width:1.61433315;stroke-linecap:round"
       id="path1992"
       inkscape:connector-curvature="0" />
    <path
       d="m 2557.1358,4.2542545 a 535.15142,535.15142 0 0 1 65.0328,21.5733695 l 86.3652,-213.515274 a 765.47317,765.47317 0 0 0 -93.0236,-30.8595 z"
       style="fill:#c51b8a;stroke-width:1.61433315;stroke-linecap:round"
       id="path1994"
       inkscape:connector-curvature="0" />
    <path
       d="m 2622.1652,25.821887 86.3663,-213.507247"
       style="fill:#c51b8a;stroke-width:1.61433315;stroke-linecap:round"
       id="path1996"
       inkscape:connector-curvature="0" />
    <path
       d="m 2622.1686,25.827624 a 535.15142,535.15142 0 0 1 61.744,29.706521 l 112.9395,-200.730405 a 765.47317,765.47317 0 0 0 -88.3183,-42.49139 z"
       style="fill:#c51b8a;stroke-width:1.61433315;stroke-linecap:round"
       id="path1998"
       inkscape:connector-curvature="0" />
    <path
       d="M 2683.9092,55.535296 2796.8498,-145.18709"
       style="fill:#c51b8a;stroke-width:1.61433315;stroke-linecap:round"
       id="path2000"
       inkscape:connector-curvature="0" />
    <path
       d="m 2683.9126,55.534145 a 535.15142,535.15142 0 0 1 57.4429,37.352328 l 137.661,-184.654533 a 765.47317,765.47317 0 0 0 -82.1644,-53.4282 z"
       style="fill:#c51b8a;stroke-width:1.61433315;stroke-linecap:round"
       id="path2002"
       inkscape:connector-curvature="0" />
    <path
       d="M 2741.3498,92.885361 2879.0154,-91.764645"
       style="fill:#c51b8a;stroke-width:1.61433315;stroke-linecap:round"
       id="path2004"
       inkscape:connector-curvature="0" />
    <path
       d="m 2741.3555,92.886473 a 535.15142,535.15142 0 0 1 52.1988,44.386327 l 160.127,-165.551411 a 765.47317,765.47317 0 0 0 -74.6648,-63.489449 z"
       style="fill:#c51b8a;stroke-width:1.61433315;stroke-linecap:round"
       id="path2006"
       inkscape:connector-curvature="0" />
    <path
       d="M 2953.6813,-28.285506 2793.5508,137.2785"
       style="fill:none;stroke-width:1.61433315;stroke-linecap:round"
       id="path2008"
       inkscape:connector-curvature="0" />
    <path
       d="m 2409.6282,-191.14415 2.9565,177.995057"
       style="fill:none;stroke-width:1.61433315;stroke-linecap:round"
       id="path2194"
       inkscape:connector-curvature="0" />
    <path
       d="m 2421.4999,-13.219881 a 535.15142,535.15142 0 0 1 68.3773,4.386784 l 22.7479,-176.561303 a 713.17201,713.17201 0 0 0 -91.1253,-5.84565 z"
       style="fill:#7a0177;stroke-width:1.61433315;stroke-linecap:round"
       id="path2196"
       inkscape:connector-curvature="0" />
    <path
       d="M 2489.8875,-8.8342072 2512.6263,-185.40236"
       style="fill:#7a0177;stroke-width:1.61433315;stroke-linecap:round"
       id="path2198"
       inkscape:connector-curvature="0" />
    <path
       d="m 2489.8772,-8.833097 a 535.15142,535.15142 0 0 1 67.2586,13.0873515 l 45.1193,-172.2075245 a 713.17201,713.17201 0 0 0 -89.63,-17.44113 z"
       style="fill:#7a0177;stroke-width:1.61433315;stroke-linecap:round"
       id="path2200"
       inkscape:connector-curvature="0" />
    <path
       d="M 2557.1335,4.2588083 2602.2573,-167.96017"
       style="fill:#7a0177;stroke-width:1.61433315;stroke-linecap:round"
       id="path2202"
       inkscape:connector-curvature="0" />
    <path
       d="m 2557.1358,4.2542545 a 535.15142,535.15142 0 0 1 65.0328,21.5733695 l 66.7541,-165.030934 a 713.17201,713.17201 0 0 0 -86.6676,-28.74996 z"
       style="fill:#7a0177;stroke-width:1.61433315;stroke-linecap:round"
       id="path2204"
       inkscape:connector-curvature="0" />
    <path
       d="m 2622.1652,25.821887 66.7552,-165.016097"
       style="fill:#7a0177;stroke-width:1.61433315;stroke-linecap:round"
       id="path2206"
       inkscape:connector-curvature="0" />
    <path
       d="m 2622.1686,25.827624 a 535.15142,535.15142 0 0 1 61.744,29.706521 l 87.2933,-155.148906 a 713.17201,713.17201 0 0 0 -82.2832,-39.588549 z"
       style="fill:#7a0177;stroke-width:1.61433315;stroke-linecap:round"
       id="path2208"
       inkscape:connector-curvature="0" />
    <path
       d="m 2683.9092,55.535296 87.3024,-155.153493"
       style="fill:#7a0177;stroke-width:1.61433315;stroke-linecap:round"
       id="path2210"
       inkscape:connector-curvature="0" />
    <path
       d="m 2683.9126,55.534145 a 535.15142,535.15142 0 0 1 57.4429,37.352328 l 106.4009,-142.723596 a 713.17201,713.17201 0 0 0 -76.5505,-49.777638 z"
       style="fill:#7a0177;stroke-width:1.61433315;stroke-linecap:round"
       id="path2212"
       inkscape:connector-curvature="0" />
    <path
       d="M 2741.3498,92.885361 2847.7496,-49.837088"
       style="fill:#7a0177;stroke-width:1.61433315;stroke-linecap:round"
       id="path2214"
       inkscape:connector-curvature="0" />
    <path
       d="m 2741.3555,92.886473 a 535.15142,535.15142 0 0 1 52.1988,44.386327 L 2917.3187,9.3145793 a 713.17201,713.17201 0 0 0 -69.5623,-59.1517023 z"
       style="fill:#7a0177;stroke-width:1.61433315;stroke-linecap:round"
       id="path2216"
       inkscape:connector-curvature="0" />
    <path
       d="M 2917.313,9.3157461 2793.5508,137.2785"
       style="fill:none;stroke-width:1.61433315;stroke-linecap:round"
       id="path2218"
       inkscape:connector-curvature="0" />
  </g>
  <defs
     id="defs2220">
    <pattern
       id="hline-sparse"
       width="10"
       height="10"
       patternTransform="rotate(0 0 0)"
       patternUnits="userSpaceOnUse">
      <line
         x1="0"
         y1="0"
         x2="10"
         y2="0"
         style="stroke:black;stroke-width:2"
         id="line2223" />
    </pattern>
    <pattern
       id="checker"
       width="10"
       height="10"
       patternTransform="rotate(45 0 0)"
       patternUnits="userSpaceOnUse">
      <line
         x1="0"
         y1="0"
         x2="10"
         y2="0"
         style="stroke:black;stroke-width:5"
         id="line2226" />
      <line
         x1="0"
         y1="0"
         x2="0"
         y2="10"
         style="stroke:black;stroke-width:4"
         id="line2228" />
    </pattern>
    <pattern
       id="vline"
       width="10"
       height="10"
       patternTransform="rotate(0 0 0)"
       patternUnits="userSpaceOnUse">
      <line
         x1="0"
         y1="0"
         x2="0"
         y2="10"
         style="stroke:black;stroke-width:5"
         id="line2231" />
    </pattern>
    <pattern
       id="vline-sparse"
       width="10"
       height="10"
       patternTransform="rotate(0 0 0)"
       patternUnits="userSpaceOnUse">
      <line
         x1="0"
         y1="0"
         x2="0"
         y2="10"
         style="stroke:black;stroke-width:2"
         id="line2234" />
    </pattern>
    <pattern
       id="pattern2236"
       width="10"
       height="10"
       patternTransform="rotate(45 0 0)"
       patternUnits="userSpaceOnUse">
      <line
         x1="0"
         y1="0"
         x2="10"
         y2="0"
         style="stroke:black;stroke-width:2"
         id="line2238" />
      <line
         x1="0"
         y1="0"
         x2="0"
         y2="10"
         style="stroke:black;stroke-width:2"
         id="line2240" />
    </pattern>
    <pattern
       id="hline"
       width="10"
       height="10"
       patternTransform="rotate(0 0 0)"
       patternUnits="userSpaceOnUse">
      <line
         x1="0"
         y1="0"
         x2="10"
         y2="0"
         style="stroke:black;stroke-width:5"
         id="line2243" />
    </pattern>
  </defs>
</svg>
