<?xml version="1.0" encoding="UTF-8" standalone="no"?>
<svg
   xmlns:dc="http://purl.org/dc/elements/1.1/"
   xmlns:cc="http://creativecommons.org/ns#"
   xmlns:rdf="http://www.w3.org/1999/02/22-rdf-syntax-ns#"
   xmlns:svg="http://www.w3.org/2000/svg"
   xmlns="http://www.w3.org/2000/svg"
   xmlns:sodipodi="http://sodipodi.sourceforge.net/DTD/sodipodi-0.dtd"
   xmlns:inkscape="http://www.inkscape.org/namespaces/inkscape"
   width="3000px"
   height="3000px"
   version="1.1"
   id="svg2"
   inkscape:version="0.92.4 (5da689c313, 2019-01-14)"
   sodipodi:docname="Final-Wedge-01.svg">
  <metadata
     id="metadata2247">
    <rdf:RDF>
      <cc:Work
         rdf:about="">
        <dc:format>image/svg+xml</dc:format>
        <dc:type
           rdf:resource="http://purl.org/dc/dcmitype/StillImage" />
        <dc:title></dc:title>
      </cc:Work>
    </rdf:RDF>
  </metadata>
  <sodipodi:namedview
     pagecolor="#ffffff"
     bordercolor="#666666"
     borderopacity="1"
     objecttolerance="10"
     gridtolerance="10"
     guidetolerance="10"
     inkscape:pageopacity="0"
     inkscape:pageshadow="2"
     inkscape:window-width="1920"
     inkscape:window-height="1000"
     id="namedview2245"
     showgrid="false"
     inkscape:zoom="0.11125147"
     inkscape:cx="1222.0751"
     inkscape:cy="1477.0097"
     inkscape:window-x="0"
     inkscape:window-y="52"
     inkscape:window-maximized="1"
     inkscape:current-layer="svg2" />
  <g
     id="g2632"
     transform="rotate(-45,4216.2391,3852.5369)">
    <path
       inkscape:connector-curvature="0"
       id="path9"
       style="fill:#f6eff7;stroke:#000000;stroke-width:8.07166576;stroke-linecap:round"
       d="m 3860.7172,-804.14833 a 1955.361,1955.361 0 0 1 143.2087,159.86786 l 155.8932,-124.92872 a 2155.1347,2155.1347 0 0 0 -157.8406,-176.20048 z" />
    <path
       inkscape:connector-curvature="0"
       id="path11"
       style="fill:#d0d1e6;stroke:#000000;stroke-width:8.07166576;stroke-linecap:round"
       d="m 4003.9259,-644.28047 a 1955.361,1955.361 0 0 1 124.8248,174.59902 l 168.645,-107.09033 a 2155.1347,2155.1347 0 0 0 -137.5766,-192.43741 z" />
    <path
       inkscape:connector-curvature="0"
       id="path13"
       style="fill:#a6bddb;stroke:#000000;stroke-width:8.07166576;stroke-linecap:round"
       d="m 4128.7507,-469.68145 a 1955.361,1955.361 0 0 1 104.9353,187.22866 l 179.3682,-87.96098 a 2155.1347,2155.1347 0 0 0 -115.6585,-206.35801 z" />
    <path
       inkscape:connector-curvature="0"
       id="path15"
       style="fill:#67a9cf;stroke:#000000;stroke-width:8.07166576;stroke-linecap:round"
       d="m 4233.686,-282.45279 a 1955.361,1955.361 0 0 1 83.7842,197.601552 l 187.9272,-67.772372 a 2155.1347,2155.1347 0 0 0 -92.3432,-217.79016 z" />
    <path
       inkscape:connector-curvature="0"
       id="path17"
       style="fill:#3690c0;stroke:#000000;stroke-width:8.07166576;stroke-linecap:round"
       d="m 4317.4702,-84.851238 a 1955.361,1955.361 0 0 1 61.6231,205.594268 l 194.2226,-46.767408 a 2155.1347,2155.1347 0 0 0 -67.9185,-226.599232 z" />
    <path
       inkscape:connector-curvature="0"
       id="path19"
       style="fill:#02818a;stroke:#000000;stroke-width:8.07166576;stroke-linecap:round"
       d="m 4379.0933,120.74303 a 1955.361,1955.361 0 0 1 54.0639,425.1904 l 199.7465,-3.32745 A 2155.1347,2155.1347 0 0 0 4573.3159,73.975622 Z" />
    <path
       inkscape:connector-curvature="0"
       id="path22"
       style="fill:#f6eff7;stroke:#000000;stroke-width:8.07166576;stroke-linecap:round"
       d="m 3787.9462,-731.37735 a 1852.4472,1852.4472 0 0 1 135.6714,151.45385 l 80.3083,-64.35697 a 1955.361,1955.361 0 0 0 -143.2087,-159.86786 z" />
    <path
       inkscape:connector-curvature="0"
       id="path24"
       style="fill:#d0d1e6;stroke:#000000;stroke-width:8.07166576;stroke-linecap:round"
       d="m 3923.6176,-579.9235 a 1852.4472,1852.4472 0 0 1 118.2543,165.40996 l 86.8788,-55.16791 a 1955.361,1955.361 0 0 0 -124.8248,-174.59902 z" />
    <path
       inkscape:connector-curvature="0"
       id="path26"
       style="fill:#a6bddb;stroke:#000000;stroke-width:8.07166576;stroke-linecap:round"
       d="m 4041.8719,-414.51354 a 1852.4472,1852.4472 0 0 1 99.4137,177.37399 l 92.4004,-45.31324 a 1955.361,1955.361 0 0 0 -104.9353,-187.22866 z" />
    <path
       inkscape:connector-curvature="0"
       id="path28"
       style="fill:#67a9cf;stroke:#000000;stroke-width:8.07166576;stroke-linecap:round"
       d="m 4141.2856,-237.13955 a 1852.4472,1852.4472 0 0 1 79.3746,187.201285 l 96.81,-34.912973 A 1955.361,1955.361 0 0 0 4233.686,-282.45279 Z" />
    <path
       inkscape:connector-curvature="0"
       id="path30"
       style="fill:#3690c0;stroke:#000000;stroke-width:8.07166576;stroke-linecap:round"
       d="m 4220.6602,-49.938265 a 1852.4472,1852.4472 0 0 1 58.3778,194.773975 l 100.0553,-24.09268 a 1955.361,1955.361 0 0 0 -61.6231,-205.594268 z" />
    <path
       inkscape:connector-curvature="0"
       id="path32"
       style="fill:#02818a;stroke:#000000;stroke-width:8.07166576;stroke-linecap:round"
       d="m 4279.038,144.83571 a 1852.4472,1852.4472 0 0 1 36.6811,199.99865 l 102.0918,-12.98117 a 1955.361,1955.361 0 0 0 -38.7176,-211.11016 z" />
    <path
       inkscape:connector-curvature="0"
       id="path34"
       style="fill:#016450;stroke:#000000;stroke-width:8.07166576;stroke-linecap:round"
       d="m 4315.7191,344.83436 a 1852.4472,1852.4472 0 0 1 14.5394,202.81251 l 102.8987,-1.71344 a 1955.361,1955.361 0 0 0 -15.3463,-214.08024 z" />
    <path
       inkscape:connector-curvature="0"
       id="path37"
       style="fill:#3690c0;stroke-width:1.61433315;stroke-linecap:round"
       d="m 4096.461,-1039.8921 a 2288.753,2288.753 0 0 1 670.0434,1580.2733 l 43.0952,-0.71806 A 2331.8557,2331.8557 0 0 0 4126.9392,-1070.3704 Z" />
    <path
       inkscape:connector-curvature="0"
       id="path40"
       style="fill:#000000;stroke-width:1.61433315;stroke-linecap:round"
       d="m 2847.7449,208.82398 a 522.80177,522.80177 0 0 1 153.0531,360.96927 l 10.2895,-0.17125 A 533.09315,533.09315 0 0 0 2855.022,201.54688 Z" />
    <path
       inkscape:connector-curvature="0"
       id="path43"
       style="fill:#000000;stroke-width:1.61433315;stroke-linecap:round"
       d="m 3294.5588,-237.98996 a 1154.6921,1154.6921 0 0 1 338.0409,797.25961 l 10.2908,-0.17232 a 1164.9835,1164.9835 0 0 0 -341.0546,-804.36439 z" />
    <path
       inkscape:connector-curvature="0"
       id="path46"
       style="fill:#3690c0;stroke-width:1.61433315;stroke-linecap:round"
       d="m 2735.8237,320.7452 a 364.52126,364.52126 0 0 1 106.7147,251.68373 l 41.1593,-0.68604 A 405.68675,405.68675 0 0 0 2764.9321,291.63681 Z" />
    <path
       inkscape:connector-curvature="0"
       id="path49"
       style="fill:#000000;stroke-width:1.61433315;stroke-linecap:round"
       d="m 3687.5222,-630.95334 a 1710.4263,1710.4263 0 0 1 500.7352,1180.96538 l 10.2896,-0.17117 A 1720.7177,1720.7177 0 0 0 3694.7993,-638.23046 Z" />
    <path
       inkscape:connector-curvature="0"
       id="path52"
       style="fill:#000000;stroke-width:1.61433315;stroke-linecap:round"
       d="m 3386.2503,-329.68142 a 1284.3634,1284.3634 0 0 1 376.0029,886.79025 l 10.2895,-0.17124 a 1294.6548,1294.6548 0 0 0 -379.0153,-893.89611 z" />
    <path
       d="m 3933.4882,-876.91937 a 2058.2747,2058.2747 0 0 1 602.569,1421.13829 l 96.8465,-1.61294 A 2155.1347,2155.1347 0 0 0 4001.9785,-945.40967 Z"
       style="fill:#3690c0;stroke:#000000;stroke-width:8.07166576;stroke-linecap:round"
       id="path54"
       inkscape:connector-curvature="0" />
    <path
       d="m 3933.4882,-876.91937 a 2058.2747,2058.2747 0 0 1 150.7462,168.28193 l 75.5847,-60.57175 a 2155.1347,2155.1347 0 0 0 -157.8406,-176.20048 z"
       style="fill:#3690c0;fill-opacity:0.67000002;stroke-width:1.61433315;stroke-linecap:round"
       id="path56"
       inkscape:connector-curvature="0" />
    <path
       d="m 4084.2344,-708.63744 a 2058.2747,2058.2747 0 0 1 131.394,183.78929 l 81.7673,-51.92363 a 2155.1347,2155.1347 0 0 0 -137.5766,-192.43741 z"
       style="fill:#3690c0;fill-opacity:0.67000002;stroke-width:1.61433315;stroke-linecap:round"
       id="path58"
       inkscape:connector-curvature="0" />
    <path
       d="m 4215.6284,-524.84815 a 2058.2747,2058.2747 0 0 1 110.4602,197.08211 l 86.9656,-42.64773 a 2155.1347,2155.1347 0 0 0 -115.6585,-206.35801 z"
       style="fill:#3690c0;fill-opacity:0.67000002;stroke-width:1.61433315;stroke-linecap:round"
       id="path60"
       inkscape:connector-curvature="0" />
    <path
       d="m 4326.0886,-327.76604 a 2058.2747,2058.2747 0 0 1 88.1916,208.00183 l 91.1172,-32.8594 a 2155.1347,2155.1347 0 0 0 -92.3432,-217.79016 z"
       style="fill:#3690c0;fill-opacity:0.67000002;stroke-width:1.61433315;stroke-linecap:round"
       id="path62"
       inkscape:connector-curvature="0" />
    <path
       d="m 4414.2802,-119.76421 a 2058.2747,2058.2747 0 0 1 64.8661,216.414625 l 94.1696,-22.674793 a 2155.1347,2155.1347 0 0 0 -67.9185,-226.599232 z"
       style="fill:#3690c0;fill-opacity:0.67000002;stroke-width:1.61433315;stroke-linecap:round"
       id="path64"
       inkscape:connector-curvature="0" />
    <path
       d="m 4479.1463,96.650415 a 2058.2747,2058.2747 0 0 1 40.7563,222.221525 l 96.0862,-12.21986 A 2155.1347,2155.1347 0 0 0 4573.3159,73.975622 Z"
       style="fill:#3690c0;fill-opacity:0.67000002;stroke-width:1.61433315;stroke-linecap:round"
       id="path66"
       inkscape:connector-curvature="0" />
    <path
       d="m 4519.9026,318.87194 a 2058.2747,2058.2747 0 0 1 16.1546,225.34698 l 96.8465,-1.61294 a 2155.1347,2155.1347 0 0 0 -16.9149,-235.9539 z"
       style="fill:#3690c0;fill-opacity:0.67000002;stroke-width:1.61433315;stroke-linecap:round"
       id="path68"
       inkscape:connector-curvature="0" />
    <path
       d="m 3933.4882,-876.91937 a 2058.2747,2058.2747 0 0 1 602.569,1421.13829 l 96.8465,-1.61294 A 2155.1347,2155.1347 0 0 0 4001.9785,-945.40967 Z"
       style="fill:none;stroke:#000000;stroke-width:8.07166576;stroke-linecap:round"
       id="path70"
       inkscape:connector-curvature="0" />
    <path
       d="m 3613.2958,-556.72693 a 1605.4543,1605.4543 0 0 1 117.5819,131.25946 l 80.3084,-64.35697 a 1708.368,1708.368 0 0 0 -125.1193,-139.67353 z"
       style="fill:#ffffcc;stroke-width:1.61433315;stroke-linecap:round"
       id="path538"
       inkscape:connector-curvature="0" />
    <path
       d="m 3730.8777,-425.46747 a 1605.4543,1605.4543 0 0 1 102.4879,143.35602 l 86.8765,-55.16786 a 1708.368,1708.368 0 0 0 -109.056,-152.54513 z"
       style="fill:#ffffcc;stroke-width:1.61433315;stroke-linecap:round"
       id="path540"
       inkscape:connector-curvature="0" />
    <path
       d="m 3833.3656,-282.11145 a 1605.4543,1605.4543 0 0 1 86.1585,153.7243 l 92.4004,-45.31326 a 1708.368,1708.368 0 0 0 -91.6824,-163.5789 z"
       style="fill:#ffffcc;stroke-width:1.61433315;stroke-linecap:round"
       id="path542"
       inkscape:connector-curvature="0" />
    <path
       d="m 3919.5241,-128.38715 a 1605.4543,1605.4543 0 0 1 68.7906,162.241045 l 96.8099,-34.9129516 A 1708.368,1708.368 0 0 0 4011.9245,-173.70041 Z"
       style="fill:#ffeda0;stroke-width:1.61433315;stroke-linecap:round"
       id="path544"
       inkscape:connector-curvature="0" />
    <path
       d="m 3988.3147,33.853895 a 1605.4543,1605.4543 0 0 1 50.5938,168.803595 l 100.0553,-24.09255 A 1708.368,1708.368 0 0 0 4085.1246,-1.0590566 Z"
       style="fill:#ffeda0;stroke-width:1.61433315;stroke-linecap:round"
       id="path546"
       inkscape:connector-curvature="0" />
    <path
       d="m 4038.9085,202.65749 a 1605.4543,1605.4543 0 0 1 31.7898,173.33198 l 102.0918,-12.98117 a 1708.368,1708.368 0 0 0 -33.8263,-184.44336 z"
       style="fill:#ffffcc;stroke-width:1.61433315;stroke-linecap:round"
       id="path548"
       inkscape:connector-curvature="0" />
    <path
       d="m 4070.6983,375.98947 a 1605.4543,1605.4543 0 0 1 12.6011,175.77254 l 102.8999,-1.71458 A 1708.368,1708.368 0 0 0 4172.7901,363.0083 Z"
       style="fill:#ffffcc;stroke-width:1.61433315;stroke-linecap:round"
       id="path550"
       inkscape:connector-curvature="0" />
    <path
       d="m 3540.5248,-483.95594 a 1502.5405,1502.5405 0 0 1 110.0446,122.84542 l 80.3083,-64.35695 a 1605.4543,1605.4543 0 0 0 -117.5819,-131.25946 z"
       style="fill:#ffffcc;stroke-width:1.61433315;stroke-linecap:round"
       id="path644"
       inkscape:connector-curvature="0" />
    <path
       d="m 3650.5694,-361.11052 a 1502.5405,1502.5405 0 0 1 95.9173,134.1669 l 86.8789,-55.16783 a 1605.4543,1605.4543 0 0 0 -102.4879,-143.35602 z"
       style="fill:#ffffcc;stroke-width:1.61433315;stroke-linecap:round"
       id="path646"
       inkscape:connector-curvature="0" />
    <path
       d="m 3746.4867,-226.94362 a 1502.5405,1502.5405 0 0 1 80.6348,143.869638 l 92.4026,-45.313168 a 1605.4543,1605.4543 0 0 0 -86.1585,-153.7243 z"
       style="fill:#ffffcc;stroke-width:1.61433315;stroke-linecap:round"
       id="path648"
       inkscape:connector-curvature="0" />
    <path
       d="m 3827.1215,-83.073982 a 1502.5405,1502.5405 0 0 1 64.3821,151.841975 l 96.8111,-34.914098 a 1605.4543,1605.4543 0 0 0 -68.7906,-162.241045 z"
       style="fill:#ffffcc;stroke-width:1.61433315;stroke-linecap:round"
       id="path650"
       inkscape:connector-curvature="0" />
    <path
       d="m 3891.5036,68.767993 a 1502.5405,1502.5405 0 0 1 47.352,157.982197 l 100.0529,-24.0927 A 1605.4543,1605.4543 0 0 0 3988.3147,33.853895 Z"
       style="fill:#ffeda0;stroke-width:1.61433315;stroke-linecap:round"
       id="path652"
       inkscape:connector-curvature="0" />
    <path
       d="m 3938.8556,226.75019 a 1502.5405,1502.5405 0 0 1 29.751,162.22052 l 102.0917,-12.98124 a 1605.4543,1605.4543 0 0 0 -31.7898,-173.33198 z"
       style="fill:#ffffcc;stroke-width:1.61433315;stroke-linecap:round"
       id="path654"
       inkscape:connector-curvature="0" />
    <path
       d="m 3968.6066,388.97071 a 1502.5405,1502.5405 0 0 1 11.794,164.50467 l 102.8988,-1.71337 a 1605.4543,1605.4543 0 0 0 -12.6011,-175.77254 z"
       style="fill:#ffffcc;stroke-width:1.61433315;stroke-linecap:round"
       id="path656"
       inkscape:connector-curvature="0" />
    <path
       d="m 3467.7538,-411.18494 a 1399.6268,1399.6268 0 0 1 102.5072,114.43134 l 80.3084,-64.35692 a 1502.5405,1502.5405 0 0 0 -110.0446,-122.84542 z"
       style="fill:#fed976;stroke-width:1.61433315;stroke-linecap:round"
       id="path750"
       inkscape:connector-curvature="0" />
    <path
       d="m 3570.261,-296.7536 a 1399.6268,1399.6268 0 0 1 89.348,124.97666 l 86.8777,-55.16668 a 1502.5405,1502.5405 0 0 0 -95.9173,-134.1669 z"
       style="fill:#fd8d3c;stroke-width:1.61433315;stroke-linecap:round"
       id="path752"
       inkscape:connector-curvature="0" />
    <path
       d="m 3659.609,-171.77694 a 1399.6268,1399.6268 0 0 1 75.1122,134.016185 l 92.4003,-45.313227 a 1502.5405,1502.5405 0 0 0 -80.6348,-143.869638 z"
       style="fill:#fed976;stroke-width:1.61433315;stroke-linecap:round"
       id="path754"
       inkscape:connector-curvature="0" />
    <path
       d="m 3734.7212,-37.760755 a 1399.6268,1399.6268 0 0 1 59.9724,141.441705 l 96.81,-34.912957 a 1502.5405,1502.5405 0 0 0 -64.3821,-151.841975 z"
       style="fill:#ffeda0;stroke-width:1.61433315;stroke-linecap:round"
       id="path756"
       inkscape:connector-curvature="0" />
    <path
       d="m 3794.6936,103.68095 a 1399.6268,1399.6268 0 0 1 44.109,147.16185 l 100.053,-24.09261 a 1502.5405,1502.5405 0 0 0 -47.352,-157.982197 z"
       style="fill:#feb24c;stroke-width:1.61433315;stroke-linecap:round"
       id="path758"
       inkscape:connector-curvature="0" />
    <path
       d="m 3838.8026,250.8428 a 1399.6268,1399.6268 0 0 1 27.7134,151.11021 l 102.0906,-12.9823 a 1502.5405,1502.5405 0 0 0 -29.751,-162.22052 z"
       style="fill:#feb24c;stroke-width:1.61433315;stroke-linecap:round"
       id="path760"
       inkscape:connector-curvature="0" />
    <path
       d="m 3866.516,401.95301 a 1399.6268,1399.6268 0 0 1 10.9848,153.23695 l 102.8998,-1.71458 a 1502.5405,1502.5405 0 0 0 -11.794,-164.50467 z"
       style="fill:#ffffcc;stroke-width:1.61433315;stroke-linecap:round"
       id="path762"
       inkscape:connector-curvature="0" />
    <path
       d="m 3394.9828,-338.41394 a 1296.7131,1296.7131 0 0 1 94.9698,106.01734 l 80.3084,-64.357 a 1399.6268,1399.6268 0 0 0 -102.5072,-114.43134 z"
       style="fill:#fd8d3c;stroke-width:1.61433315;stroke-linecap:round"
       id="path856"
       inkscape:connector-curvature="0" />
    <path
       d="m 3489.9526,-232.3966 a 1296.7131,1296.7131 0 0 1 82.7786,115.78635 l 86.8778,-55.16669 a 1399.6268,1399.6268 0 0 0 -89.348,-124.97666 z"
       style="fill:#fed976;stroke-width:1.61433315;stroke-linecap:round"
       id="path858"
       inkscape:connector-curvature="0" />
    <path
       d="m 3572.7312,-116.61025 a 1296.7131,1296.7131 0 0 1 69.5896,124.1627287 l 92.4004,-45.3132337 A 1399.6268,1399.6268 0 0 0 3659.609,-171.77694 Z"
       style="fill:#fc4e2a;stroke-width:1.61433315;stroke-linecap:round"
       id="path860"
       inkscape:connector-curvature="0" />
    <path
       d="m 3642.3208,7.5524787 a 1296.7131,1296.7131 0 0 1 55.5617,131.0403013 l 96.8111,-34.91183 a 1399.6268,1399.6268 0 0 0 -59.9724,-141.441705 z"
       style="fill:#fc4e2a;stroke-width:1.61433315;stroke-linecap:round"
       id="path862"
       inkscape:connector-curvature="0" />
    <path
       d="m 3697.8825,138.59278 a 1296.7131,1296.7131 0 0 1 40.8648,136.34265 l 100.0553,-24.09263 a 1399.6268,1399.6268 0 0 0 -44.109,-147.16185 z"
       style="fill:#fed976;stroke-width:1.61433315;stroke-linecap:round"
       id="path864"
       inkscape:connector-curvature="0" />
    <path
       d="m 3738.7473,274.93543 a 1296.7131,1296.7131 0 0 1 25.677,139.99882 L 3866.516,401.95301 A 1399.6268,1399.6268 0 0 0 3838.8026,250.8428 Z"
       style="fill:#fd8d3c;stroke-width:1.61433315;stroke-linecap:round"
       id="path866"
       inkscape:connector-curvature="0" />
    <path
       d="m 3764.4243,414.93425 a 1296.7131,1296.7131 0 0 1 10.1777,141.96908 l 102.8988,-1.71337 A 1399.6268,1399.6268 0 0 0 3866.516,401.95301 Z"
       style="fill:#b10026;stroke-width:1.61433315;stroke-linecap:round"
       id="path868"
       inkscape:connector-curvature="0" />
    <path
       d="m 2856.4774,200.09146 a 535.15142,535.15142 0 0 1 39.1936,43.75274 l 481.8502,-386.14174 a 1152.6338,1152.6338 0 0 0 -84.4178,-94.237 z"
       style="fill:#feebe2;stroke-width:1.61433315;stroke-linecap:round"
       id="path962"
       inkscape:connector-curvature="0" />
    <path
       d="m 2895.6653,243.84536 481.8524,-386.14864"
       style="fill:#feebe2;stroke-width:1.61433315;stroke-linecap:round"
       id="path964"
       inkscape:connector-curvature="0" />
    <path
       d="m 2895.671,243.8442 a 535.15142,535.15142 0 0 1 34.163,47.78573 l 521.2686,-331.004748 a 1152.6338,1152.6338 0 0 0 -73.5814,-102.922722 z"
       style="fill:#feebe2;stroke-width:1.61433315;stroke-linecap:round"
       id="path966"
       inkscape:connector-curvature="0" />
    <path
       d="M 2929.8419,291.62876 3451.1106,-39.373645"
       style="fill:#feebe2;stroke-width:1.61433315;stroke-linecap:round"
       id="path968"
       inkscape:connector-curvature="0" />
    <path
       d="m 2929.834,291.62993 a 535.15142,535.15142 0 0 1 28.7191,51.24106 L 3512.9597,70.991645 a 1152.6338,1152.6338 0 0 0 -61.8571,-110.366463 z"
       style="fill:#feebe2;stroke-width:1.61433315;stroke-linecap:round"
       id="path970"
       inkscape:connector-curvature="0" />
    <path
       d="M 2958.5508,342.871 3512.9574,70.987113"
       style="fill:#feebe2;stroke-width:1.61433315;stroke-linecap:round"
       id="path972"
       inkscape:connector-curvature="0" />
    <path
       d="m 2958.5531,342.87099 a 535.15142,535.15142 0 0 1 22.9306,54.07999 L 3562.347,187.47209 A 1152.6338,1152.6338 0 0 0 3512.9597,70.991645 Z"
       style="fill:#feebe2;stroke-width:1.61433315;stroke-linecap:round"
       id="path974"
       inkscape:connector-curvature="0" />
    <path
       d="M 2981.4837,396.94409 3562.3503,187.47776"
       style="fill:#feebe2;stroke-width:1.61433315;stroke-linecap:round"
       id="path976"
       inkscape:connector-curvature="0" />
    <path
       d="m 2981.4837,396.95098 a 535.15142,535.15142 0 0 1 16.8646,56.26936 L 3598.6731,308.66461 A 1152.6338,1152.6338 0 0 0 3562.347,187.47209 Z"
       style="fill:#feebe2;stroke-width:1.61433315;stroke-linecap:round"
       id="path978"
       inkscape:connector-curvature="0" />
    <path
       d="M 2998.3552,453.22038 3598.6731,308.66006"
       style="fill:#feebe2;stroke-width:1.61433315;stroke-linecap:round"
       id="path980"
       inkscape:connector-curvature="0" />
    <path
       d="m 2998.3483,453.22034 a 535.15142,535.15142 0 0 1 10.5966,57.77735 l 612.5503,-77.88951 a 1152.6338,1152.6338 0 0 0 -22.8221,-124.44357 z"
       style="fill:#feebe2;stroke-width:1.61433315;stroke-linecap:round"
       id="path982"
       inkscape:connector-curvature="0" />
    <path
       d="m 3008.9483,511.00335 612.5549,-77.89633"
       style="fill:#feebe2;stroke-width:1.61433315;stroke-linecap:round"
       id="path984"
       inkscape:connector-curvature="0" />
    <path
       d="m 3008.9449,510.99769 a 535.15142,535.15142 0 0 1 4.1996,58.59006 l 617.3971,-10.28499 a 1152.6338,1152.6338 0 0 0 -9.0464,-126.19458 z"
       style="fill:#feebe2;stroke-width:1.61433315;stroke-linecap:round"
       id="path986"
       inkscape:connector-curvature="0" />
    <path
       d="m 3630.5439,559.31191 -617.3948,10.27355"
       style="fill:none;stroke-width:1.61433315;stroke-linecap:round"
       id="path988"
       inkscape:connector-curvature="0" />
    <path
       d="m 2856.4774,200.09146 a 535.15142,535.15142 0 0 1 39.1936,43.75274 l 481.8502,-386.14174 a 1152.6338,1152.6338 0 0 0 -84.4178,-94.237 z"
       style="fill:#fcc5c0;stroke-width:1.61433315;stroke-linecap:round"
       id="path1172"
       inkscape:connector-curvature="0" />
    <path
       d="m 2895.6653,243.84536 481.8524,-386.14864"
       style="fill:#fcc5c0;stroke-width:1.61433315;stroke-linecap:round"
       id="path1174"
       inkscape:connector-curvature="0" />
    <path
       d="m 2895.671,243.8442 a 535.15142,535.15142 0 0 1 34.163,47.78573 l 521.2686,-331.004748 a 1152.6338,1152.6338 0 0 0 -73.5814,-102.922722 z"
       style="fill:#fcc5c0;stroke-width:1.61433315;stroke-linecap:round"
       id="path1176"
       inkscape:connector-curvature="0" />
    <path
       d="M 2929.8419,291.62876 3451.1106,-39.373645"
       style="fill:#fcc5c0;stroke-width:1.61433315;stroke-linecap:round"
       id="path1178"
       inkscape:connector-curvature="0" />
    <path
       d="m 2929.834,291.62993 a 535.15142,535.15142 0 0 1 28.7191,51.24106 L 3512.9597,70.991645 a 1152.6338,1152.6338 0 0 0 -61.8571,-110.366463 z"
       style="fill:#fcc5c0;stroke-width:1.61433315;stroke-linecap:round"
       id="path1180"
       inkscape:connector-curvature="0" />
    <path
       d="M 2958.5508,342.871 3512.9574,70.987113"
       style="fill:#fcc5c0;stroke-width:1.61433315;stroke-linecap:round"
       id="path1182"
       inkscape:connector-curvature="0" />
    <path
       d="m 2958.5531,342.87099 a 535.15142,535.15142 0 0 1 22.9306,54.07999 L 3562.347,187.47209 A 1152.6338,1152.6338 0 0 0 3512.9597,70.991645 Z"
       style="fill:#fcc5c0;stroke-width:1.61433315;stroke-linecap:round"
       id="path1184"
       inkscape:connector-curvature="0" />
    <path
       d="M 2981.4837,396.94409 3562.3503,187.47776"
       style="fill:#fcc5c0;stroke-width:1.61433315;stroke-linecap:round"
       id="path1186"
       inkscape:connector-curvature="0" />
    <path
       d="m 2981.4837,396.95098 a 535.15142,535.15142 0 0 1 16.8646,56.26936 L 3598.6731,308.66461 A 1152.6338,1152.6338 0 0 0 3562.347,187.47209 Z"
       style="fill:#fcc5c0;stroke-width:1.61433315;stroke-linecap:round"
       id="path1188"
       inkscape:connector-curvature="0" />
    <path
       d="M 2998.3552,453.22038 3598.6731,308.66006"
       style="fill:#fcc5c0;stroke-width:1.61433315;stroke-linecap:round"
       id="path1190"
       inkscape:connector-curvature="0" />
    <path
       d="m 2998.3483,453.22034 a 535.15142,535.15142 0 0 1 10.5966,57.77735 l 612.5503,-77.88951 a 1152.6338,1152.6338 0 0 0 -22.8221,-124.44357 z"
       style="fill:#fcc5c0;stroke-width:1.61433315;stroke-linecap:round"
       id="path1192"
       inkscape:connector-curvature="0" />
    <path
       d="m 3008.9483,511.00335 612.5549,-77.89633"
       style="fill:#fcc5c0;stroke-width:1.61433315;stroke-linecap:round"
       id="path1194"
       inkscape:connector-curvature="0" />
    <path
       d="m 3008.9449,510.99769 a 535.15142,535.15142 0 0 1 4.1996,58.59006 l 617.3971,-10.28499 a 1152.6338,1152.6338 0 0 0 -9.0464,-126.19458 z"
       style="fill:#fcc5c0;stroke-width:1.61433315;stroke-linecap:round"
       id="path1196"
       inkscape:connector-curvature="0" />
    <path
       d="m 3630.5439,559.31191 -617.3948,10.27355"
       style="fill:none;stroke-width:1.61433315;stroke-linecap:round"
       id="path1198"
       inkscape:connector-curvature="0" />
    <path
       d="m 2856.4774,200.09146 a 535.15142,535.15142 0 0 1 39.1936,43.75274 l 481.8502,-386.14174 a 1152.6338,1152.6338 0 0 0 -84.4178,-94.237 z"
       style="fill:#fa9fb5;stroke-width:1.61433315;stroke-linecap:round"
       id="path1382"
       inkscape:connector-curvature="0" />
    <path
       d="m 2895.6653,243.84536 481.8524,-386.14864"
       style="fill:#fa9fb5;stroke-width:1.61433315;stroke-linecap:round"
       id="path1384"
       inkscape:connector-curvature="0" />
    <path
       d="m 2895.671,243.8442 a 535.15142,535.15142 0 0 1 34.163,47.78573 l 521.2686,-331.004748 a 1152.6338,1152.6338 0 0 0 -73.5814,-102.922722 z"
       style="fill:#fa9fb5;stroke-width:1.61433315;stroke-linecap:round"
       id="path1386"
       inkscape:connector-curvature="0" />
    <path
       d="M 2929.8419,291.62876 3451.1106,-39.373645"
       style="fill:#fa9fb5;stroke-width:1.61433315;stroke-linecap:round"
       id="path1388"
       inkscape:connector-curvature="0" />
    <path
       d="m 2929.834,291.62993 a 535.15142,535.15142 0 0 1 28.7191,51.24106 L 3512.9597,70.991645 a 1152.6338,1152.6338 0 0 0 -61.8571,-110.366463 z"
       style="fill:#fa9fb5;stroke-width:1.61433315;stroke-linecap:round"
       id="path1390"
       inkscape:connector-curvature="0" />
    <path
       d="M 2958.5508,342.871 3512.9574,70.987113"
       style="fill:#fa9fb5;stroke-width:1.61433315;stroke-linecap:round"
       id="path1392"
       inkscape:connector-curvature="0" />
    <path
       d="m 2958.5531,342.87099 a 535.15142,535.15142 0 0 1 22.9306,54.07999 L 3562.347,187.47209 A 1152.6338,1152.6338 0 0 0 3512.9597,70.991645 Z"
       style="fill:#fa9fb5;stroke-width:1.61433315;stroke-linecap:round"
       id="path1394"
       inkscape:connector-curvature="0" />
    <path
       d="M 2981.4837,396.94409 3562.3503,187.47776"
       style="fill:#fa9fb5;stroke-width:1.61433315;stroke-linecap:round"
       id="path1396"
       inkscape:connector-curvature="0" />
    <path
       d="m 2981.4837,396.95098 a 535.15142,535.15142 0 0 1 16.8646,56.26936 L 3598.6731,308.66461 A 1152.6338,1152.6338 0 0 0 3562.347,187.47209 Z"
       style="fill:#fa9fb5;stroke-width:1.61433315;stroke-linecap:round"
       id="path1398"
       inkscape:connector-curvature="0" />
    <path
       d="M 2998.3552,453.22038 3598.6731,308.66006"
       style="fill:#fa9fb5;stroke-width:1.61433315;stroke-linecap:round"
       id="path1400"
       inkscape:connector-curvature="0" />
    <path
       d="m 2998.3483,453.22034 a 535.15142,535.15142 0 0 1 10.5966,57.77735 l 612.5503,-77.88951 a 1152.6338,1152.6338 0 0 0 -22.8221,-124.44357 z"
       style="fill:#fa9fb5;stroke-width:1.61433315;stroke-linecap:round"
       id="path1402"
       inkscape:connector-curvature="0" />
    <path
       d="m 3008.9483,511.00335 612.5549,-77.89633"
       style="fill:#fa9fb5;stroke-width:1.61433315;stroke-linecap:round"
       id="path1404"
       inkscape:connector-curvature="0" />
    <path
       d="m 3008.9449,510.99769 a 535.15142,535.15142 0 0 1 4.1996,58.59006 l 617.3971,-10.28499 a 1152.6338,1152.6338 0 0 0 -9.0464,-126.19458 z"
       style="fill:#fa9fb5;stroke-width:1.61433315;stroke-linecap:round"
       id="path1406"
       inkscape:connector-curvature="0" />
    <path
       d="m 3630.5439,559.31191 -617.3948,10.27355"
       style="fill:none;stroke-width:1.61433315;stroke-linecap:round"
       id="path1408"
       inkscape:connector-curvature="0" />
    <path
       d="m 2856.4774,200.09146 a 535.15142,535.15142 0 0 1 39.1936,43.75274 l 481.8502,-386.14174 a 1152.6338,1152.6338 0 0 0 -84.4178,-94.237 z"
       style="fill:#f768a1;stroke-width:1.61433315;stroke-linecap:round"
       id="path1592"
       inkscape:connector-curvature="0" />
    <path
       d="m 2895.6653,243.84536 481.8524,-386.14864"
       style="fill:#f768a1;stroke-width:1.61433315;stroke-linecap:round"
       id="path1594"
       inkscape:connector-curvature="0" />
    <path
       d="m 2895.671,243.8442 a 535.15142,535.15142 0 0 1 34.163,47.78573 l 521.2686,-331.004748 a 1152.6338,1152.6338 0 0 0 -73.5814,-102.922722 z"
       style="fill:#f768a1;stroke-width:1.61433315;stroke-linecap:round"
       id="path1596"
       inkscape:connector-curvature="0" />
    <path
       d="M 2929.8419,291.62876 3451.1106,-39.373645"
       style="fill:#f768a1;stroke-width:1.61433315;stroke-linecap:round"
       id="path1598"
       inkscape:connector-curvature="0" />
    <path
       d="m 2929.834,291.62993 a 535.15142,535.15142 0 0 1 28.7191,51.24106 L 3512.9597,70.991645 a 1152.6338,1152.6338 0 0 0 -61.8571,-110.366463 z"
       style="fill:#f768a1;stroke-width:1.61433315;stroke-linecap:round"
       id="path1600"
       inkscape:connector-curvature="0" />
    <path
       d="M 2958.5508,342.871 3512.9574,70.987113"
       style="fill:#f768a1;stroke-width:1.61433315;stroke-linecap:round"
       id="path1602"
       inkscape:connector-curvature="0" />
    <path
       d="m 2958.5531,342.87099 a 535.15142,535.15142 0 0 1 22.9306,54.07999 L 3562.347,187.47209 A 1152.6338,1152.6338 0 0 0 3512.9597,70.991645 Z"
       style="fill:#f768a1;stroke-width:1.61433315;stroke-linecap:round"
       id="path1604"
       inkscape:connector-curvature="0" />
    <path
       d="M 2981.4837,396.94409 3562.3503,187.47776"
       style="fill:#f768a1;stroke-width:1.61433315;stroke-linecap:round"
       id="path1606"
       inkscape:connector-curvature="0" />
    <path
       d="m 2981.4837,396.95098 a 535.15142,535.15142 0 0 1 16.8646,56.26936 L 3598.6731,308.66461 A 1152.6338,1152.6338 0 0 0 3562.347,187.47209 Z"
       style="fill:#f768a1;stroke-width:1.61433315;stroke-linecap:round"
       id="path1608"
       inkscape:connector-curvature="0" />
    <path
       d="M 2998.3552,453.22038 3598.6731,308.66006"
       style="fill:#f768a1;stroke-width:1.61433315;stroke-linecap:round"
       id="path1610"
       inkscape:connector-curvature="0" />
    <path
       d="m 2998.3483,453.22034 a 535.15142,535.15142 0 0 1 10.5966,57.77735 l 612.5503,-77.88951 a 1152.6338,1152.6338 0 0 0 -22.8221,-124.44357 z"
       style="fill:#f768a1;stroke-width:1.61433315;stroke-linecap:round"
       id="path1612"
       inkscape:connector-curvature="0" />
    <path
       d="m 3008.9483,511.00335 612.5549,-77.89633"
       style="fill:#f768a1;stroke-width:1.61433315;stroke-linecap:round"
       id="path1614"
       inkscape:connector-curvature="0" />
    <path
       d="m 3008.9449,510.99769 a 535.15142,535.15142 0 0 1 4.1996,58.59006 l 617.3971,-10.28499 a 1152.6338,1152.6338 0 0 0 -9.0464,-126.19458 z"
       style="fill:#f768a1;stroke-width:1.61433315;stroke-linecap:round"
       id="path1616"
       inkscape:connector-curvature="0" />
    <path
       d="m 3630.5439,559.31191 -617.3948,10.27355"
       style="fill:none;stroke-width:1.61433315;stroke-linecap:round"
       id="path1618"
       inkscape:connector-curvature="0" />
    <path
       d="m 2856.4774,200.09146 a 535.15142,535.15142 0 0 1 39.1936,43.75274 l 481.8502,-386.14174 a 1152.6338,1152.6338 0 0 0 -84.4178,-94.237 z"
       style="fill:#c51b8a;stroke-width:1.61433315;stroke-linecap:round"
       id="path1802"
       inkscape:connector-curvature="0" />
    <path
       d="m 2895.6653,243.84536 481.8524,-386.14864"
       style="fill:#c51b8a;stroke-width:1.61433315;stroke-linecap:round"
       id="path1804"
       inkscape:connector-curvature="0" />
    <path
       d="m 2895.671,243.8442 a 535.15142,535.15142 0 0 1 34.163,47.78573 l 521.2686,-331.004748 a 1152.6338,1152.6338 0 0 0 -73.5814,-102.922722 z"
       style="fill:#c51b8a;stroke-width:1.61433315;stroke-linecap:round"
       id="path1806"
       inkscape:connector-curvature="0" />
    <path
       d="M 2929.8419,291.62876 3451.1106,-39.373645"
       style="fill:#c51b8a;stroke-width:1.61433315;stroke-linecap:round"
       id="path1808"
       inkscape:connector-curvature="0" />
    <path
       d="m 2929.834,291.62993 a 535.15142,535.15142 0 0 1 28.7191,51.24106 L 3512.9597,70.991645 a 1152.6338,1152.6338 0 0 0 -61.8571,-110.366463 z"
       style="fill:#c51b8a;stroke-width:1.61433315;stroke-linecap:round"
       id="path1810"
       inkscape:connector-curvature="0" />
    <path
       d="M 2958.5508,342.871 3512.9574,70.987113"
       style="fill:#c51b8a;stroke-width:1.61433315;stroke-linecap:round"
       id="path1812"
       inkscape:connector-curvature="0" />
    <path
       d="m 2958.5531,342.87099 a 535.15142,535.15142 0 0 1 22.9306,54.07999 L 3562.347,187.47209 A 1152.6338,1152.6338 0 0 0 3512.9597,70.991645 Z"
       style="fill:#c51b8a;stroke-width:1.61433315;stroke-linecap:round"
       id="path1814"
       inkscape:connector-curvature="0" />
    <path
       d="M 2981.4837,396.94409 3562.3503,187.47776"
       style="fill:#c51b8a;stroke-width:1.61433315;stroke-linecap:round"
       id="path1816"
       inkscape:connector-curvature="0" />
    <path
       d="m 2981.4837,396.95098 a 535.15142,535.15142 0 0 1 16.8646,56.26936 L 3598.6731,308.66461 A 1152.6338,1152.6338 0 0 0 3562.347,187.47209 Z"
       style="fill:#c51b8a;stroke-width:1.61433315;stroke-linecap:round"
       id="path1818"
       inkscape:connector-curvature="0" />
    <path
       d="M 2998.3552,453.22038 3598.6731,308.66006"
       style="fill:#c51b8a;stroke-width:1.61433315;stroke-linecap:round"
       id="path1820"
       inkscape:connector-curvature="0" />
    <path
       d="m 2998.3483,453.22034 a 535.15142,535.15142 0 0 1 10.5966,57.77735 l 612.5503,-77.88951 a 1152.6338,1152.6338 0 0 0 -22.8221,-124.44357 z"
       style="fill:#c51b8a;stroke-width:1.61433315;stroke-linecap:round"
       id="path1822"
       inkscape:connector-curvature="0" />
    <path
       d="m 3008.9483,511.00335 612.5549,-77.89633"
       style="fill:#c51b8a;stroke-width:1.61433315;stroke-linecap:round"
       id="path1824"
       inkscape:connector-curvature="0" />
    <path
       d="m 3008.9449,510.99769 a 535.15142,535.15142 0 0 1 4.1996,58.59006 l 617.3971,-10.28499 a 1152.6338,1152.6338 0 0 0 -9.0464,-126.19458 z"
       style="fill:#c51b8a;stroke-width:1.61433315;stroke-linecap:round"
       id="path1826"
       inkscape:connector-curvature="0" />
    <path
       d="m 3630.5439,559.31191 -617.3948,10.27355"
       style="fill:none;stroke-width:1.61433315;stroke-linecap:round"
       id="path1828"
       inkscape:connector-curvature="0" />
    <path
       d="m 2856.4774,200.09146 a 535.15142,535.15142 0 0 1 39.1936,43.75274 l 76.2777,-61.12537 a 632.89929,632.89929 0 0 0 -46.3531,-51.74555 z"
       style="fill:#7a0177;stroke-width:1.61433315;stroke-linecap:round"
       id="path2012"
       inkscape:connector-curvature="0" />
    <path
       d="m 2895.6653,243.84536 76.2868,-61.12769"
       style="fill:#7a0177;stroke-width:1.61433315;stroke-linecap:round"
       id="path2014"
       inkscape:connector-curvature="0" />
    <path
       d="m 2895.671,243.8442 a 535.15142,535.15142 0 0 1 34.163,47.78573 l 82.516,-52.39853 a 632.89929,632.89929 0 0 0 -40.4013,-56.51257 z"
       style="fill:#7a0177;stroke-width:1.61433315;stroke-linecap:round"
       id="path2016"
       inkscape:connector-curvature="0" />
    <path
       d="M 2929.8419,291.62876 3012.35,239.23367"
       style="fill:#7a0177;stroke-width:1.61433315;stroke-linecap:round"
       id="path2018"
       inkscape:connector-curvature="0" />
    <path
       d="m 2929.834,291.62993 a 535.15142,535.15142 0 0 1 28.7191,51.24106 l 87.7624,-43.03819 A 632.89929,632.89929 0 0 0 3012.35,239.2314 Z"
       style="fill:#7a0177;stroke-width:1.61433315;stroke-linecap:round"
       id="path2020"
       inkscape:connector-curvature="0" />
    <path
       d="m 2958.5508,342.871 87.759,-43.03476"
       style="fill:#7a0177;stroke-width:1.61433315;stroke-linecap:round"
       id="path2022"
       inkscape:connector-curvature="0" />
    <path
       d="m 2958.5531,342.87099 a 535.15142,535.15142 0 0 1 22.9306,54.07999 l 91.9506,-33.16074 a 632.89929,632.89929 0 0 0 -27.1188,-63.95744 z"
       style="fill:#7a0177;stroke-width:1.61433315;stroke-linecap:round"
       id="path2024"
       inkscape:connector-curvature="0" />
    <path
       d="m 2981.4837,396.94409 91.9483,-33.16073"
       style="fill:#7a0177;stroke-width:1.61433315;stroke-linecap:round"
       id="path2026"
       inkscape:connector-curvature="0" />
    <path
       d="m 2981.4837,396.95098 a 535.15142,535.15142 0 0 1 16.8646,56.26936 l 95.0315,-22.88374 a 632.89929,632.89929 0 0 0 -19.9455,-66.54636 z"
       style="fill:#7a0177;stroke-width:1.61433315;stroke-linecap:round"
       id="path2028"
       inkscape:connector-curvature="0" />
    <path
       d="m 2998.3552,453.22038 95.0303,-22.88721"
       style="fill:#7a0177;stroke-width:1.61433315;stroke-linecap:round"
       id="path2030"
       inkscape:connector-curvature="0" />
    <path
       d="m 2998.3483,453.22034 a 535.15142,535.15142 0 0 1 10.5966,57.77735 l 96.9663,-12.33059 a 632.89929,632.89929 0 0 0 -12.5314,-68.3305 z"
       style="fill:#7a0177;stroke-width:1.61433315;stroke-linecap:round"
       id="path2032"
       inkscape:connector-curvature="0" />
    <path
       d="m 3008.9483,511.00335 96.971,-12.33962"
       style="fill:#7a0177;stroke-width:1.61433315;stroke-linecap:round"
       id="path2034"
       inkscape:connector-curvature="0" />
    <path
       d="m 3008.9449,510.99769 a 535.15142,535.15142 0 0 1 4.1996,58.59006 l 97.7346,-1.6289 a 632.89929,632.89929 0 0 0 -4.9679,-69.29175 z"
       style="fill:#7a0177;stroke-width:1.61433315;stroke-linecap:round"
       id="path2036"
       inkscape:connector-curvature="0" />
    <path
       d="m 3110.8848,567.96451 -97.7357,1.62095"
       style="fill:none;stroke-width:1.61433315;stroke-linecap:round"
       id="path2038"
       inkscape:connector-curvature="0" />
  </g>
  <defs
     id="defs2220">
    <pattern
       id="hline-sparse"
       width="10"
       height="10"
       patternTransform="rotate(0 0 0)"
       patternUnits="userSpaceOnUse">
      <line
         x1="0"
         y1="0"
         x2="10"
         y2="0"
         style="stroke:black;stroke-width:2"
         id="line2223" />
    </pattern>
    <pattern
       id="checker"
       width="10"
       height="10"
       patternTransform="rotate(45 0 0)"
       patternUnits="userSpaceOnUse">
      <line
         x1="0"
         y1="0"
         x2="10"
         y2="0"
         style="stroke:black;stroke-width:5"
         id="line2226" />
      <line
         x1="0"
         y1="0"
         x2="0"
         y2="10"
         style="stroke:black;stroke-width:4"
         id="line2228" />
    </pattern>
    <pattern
       id="vline"
       width="10"
       height="10"
       patternTransform="rotate(0 0 0)"
       patternUnits="userSpaceOnUse">
      <line
         x1="0"
         y1="0"
         x2="0"
         y2="10"
         style="stroke:black;stroke-width:5"
         id="line2231" />
    </pattern>
    <pattern
       id="vline-sparse"
       width="10"
       height="10"
       patternTransform="rotate(0 0 0)"
       patternUnits="userSpaceOnUse">
      <line
         x1="0"
         y1="0"
         x2="0"
         y2="10"
         style="stroke:black;stroke-width:2"
         id="line2234" />
    </pattern>
    <pattern
       id="pattern2236"
       width="10"
       height="10"
       patternTransform="rotate(45 0 0)"
       patternUnits="userSpaceOnUse">
      <line
         x1="0"
         y1="0"
         x2="10"
         y2="0"
         style="stroke:black;stroke-width:2"
         id="line2238" />
      <line
         x1="0"
         y1="0"
         x2="0"
         y2="10"
         style="stroke:black;stroke-width:2"
         id="line2240" />
    </pattern>
    <pattern
       id="hline"
       width="10"
       height="10"
       patternTransform="rotate(0 0 0)"
       patternUnits="userSpaceOnUse">
      <line
         x1="0"
         y1="0"
         x2="10"
         y2="0"
         style="stroke:black;stroke-width:5"
         id="line2243" />
    </pattern>
  </defs>
</svg>
