<?xml version="1.0" encoding="UTF-8" standalone="no"?>
<svg
   xmlns:dc="http://purl.org/dc/elements/1.1/"
   xmlns:cc="http://creativecommons.org/ns#"
   xmlns:rdf="http://www.w3.org/1999/02/22-rdf-syntax-ns#"
   xmlns:svg="http://www.w3.org/2000/svg"
   xmlns="http://www.w3.org/2000/svg"
   xmlns:sodipodi="http://sodipodi.sourceforge.net/DTD/sodipodi-0.dtd"
   xmlns:inkscape="http://www.inkscape.org/namespaces/inkscape"
   width="3000px"
   height="3000px"
   version="1.1"
   id="svg2"
   inkscape:version="0.92.4 (5da689c313, 2019-01-14)"
   sodipodi:docname="Final-Wedge-03.svg">
  <metadata
     id="metadata2247">
    <rdf:RDF>
      <cc:Work
         rdf:about="">
        <dc:format>image/svg+xml</dc:format>
        <dc:type
           rdf:resource="http://purl.org/dc/dcmitype/StillImage" />
        <dc:title></dc:title>
      </cc:Work>
    </rdf:RDF>
  </metadata>
  <sodipodi:namedview
     pagecolor="#ffffff"
     bordercolor="#666666"
     borderopacity="1"
     objecttolerance="10"
     gridtolerance="10"
     guidetolerance="10"
     inkscape:pageopacity="0"
     inkscape:pageshadow="2"
     inkscape:window-width="1920"
     inkscape:window-height="1000"
     id="namedview2245"
     showgrid="false"
     inkscape:zoom="0.11125147"
     inkscape:cx="1222.0751"
     inkscape:cy="1477.0097"
     inkscape:window-x="0"
     inkscape:window-y="52"
     inkscape:window-maximized="1"
     inkscape:current-layer="svg2" />
  <g
     id="g3344"
     transform="rotate(-45,1281.0954,3328.0838)">
    <path
       inkscape:connector-curvature="0"
       id="path154"
       style="fill:#edf8fb;stroke:#000000;stroke-width:8.07166576;stroke-linecap:round"
       d="m 3804.1486,2017.7176 a 1955.361,1955.361 0 0 1 -187.9991,165.3335 l 122.0544,158.1533 A 2155.1347,2155.1347 0 0 0 3945.41,2158.979 Z" />
    <path
       inkscape:connector-curvature="0"
       id="path156"
       style="fill:#ccece6;stroke:#000000;stroke-width:8.07166576;stroke-linecap:round"
       d="m 3616.1495,2183.0511 a 1955.361,1955.361 0 0 1 -431.3477,252.2408 l 77.9854,183.924 a 2155.1347,2155.1347 0 0 0 475.4167,-278.0115 z" />
    <path
       inkscape:connector-curvature="0"
       id="path158"
       style="fill:#66c2a4;stroke:#000000;stroke-width:8.07166576;stroke-linecap:round"
       d="m 3184.8018,2435.2919 a 1955.361,1955.361 0 0 1 -730.7349,154.8658 l 3.3274,199.7465 a 2155.1347,2155.1347 0 0 0 805.3929,-170.6883 z" />
    <path
       inkscape:connector-curvature="0"
       id="path162"
       style="fill:#edf8fb;stroke:#000000;stroke-width:8.07166576;stroke-linecap:round"
       d="m 3731.3777,1944.9467 a 1852.4472,1852.4472 0 0 1 -178.1046,156.6306 l 62.8764,81.4738 a 1955.361,1955.361 0 0 0 187.9991,-165.3335 z" />
    <path
       inkscape:connector-curvature="0"
       id="path164"
       style="fill:#ccece6;stroke:#000000;stroke-width:8.07166576;stroke-linecap:round"
       d="m 3553.2731,2101.5773 a 1852.4472,1852.4472 0 0 1 -196.6564,132.5904 l 51.9499,88.8388 a 1955.361,1955.361 0 0 0 207.5829,-139.9554 z" />
    <path
       inkscape:connector-curvature="0"
       id="path166"
       style="fill:#99d8c9;stroke:#000000;stroke-width:8.07166576;stroke-linecap:round"
       d="m 3356.6167,2234.1677 a 1852.4472,1852.4472 0 0 1 -211.9879,106.3758 l 40.173,94.7484 a 1955.361,1955.361 0 0 0 223.7648,-112.2854 z" />
    <path
       inkscape:connector-curvature="0"
       id="path168"
       style="fill:#66c2a4;stroke:#000000;stroke-width:8.07166576;stroke-linecap:round"
       d="m 3144.6288,2340.5435 a 1852.4472,1852.4472 0 0 1 -223.8413,78.418 l 27.7374,99.1044 a 1955.361,1955.361 0 0 0 236.2769,-82.774 z" />
    <path
       inkscape:connector-curvature="0"
       id="path170"
       style="fill:#2ca25f;stroke:#000000;stroke-width:8.07166576;stroke-linecap:round"
       d="m 2920.7875,2418.9615 a 1852.4472,1852.4472 0 0 1 -232.0271,49.1738 l 14.8476,101.8372 a 1955.361,1955.361 0 0 0 244.9169,-51.9066 z" />
    <path
       inkscape:connector-curvature="0"
       id="path172"
       style="fill:#006d2c;stroke:#000000;stroke-width:8.07166576;stroke-linecap:round"
       d="m 2688.7604,2468.1353 a 1852.4472,1852.4472 0 0 1 -236.407,19.1237 l 1.7135,102.8987 a 1955.361,1955.361 0 0 0 249.5411,-20.1852 z" />
    <path
       inkscape:connector-curvature="0"
       id="path176"
       style="fill:#66c2a4;stroke-width:1.61433315;stroke-linecap:round"
       d="m 4039.8925,2253.4614 a 2288.753,2288.753 0 0 1 -1580.2734,670.0434 l 0.718,43.0953 a 2331.8557,2331.8557 0 0 0 1610.0336,-682.6604 z" />
    <path
       inkscape:connector-curvature="0"
       id="path180"
       style="fill:#000000;stroke-width:1.61433315;stroke-linecap:round"
       d="m 2791.1763,1004.7453 a 522.80177,522.80177 0 0 1 -360.9692,153.0531 l 0.1712,10.2896 a 533.09315,533.09315 0 0 0 368.0751,-156.0656 z" />
    <path
       inkscape:connector-curvature="0"
       id="path184"
       style="fill:#000000;stroke-width:1.61433315;stroke-linecap:round"
       d="m 3237.9903,1451.5593 a 1154.6921,1154.6921 0 0 1 -797.2597,338.0409 l 0.1724,10.2908 a 1164.9835,1164.9835 0 0 0 804.3644,-341.0547 z" />
    <path
       inkscape:connector-curvature="0"
       id="path188"
       style="fill:#66c2a4;stroke-width:1.61433315;stroke-linecap:round"
       d="m 2679.2551,892.8241 a 364.52126,364.52126 0 0 1 -251.6837,106.71484 l 0.686,41.15926 a 405.68675,405.68675 0 0 0 280.1061,-118.7657 z" />
    <path
       inkscape:connector-curvature="0"
       id="path192"
       style="fill:#000000;stroke-width:1.61433315;stroke-linecap:round"
       d="m 3630.9537,1844.5226 a 1710.4263,1710.4263 0 0 1 -1180.9655,500.7353 l 0.1712,10.2896 a 1720.7177,1720.7177 0 0 0 1188.0714,-503.7477 z" />
    <path
       inkscape:connector-curvature="0"
       id="path196"
       style="fill:#000000;stroke-width:1.61433315;stroke-linecap:round"
       d="m 3329.6818,1543.2508 a 1284.3634,1284.3634 0 0 1 -886.7903,376.0029 l 0.1712,10.2895 a 1294.6548,1294.6548 0 0 0 893.8961,-379.0154 z" />
    <path
       d="m 3876.9197,2090.4887 a 2058.2747,2058.2747 0 0 1 -1421.1384,602.5689 l 1.613,96.8466 A 2155.1347,2155.1347 0 0 0 3945.41,2158.979 Z"
       style="fill:#66c2a4;stroke:#000000;stroke-width:8.07166576;stroke-linecap:round"
       id="path198"
       inkscape:connector-curvature="0" />
    <path
       d="m 3876.9197,2090.4887 a 2058.2747,2058.2747 0 0 1 -197.8938,174.034 l 59.178,76.6817 A 2155.1347,2155.1347 0 0 0 3945.41,2158.979 Z"
       style="fill:#66c2a4;fill-opacity:0.67000002;stroke-width:1.61433315;stroke-linecap:round"
       id="path200"
       inkscape:connector-curvature="0" />
    <path
       d="m 3679.0259,2264.5227 a 2058.2747,2058.2747 0 0 1 -218.5081,147.3238 l 48.894,83.6119 a 2155.1347,2155.1347 0 0 0 228.7921,-154.254 z"
       style="fill:#66c2a4;fill-opacity:0.67000002;stroke-width:1.61433315;stroke-linecap:round"
       id="path202"
       inkscape:connector-curvature="0" />
    <path
       d="m 3460.5178,2411.8465 a 2058.2747,2058.2747 0 0 1 -235.5418,118.1949 l 37.8112,89.1745 a 2155.1347,2155.1347 0 0 0 246.6246,-123.7575 z"
       style="fill:#66c2a4;fill-opacity:0.67000002;stroke-width:1.61433315;stroke-linecap:round"
       id="path204"
       inkscape:connector-curvature="0" />
    <path
       d="m 3224.976,2530.0414 a 2058.2747,2058.2747 0 0 1 -248.7125,87.1301 l 26.1063,93.2747 a 2155.1347,2155.1347 0 0 0 260.4174,-91.2303 z"
       style="fill:#66c2a4;fill-opacity:0.67000002;stroke-width:1.61433315;stroke-linecap:round"
       id="path206"
       inkscape:connector-curvature="0" />
    <path
       d="m 2976.2635,2617.1715 a 2058.2747,2058.2747 0 0 1 -257.8068,54.6371 l 13.9743,95.8476 a 2155.1347,2155.1347 0 0 0 269.9388,-57.21 z"
       style="fill:#66c2a4;fill-opacity:0.67000002;stroke-width:1.61433315;stroke-linecap:round"
       id="path208"
       inkscape:connector-curvature="0" />
    <path
       d="m 2718.4567,2671.8086 a 2058.2747,2058.2747 0 0 1 -262.6754,21.249 l 1.613,96.8466 a 2155.1347,2155.1347 0 0 0 275.0367,-22.248 z"
       style="fill:#66c2a4;fill-opacity:0.67000002;stroke-width:1.61433315;stroke-linecap:round"
       id="path210"
       inkscape:connector-curvature="0" />
    <path
       d="m 3876.9197,2090.4887 a 2058.2747,2058.2747 0 0 1 -1421.1384,602.5689 l 1.613,96.8466 A 2155.1347,2155.1347 0 0 0 3945.41,2158.979 Z"
       style="fill:none;stroke:#000000;stroke-width:8.07166576;stroke-linecap:round"
       id="path212"
       inkscape:connector-curvature="0" />
    <path
       d="m 3556.7272,1770.2962 a 1605.4543,1605.4543 0 0 1 -154.3578,135.7468 l 62.8776,81.4727 a 1708.368,1708.368 0 0 0 164.2513,-144.4484 z"
       style="fill:#ffffcc;stroke-width:1.61433315;stroke-linecap:round"
       id="path570"
       inkscape:connector-curvature="0" />
    <path
       d="m 3402.3694,1906.043 a 1605.4543,1605.4543 0 0 1 -170.4359,114.9108 l 51.951,88.84 a 1708.368,1708.368 0 0 0 181.3625,-122.2781 z"
       style="fill:#ffffcc;stroke-width:1.61433315;stroke-linecap:round"
       id="path572"
       inkscape:connector-curvature="0" />
    <path
       d="m 3231.9335,2020.9538 a 1605.4543,1605.4543 0 0 1 -183.722,92.1938 l 40.173,94.7483 a 1708.368,1708.368 0 0 0 195.5,-98.1021 z"
       style="fill:#ffffcc;stroke-width:1.61433315;stroke-linecap:round"
       id="path574"
       inkscape:connector-curvature="0" />
    <path
       d="m 3048.2115,2113.1476 a 1605.4543,1605.4543 0 0 1 -193.9955,67.9618 l 27.7375,99.1043 a 1708.368,1708.368 0 0 0 206.431,-72.3178 z"
       style="fill:#ffffcc;stroke-width:1.61433315;stroke-linecap:round"
       id="path576"
       inkscape:connector-curvature="0" />
    <path
       d="m 2854.216,2181.1094 a 1605.4543,1605.4543 0 0 1 -201.0899,42.617 l 14.8475,101.8371 a 1708.368,1708.368 0 0 0 213.9799,-45.3498 z"
       style="fill:#ffffcc;stroke-width:1.61433315;stroke-linecap:round"
       id="path578"
       inkscape:connector-curvature="0" />
    <path
       d="m 2653.1261,2223.7264 a 1605.4543,1605.4543 0 0 1 -204.8878,16.5735 l 1.7146,102.8999 a 1708.368,1708.368 0 0 0 218.0207,-17.6363 z"
       style="fill:#ffffcc;stroke-width:1.61433315;stroke-linecap:round"
       id="path580"
       inkscape:connector-curvature="0" />
    <path
       d="m 3483.9563,1697.5253 a 1502.5405,1502.5405 0 0 1 -144.4622,127.045 l 62.8753,81.4727 a 1605.4543,1605.4543 0 0 0 154.3578,-135.7468 z"
       style="fill:#ffffcc;stroke-width:1.61433315;stroke-linecap:round"
       id="path676"
       inkscape:connector-curvature="0" />
    <path
       d="m 3339.4941,1824.5703 a 1502.5405,1502.5405 0 0 1 -159.5117,107.5458 l 51.9511,88.8377 a 1605.4543,1605.4543 0 0 0 170.4359,-114.9108 z"
       style="fill:#ffffcc;stroke-width:1.61433315;stroke-linecap:round"
       id="path678"
       inkscape:connector-curvature="0" />
    <path
       d="m 3179.9824,1932.1161 a 1502.5405,1502.5405 0 0 1 -171.945,86.2819 l 40.1741,94.7496 a 1605.4543,1605.4543 0 0 0 183.722,-92.1938 z"
       style="fill:#ffffcc;stroke-width:1.61433315;stroke-linecap:round"
       id="path680"
       inkscape:connector-curvature="0" />
    <path
       d="m 3008.0374,2018.398 a 1502.5405,1502.5405 0 0 1 -181.56,63.6058 l 27.7386,99.1056 a 1605.4543,1605.4543 0 0 0 193.9955,-67.9618 z"
       style="fill:#ffffcc;stroke-width:1.61433315;stroke-linecap:round"
       id="path682"
       inkscape:connector-curvature="0" />
    <path
       d="m 2826.4774,2082.0038 a 1502.5405,1502.5405 0 0 1 -188.199,39.8854 l 14.8477,101.8372 a 1605.4543,1605.4543 0 0 0 201.0899,-42.617 z"
       style="fill:#ffffcc;stroke-width:1.61433315;stroke-linecap:round"
       id="path684"
       inkscape:connector-curvature="0" />
    <path
       d="m 2638.2784,2121.8892 a 1502.5405,1502.5405 0 0 1 -191.7535,15.5119 l 1.7134,102.8988 a 1605.4543,1605.4543 0 0 0 204.8878,-16.5735 z"
       style="fill:#ffffcc;stroke-width:1.61433315;stroke-linecap:round"
       id="path686"
       inkscape:connector-curvature="0" />
    <path
       d="m 3411.1852,1624.7542 a 1399.6268,1399.6268 0 0 1 -134.5675,118.3445 l 62.8764,81.4716 a 1502.5405,1502.5405 0 0 0 144.4622,-127.045 z"
       style="fill:#ffffcc;stroke-width:1.61433315;stroke-linecap:round"
       id="path782"
       inkscape:connector-curvature="0" />
    <path
       d="m 3276.6177,1743.0987 a 1399.6268,1399.6268 0 0 1 -148.5853,100.1786 l 51.95,88.8388 a 1502.5405,1502.5405 0 0 0 159.5117,-107.5458 z"
       style="fill:#ffffcc;stroke-width:1.61433315;stroke-linecap:round"
       id="path784"
       inkscape:connector-curvature="0" />
    <path
       d="m 3128.0324,1843.2773 a 1399.6268,1399.6268 0 0 1 -160.1681,80.3723 l 40.1731,94.7484 a 1502.5405,1502.5405 0 0 0 171.945,-86.2819 z"
       style="fill:#ffffcc;stroke-width:1.61433315;stroke-linecap:round"
       id="path786"
       inkscape:connector-curvature="0" />
    <path
       d="m 2967.8643,1923.6496 a 1399.6268,1399.6268 0 0 1 -169.1255,59.2487 l 27.7386,99.1055 a 1502.5405,1502.5405 0 0 0 181.56,-63.6058 z"
       style="fill:#ffffcc;stroke-width:1.61433315;stroke-linecap:round"
       id="path788"
       inkscape:connector-curvature="0" />
    <path
       d="m 2798.7388,1982.8983 a 1399.6268,1399.6268 0 0 1 -175.3079,37.1537 l 14.8475,101.8372 a 1502.5405,1502.5405 0 0 0 188.199,-39.8854 z"
       style="fill:#ffffcc;stroke-width:1.61433315;stroke-linecap:round"
       id="path790"
       inkscape:connector-curvature="0" />
    <path
       d="m 2623.4309,2020.052 a 1399.6268,1399.6268 0 0 1 -178.6205,14.4493 l 1.7145,102.8998 a 1502.5405,1502.5405 0 0 0 191.7535,-15.5119 z"
       style="fill:#ffffcc;stroke-width:1.61433315;stroke-linecap:round"
       id="path792"
       inkscape:connector-curvature="0" />
    <path
       d="m 3338.4143,1551.9832 a 1296.7131,1296.7131 0 0 1 -124.6731,109.6417 l 62.8765,81.4738 a 1399.6268,1399.6268 0 0 0 134.5675,-118.3445 z"
       style="fill:#b10026;stroke-width:1.61433315;stroke-linecap:round"
       id="path888"
       inkscape:connector-curvature="0" />
    <path
       d="m 3213.7412,1661.6249 a 1296.7131,1296.7131 0 0 1 -137.661,92.8136 l 51.9522,88.8388 a 1399.6268,1399.6268 0 0 0 148.5853,-100.1786 z"
       style="fill:#b10026;stroke-width:1.61433315;stroke-linecap:round"
       id="path890"
       inkscape:connector-curvature="0" />
    <path
       d="m 3076.0802,1754.4385 a 1296.7131,1296.7131 0 0 1 -148.3912,74.4626 l 40.1753,94.7485 a 1399.6268,1399.6268 0 0 0 160.1681,-80.3723 z"
       style="fill:#b10026;stroke-width:1.61433315;stroke-linecap:round"
       id="path892"
       inkscape:connector-curvature="0" />
    <path
       d="m 2927.689,1828.9011 a 1296.7131,1296.7131 0 0 1 -156.6876,54.8928 l 27.7374,99.1044 a 1399.6268,1399.6268 0 0 0 169.1255,-59.2487 z"
       style="fill:#b10026;stroke-width:1.61433315;stroke-linecap:round"
       id="path894"
       inkscape:connector-curvature="0" />
    <path
       d="m 2771.0014,1883.7939 a 1296.7131,1296.7131 0 0 1 -162.4192,34.4221 l 14.8487,101.836 a 1399.6268,1399.6268 0 0 0 175.3079,-37.1537 z"
       style="fill:#b10026;stroke-width:1.61433315;stroke-linecap:round"
       id="path896"
       inkscape:connector-curvature="0" />
    <path
       d="m 2608.5822,1918.216 a 1296.7131,1296.7131 0 0 1 -165.4852,13.3865 l 1.7134,102.8988 a 1399.6268,1399.6268 0 0 0 178.6205,-14.4493 z"
       style="fill:#b10026;stroke-width:1.61433315;stroke-linecap:round"
       id="path898"
       inkscape:connector-curvature="0" />
    <path
       d="M 3249.9932,1436.4172 2806.1529,1007.1197"
       style="fill:none;stroke-width:1.61433315;stroke-linecap:round"
       id="path1024"
       inkscape:connector-curvature="0" />
    <path
       d="m 2799.9089,1013.4779 a 535.15142,535.15142 0 0 1 -51.4523,45.2492 l 377.2209,488.7872 a 1152.5725,1152.5725 0 0 0 110.814,-97.4539 z"
       style="fill:#feebe2;stroke-width:1.61433315;stroke-linecap:round"
       id="path1026"
       inkscape:connector-curvature="0" />
    <path
       d="m 2748.4498,1058.7271 377.222,488.7929"
       style="fill:#feebe2;stroke-width:1.61433315;stroke-linecap:round"
       id="path1028"
       inkscape:connector-curvature="0" />
    <path
       d="m 2748.4566,1058.7271 a 535.15142,535.15142 0 0 1 -56.8116,38.3032 l 311.6734,532.9794 a 1152.5725,1152.5725 0 0 0 122.3591,-82.4954 z"
       style="fill:#feebe2;stroke-width:1.61433315;stroke-linecap:round"
       id="path1030"
       inkscape:connector-curvature="0" />
    <path
       d="m 2691.6484,1097.0361 311.6654,532.9805"
       style="fill:#feebe2;stroke-width:1.61433315;stroke-linecap:round"
       id="path1032"
       inkscape:connector-curvature="0" />
    <path
       d="m 2691.645,1097.0303 a 535.15142,535.15142 0 0 1 -61.2418,30.7317 l 241.0187,568.4346 a 1152.5725,1152.5725 0 0 0 131.8965,-66.1869 z"
       style="fill:#feebe2;stroke-width:1.61433315;stroke-linecap:round"
       id="path1034"
       inkscape:connector-curvature="0" />
    <path
       d="m 2630.4067,1127.754 241.0175,568.4471"
       style="fill:#feebe2;stroke-width:1.61433315;stroke-linecap:round"
       id="path1036"
       inkscape:connector-curvature="0" />
    <path
       d="m 2630.4032,1127.762 a 535.15142,535.15142 0 0 1 -64.6652,22.6532 l 166.4133,594.5716 a 1152.5725,1152.5725 0 0 0 139.2706,-48.7902 z"
       style="fill:#feebe2;stroke-width:1.61433315;stroke-linecap:round"
       id="path1038"
       inkscape:connector-curvature="0" />
    <path
       d="m 2565.7403,1150.4129 166.4088,594.5647"
       style="fill:#feebe2;stroke-width:1.61433315;stroke-linecap:round"
       id="path1040"
       inkscape:connector-curvature="0" />
    <path
       d="m 2565.738,1150.4152 a 535.15142,535.15142 0 0 1 -67.0303,14.206 l 89.0785,610.9613 a 1152.5725,1152.5725 0 0 0 144.3651,-30.5957 z"
       style="fill:#feebe2;stroke-width:1.61433315;stroke-linecap:round"
       id="path1042"
       inkscape:connector-curvature="0" />
    <path
       d="m 2498.7111,1164.6133 89.0717,610.9681"
       style="fill:#feebe2;stroke-width:1.61433315;stroke-linecap:round"
       id="path1044"
       inkscape:connector-curvature="0" />
    <path
       d="m 2498.7077,1164.6212 a 535.15142,535.15142 0 0 1 -68.2952,5.5238 l 10.2838,617.3367 a 1152.5725,1152.5725 0 0 0 147.0899,-11.8992 z"
       style="fill:#feebe2;stroke-width:1.61433315;stroke-linecap:round"
       id="path1046"
       inkscape:connector-curvature="0" />
    <path
       d="m 2440.6998,1787.4874 -10.285,-617.3379"
       style="fill:none;stroke-width:1.61433315;stroke-linecap:round"
       id="path1048"
       inkscape:connector-curvature="0" />
    <path
       d="M 3249.9932,1436.4172 2806.1529,1007.1197"
       style="fill:none;stroke-width:1.61433315;stroke-linecap:round"
       id="path1234"
       inkscape:connector-curvature="0" />
    <path
       d="m 2799.9089,1013.4779 a 535.15142,535.15142 0 0 1 -51.4523,45.2492 l 376.3522,487.6627 a 1151.1519,1151.1519 0 0 0 110.6781,-97.3339 z"
       style="fill:#fcc5c0;stroke-width:1.61433315;stroke-linecap:round"
       id="path1236"
       inkscape:connector-curvature="0" />
    <path
       d="m 2748.4498,1058.7271 376.3659,487.6628"
       style="fill:#fcc5c0;stroke-width:1.61433315;stroke-linecap:round"
       id="path1238"
       inkscape:connector-curvature="0" />
    <path
       d="m 2748.4566,1058.7271 a 535.15142,535.15142 0 0 1 -56.8116,38.3032 l 310.9565,531.7535 a 1151.1519,1151.1519 0 0 0 122.2073,-82.394 z"
       style="fill:#fcc5c0;stroke-width:1.61433315;stroke-linecap:round"
       id="path1240"
       inkscape:connector-curvature="0" />
    <path
       d="m 2691.6484,1097.0361 310.9576,531.7476"
       style="fill:#fcc5c0;stroke-width:1.61433315;stroke-linecap:round"
       id="path1242"
       inkscape:connector-curvature="0" />
    <path
       d="m 2691.645,1097.0303 a 535.15142,535.15142 0 0 1 -61.2418,30.7317 l 240.4651,567.1276 a 1151.1519,1151.1519 0 0 0 131.7332,-66.1058 z"
       style="fill:#fcc5c0;stroke-width:1.61433315;stroke-linecap:round"
       id="path1244"
       inkscape:connector-curvature="0" />
    <path
       d="m 2630.4067,1127.754 240.4581,567.1344"
       style="fill:#fcc5c0;stroke-width:1.61433315;stroke-linecap:round"
       id="path1246"
       inkscape:connector-curvature="0" />
    <path
       d="m 2630.4032,1127.762 a 535.15142,535.15142 0 0 1 -64.6652,22.6532 l 166.0298,593.2041 a 1151.1519,1151.1519 0 0 0 139.1005,-48.7297 z"
       style="fill:#fcc5c0;stroke-width:1.61433315;stroke-linecap:round"
       id="path1248"
       inkscape:connector-curvature="0" />
    <path
       d="m 2565.7403,1150.4129 166.032,593.2064"
       style="fill:#fcc5c0;stroke-width:1.61433315;stroke-linecap:round"
       id="path1250"
       inkscape:connector-curvature="0" />
    <path
       d="m 2565.738,1150.4152 a 535.15142,535.15142 0 0 1 -67.0303,14.206 l 88.8742,609.5562 a 1151.1519,1151.1519 0 0 0 144.1859,-30.5581 z"
       style="fill:#fcc5c0;stroke-width:1.61433315;stroke-linecap:round"
       id="path1252"
       inkscape:connector-curvature="0" />
    <path
       d="m 2498.7111,1164.6133 88.8777,609.5641"
       style="fill:#fcc5c0;stroke-width:1.61433315;stroke-linecap:round"
       id="path1254"
       inkscape:connector-curvature="0" />
    <path
       d="m 2498.7077,1164.6212 a 535.15142,535.15142 0 0 1 -68.2952,5.5238 l 10.2599,615.9154 a 1151.1519,1151.1519 0 0 0 146.9095,-11.883 z"
       style="fill:#fcc5c0;stroke-width:1.61433315;stroke-linecap:round"
       id="path1256"
       inkscape:connector-curvature="0" />
    <path
       d="m 2440.6656,1786.0604 -10.2508,-615.9109"
       style="fill:none;stroke-width:1.61433315;stroke-linecap:round"
       id="path1258"
       inkscape:connector-curvature="0" />
    <path
       d="M 3249.9932,1436.4172 2806.1529,1007.1197"
       style="fill:none;stroke-width:1.61433315;stroke-linecap:round"
       id="path1444"
       inkscape:connector-curvature="0" />
    <path
       d="m 2799.9089,1013.4779 a 535.15142,535.15142 0 0 1 -51.4523,45.2492 l 357.8667,463.7094 a 1120.896,1120.896 0 0 0 107.7696,-94.7747 z"
       style="fill:#fa9fb5;stroke-width:1.61433315;stroke-linecap:round"
       id="path1446"
       inkscape:connector-curvature="0" />
    <path
       d="m 2748.4498,1058.7271 357.8735,463.7139"
       style="fill:#fa9fb5;stroke-width:1.61433315;stroke-linecap:round"
       id="path1448"
       inkscape:connector-curvature="0" />
    <path
       d="m 2748.4566,1058.7271 a 535.15142,535.15142 0 0 1 -56.8116,38.3032 l 295.6831,505.6358 a 1120.896,1120.896 0 0 0 118.9952,-80.2296 z"
       style="fill:#fa9fb5;stroke-width:1.61433315;stroke-linecap:round"
       id="path1450"
       inkscape:connector-curvature="0" />
    <path
       d="m 2691.6484,1097.0361 295.6843,505.63"
       style="fill:#fa9fb5;stroke-width:1.61433315;stroke-linecap:round"
       id="path1452"
       inkscape:connector-curvature="0" />
    <path
       d="m 2691.645,1097.0303 a 535.15142,535.15142 0 0 1 -61.2418,30.7317 l 228.6539,539.2713 a 1120.896,1120.896 0 0 0 128.271,-64.3672 z"
       style="fill:#fa9fb5;stroke-width:1.61433315;stroke-linecap:round"
       id="path1454"
       inkscape:connector-curvature="0" />
    <path
       d="m 2630.4067,1127.754 228.655,539.2816"
       style="fill:#fa9fb5;stroke-width:1.61433315;stroke-linecap:round"
       id="path1456"
       inkscape:connector-curvature="0" />
    <path
       d="m 2630.4032,1127.762 a 535.15142,535.15142 0 0 1 -64.6652,22.6532 l 157.8749,564.066 a 1120.896,1120.896 0 0 0 135.4442,-47.4479 z"
       style="fill:#fa9fb5;stroke-width:1.61433315;stroke-linecap:round"
       id="path1458"
       inkscape:connector-curvature="0" />
    <path
       d="m 2565.7403,1150.4129 157.8703,564.0637"
       style="fill:#fa9fb5;stroke-width:1.61433315;stroke-linecap:round"
       id="path1460"
       inkscape:connector-curvature="0" />
    <path
       d="m 2565.738,1150.4152 a 535.15142,535.15142 0 0 1 -67.0303,14.206 l 84.508,579.6156 a 1120.896,1120.896 0 0 0 140.3972,-29.7556 z"
       style="fill:#fa9fb5;stroke-width:1.61433315;stroke-linecap:round"
       id="path1462"
       inkscape:connector-curvature="0" />
    <path
       d="m 2498.7111,1164.6133 84.5057,579.6224"
       style="fill:#fa9fb5;stroke-width:1.61433315;stroke-linecap:round"
       id="path1464"
       inkscape:connector-curvature="0" />
    <path
       d="m 2498.7077,1164.6212 a 535.15142,535.15142 0 0 1 -68.2952,5.5238 l 9.7553,585.6632 a 1120.896,1120.896 0 0 0 143.0479,-11.5714 z"
       style="fill:#fa9fb5;stroke-width:1.61433315;stroke-linecap:round"
       id="path1466"
       inkscape:connector-curvature="0" />
    <path
       d="m 2440.1632,1755.8106 -9.7484,-585.6611"
       style="fill:none;stroke-width:1.61433315;stroke-linecap:round"
       id="path1468"
       inkscape:connector-curvature="0" />
    <path
       d="M 3249.9932,1436.4172 2806.1529,1007.1197"
       style="fill:none;stroke-width:1.61433315;stroke-linecap:round"
       id="path1654"
       inkscape:connector-curvature="0" />
    <path
       d="m 2799.9089,1013.4779 a 535.15142,535.15142 0 0 1 -51.4523,45.2492 l 354.7367,459.6525 a 1115.7705,1115.7705 0 0 0 107.2753,-94.342 z"
       style="fill:#f768a1;stroke-width:1.61433315;stroke-linecap:round"
       id="path1656"
       inkscape:connector-curvature="0" />
    <path
       d="m 2748.4498,1058.7271 354.7458,459.6502"
       style="fill:#f768a1;stroke-width:1.61433315;stroke-linecap:round"
       id="path1658"
       inkscape:connector-curvature="0" />
    <path
       d="m 2748.4566,1058.7271 a 535.15142,535.15142 0 0 1 -56.8116,38.3032 l 293.0965,501.2113 a 1115.7705,1115.7705 0 0 0 118.4518,-79.862 z"
       style="fill:#f768a1;stroke-width:1.61433315;stroke-linecap:round"
       id="path1660"
       inkscape:connector-curvature="0" />
    <path
       d="m 2691.6484,1097.0361 293.0931,501.2124"
       style="fill:#f768a1;stroke-width:1.61433315;stroke-linecap:round"
       id="path1662"
       inkscape:connector-curvature="0" />
    <path
       d="m 2691.645,1097.0303 a 535.15142,535.15142 0 0 1 -61.2418,30.7317 l 226.654,534.5524 a 1115.7705,1115.7705 0 0 0 127.6843,-64.0728 z"
       style="fill:#f768a1;stroke-width:1.61433315;stroke-linecap:round"
       id="path1664"
       inkscape:connector-curvature="0" />
    <path
       d="m 2630.4067,1127.754 226.6459,534.5558"
       style="fill:#f768a1;stroke-width:1.61433315;stroke-linecap:round"
       id="path1666"
       inkscape:connector-curvature="0" />
    <path
       d="m 2630.4032,1127.762 a 535.15142,535.15142 0 0 1 -64.6652,22.6532 l 156.4936,559.1324 a 1115.7705,1115.7705 0 0 0 134.8256,-47.2332 z"
       style="fill:#f768a1;stroke-width:1.61433315;stroke-linecap:round"
       id="path1668"
       inkscape:connector-curvature="0" />
    <path
       d="m 2565.7403,1150.4129 156.5005,559.1324"
       style="fill:#f768a1;stroke-width:1.61433315;stroke-linecap:round"
       id="path1670"
       inkscape:connector-curvature="0" />
    <path
       d="m 2565.738,1150.4152 a 535.15142,535.15142 0 0 1 -67.0303,14.206 l 83.7694,574.5439 a 1115.7705,1115.7705 0 0 0 139.7545,-29.6175 z"
       style="fill:#f768a1;stroke-width:1.61433315;stroke-linecap:round"
       id="path1672"
       inkscape:connector-curvature="0" />
    <path
       d="m 2498.7111,1164.6133 83.7637,574.5427"
       style="fill:#f768a1;stroke-width:1.61433315;stroke-linecap:round"
       id="path1674"
       inkscape:connector-curvature="0" />
    <path
       d="m 2498.7077,1164.6212 a 535.15142,535.15142 0 0 1 -68.2952,5.5238 l 9.6697,580.539 a 1115.7705,1115.7705 0 0 0 142.3949,-11.5189 z"
       style="fill:#f768a1;stroke-width:1.61433315;stroke-linecap:round"
       id="path1676"
       inkscape:connector-curvature="0" />
    <path
       d="m 2440.0833,1750.6852 -9.6685,-580.5357"
       style="fill:none;stroke-width:1.61433315;stroke-linecap:round"
       id="path1678"
       inkscape:connector-curvature="0" />
    <path
       d="M 3249.9932,1436.4172 2806.1529,1007.1197"
       style="fill:none;stroke-width:1.61433315;stroke-linecap:round"
       id="path1864"
       inkscape:connector-curvature="0" />
    <path
       d="m 2799.9089,1013.4779 a 535.15142,535.15142 0 0 1 -51.4523,45.2492 l 348.5863,451.6848 a 1105.7052,1105.7052 0 0 0 106.3084,-93.4916 z"
       style="fill:#c51b8a;stroke-width:1.61433315;stroke-linecap:round"
       id="path1866"
       inkscape:connector-curvature="0" />
    <path
       d="m 2748.4498,1058.7271 348.593,451.6939"
       style="fill:#c51b8a;stroke-width:1.61433315;stroke-linecap:round"
       id="path1868"
       inkscape:connector-curvature="0" />
    <path
       d="m 2748.4566,1058.7271 a 535.15142,535.15142 0 0 1 -56.8116,38.3032 l 288.0157,492.5233 a 1105.7052,1105.7052 0 0 0 117.3822,-79.1417 z"
       style="fill:#c51b8a;stroke-width:1.61433315;stroke-linecap:round"
       id="path1870"
       inkscape:connector-curvature="0" />
    <path
       d="m 2691.6484,1097.0361 288.0134,492.5255"
       style="fill:#c51b8a;stroke-width:1.61433315;stroke-linecap:round"
       id="path1872"
       inkscape:connector-curvature="0" />
    <path
       d="m 2691.645,1097.0303 a 535.15142,535.15142 0 0 1 -61.2418,30.7317 l 222.7249,525.2856 a 1105.7052,1105.7052 0 0 0 126.5326,-63.494 z"
       style="fill:#c51b8a;stroke-width:1.61433315;stroke-linecap:round"
       id="path1874"
       inkscape:connector-curvature="0" />
    <path
       d="m 2630.4067,1127.754 222.7192,525.2868"
       style="fill:#c51b8a;stroke-width:1.61433315;stroke-linecap:round"
       id="path1876"
       inkscape:connector-curvature="0" />
    <path
       d="m 2630.4032,1127.762 a 535.15142,535.15142 0 0 1 -64.6652,22.6532 l 153.7815,549.4387 a 1105.7052,1105.7052 0 0 0 133.6086,-46.8063 z"
       style="fill:#c51b8a;stroke-width:1.61433315;stroke-linecap:round"
       id="path1878"
       inkscape:connector-curvature="0" />
    <path
       d="m 2565.7403,1150.4129 153.7723,549.441"
       style="fill:#c51b8a;stroke-width:1.61433315;stroke-linecap:round"
       id="path1880"
       inkscape:connector-curvature="0" />
    <path
       d="m 2565.738,1150.4152 a 535.15142,535.15142 0 0 1 -67.0303,14.206 l 82.3162,564.5842 a 1105.7052,1105.7052 0 0 0 138.4956,-29.3515 z"
       style="fill:#c51b8a;stroke-width:1.61433315;stroke-linecap:round"
       id="path1882"
       inkscape:connector-curvature="0" />
    <path
       d="m 2498.7111,1164.6133 82.314,564.6001"
       style="fill:#c51b8a;stroke-width:1.61433315;stroke-linecap:round"
       id="path1884"
       inkscape:connector-curvature="0" />
    <path
       d="m 2498.7077,1164.6212 a 535.15142,535.15142 0 0 1 -68.2952,5.5238 l 9.503,570.4756 a 1105.7052,1105.7052 0 0 0 141.1084,-11.4152 z"
       style="fill:#c51b8a;stroke-width:1.61433315;stroke-linecap:round"
       id="path1886"
       inkscape:connector-curvature="0" />
    <path
       d="m 2439.9235,1740.6171 -9.5087,-570.4676"
       style="fill:none;stroke-width:1.61433315;stroke-linecap:round"
       id="path1888"
       inkscape:connector-curvature="0" />
    <path
       d="m 2876.424,1075.0849 -70.2711,-67.9652"
       style="fill:none;stroke-width:1.61433315;stroke-linecap:round"
       id="path2074"
       inkscape:connector-curvature="0" />
    <path
       d="m 2799.9089,1013.4779 a 535.15142,535.15142 0 0 1 -51.4523,45.2492 l 163.0881,211.3236 a 802.08947,802.08947 45 0 0 77.1178,-67.8192 z"
       style="fill:#7a0177;stroke-width:1.61433315;stroke-linecap:round"
       id="path2076"
       inkscape:connector-curvature="0" />
    <path
       d="m 2748.4498,1058.7271 163.0983,211.3156"
       style="fill:#7a0177;stroke-width:1.61433315;stroke-linecap:round"
       id="path2078"
       inkscape:connector-curvature="0" />
    <path
       d="m 2748.4566,1058.7271 a 535.15142,535.15142 0 0 1 -56.8116,38.3032 l 134.7491,230.4302 a 802.08947,802.08947 45 0 0 85.1506,-57.4098 z"
       style="fill:#7a0177;stroke-width:1.61433315;stroke-linecap:round"
       id="path2080"
       inkscape:connector-curvature="0" />
    <path
       d="m 2691.6484,1097.0361 134.7434,230.4244"
       style="fill:#7a0177;stroke-width:1.61433315;stroke-linecap:round"
       id="path2082"
       inkscape:connector-curvature="0" />
    <path
       d="m 2691.645,1097.0303 a 535.15142,535.15142 0 0 1 -61.2418,30.7317 l 104.2024,245.7582 a 802.08947,802.08947 45 0 0 91.7885,-46.0597 z"
       style="fill:#7a0177;stroke-width:1.61433315;stroke-linecap:round"
       id="path2084"
       inkscape:connector-curvature="0" />
    <path
       d="m 2630.4067,1127.754 104.1966,245.7662"
       style="fill:#7a0177;stroke-width:1.61433315;stroke-linecap:round"
       id="path2086"
       inkscape:connector-curvature="0" />
    <path
       d="m 2630.4032,1127.762 a 535.15142,535.15142 0 0 1 -64.6652,22.6532 l 71.948,257.0591 a 802.08947,802.08947 45 0 0 96.9196,-33.9541 z"
       style="fill:#7a0177;stroke-width:1.61433315;stroke-linecap:round"
       id="path2088"
       inkscape:connector-curvature="0" />
    <path
       d="m 2565.7403,1150.4129 71.9492,257.0557"
       style="fill:#7a0177;stroke-width:1.61433315;stroke-linecap:round"
       id="path2090"
       inkscape:connector-curvature="0" />
    <path
       d="m 2565.738,1150.4152 a 535.15142,535.15142 0 0 1 -67.0303,14.206 l 38.5132,264.1456 a 802.08947,802.08947 45 0 0 100.4651,-21.2925 z"
       style="fill:#7a0177;stroke-width:1.61433315;stroke-linecap:round"
       id="path2092"
       inkscape:connector-curvature="0" />
    <path
       d="m 2498.7111,1164.6133 38.503,264.1558"
       style="fill:#7a0177;stroke-width:1.61433315;stroke-linecap:round"
       id="path2094"
       inkscape:connector-curvature="0" />
    <path
       d="m 2498.7077,1164.6212 a 535.15142,535.15142 0 0 1 -68.2952,5.5238 l 4.4462,266.9012 a 802.08947,802.08947 45 0 0 102.3622,-8.2794 z"
       style="fill:#7a0177;stroke-width:1.61433315;stroke-linecap:round"
       id="path2096"
       inkscape:connector-curvature="0" />
    <path
       d="m 2434.8553,1437.045 -4.4405,-266.8955"
       style="fill:none;stroke-width:1.61433315;stroke-linecap:round"
       id="path2098"
       inkscape:connector-curvature="0" />
  </g>
  <defs
     id="defs2220">
    <pattern
       id="hline-sparse"
       width="10"
       height="10"
       patternTransform="rotate(0 0 0)"
       patternUnits="userSpaceOnUse">
      <line
         x1="0"
         y1="0"
         x2="10"
         y2="0"
         style="stroke:black;stroke-width:2"
         id="line2223" />
    </pattern>
    <pattern
       id="checker"
       width="10"
       height="10"
       patternTransform="rotate(45 0 0)"
       patternUnits="userSpaceOnUse">
      <line
         x1="0"
         y1="0"
         x2="10"
         y2="0"
         style="stroke:black;stroke-width:5"
         id="line2226" />
      <line
         x1="0"
         y1="0"
         x2="0"
         y2="10"
         style="stroke:black;stroke-width:4"
         id="line2228" />
    </pattern>
    <pattern
       id="vline"
       width="10"
       height="10"
       patternTransform="rotate(0 0 0)"
       patternUnits="userSpaceOnUse">
      <line
         x1="0"
         y1="0"
         x2="0"
         y2="10"
         style="stroke:black;stroke-width:5"
         id="line2231" />
    </pattern>
    <pattern
       id="vline-sparse"
       width="10"
       height="10"
       patternTransform="rotate(0 0 0)"
       patternUnits="userSpaceOnUse">
      <line
         x1="0"
         y1="0"
         x2="0"
         y2="10"
         style="stroke:black;stroke-width:2"
         id="line2234" />
    </pattern>
    <pattern
       id="pattern2236"
       width="10"
       height="10"
       patternTransform="rotate(45 0 0)"
       patternUnits="userSpaceOnUse">
      <line
         x1="0"
         y1="0"
         x2="10"
         y2="0"
         style="stroke:black;stroke-width:2"
         id="line2238" />
      <line
         x1="0"
         y1="0"
         x2="0"
         y2="10"
         style="stroke:black;stroke-width:2"
         id="line2240" />
    </pattern>
    <pattern
       id="hline"
       width="10"
       height="10"
       patternTransform="rotate(0 0 0)"
       patternUnits="userSpaceOnUse">
      <line
         x1="0"
         y1="0"
         x2="10"
         y2="0"
         style="stroke:black;stroke-width:5"
         id="line2243" />
    </pattern>
  </defs>
</svg>
