<?xml version="1.0" encoding="UTF-8" standalone="no"?>
<svg
   xmlns:dc="http://purl.org/dc/elements/1.1/"
   xmlns:cc="http://creativecommons.org/ns#"
   xmlns:rdf="http://www.w3.org/1999/02/22-rdf-syntax-ns#"
   xmlns:svg="http://www.w3.org/2000/svg"
   xmlns="http://www.w3.org/2000/svg"
   xmlns:sodipodi="http://sodipodi.sourceforge.net/DTD/sodipodi-0.dtd"
   xmlns:inkscape="http://www.inkscape.org/namespaces/inkscape"
   width="3000px"
   height="3000px"
   version="1.1"
   id="svg2"
   inkscape:version="0.92.4 (5da689c313, 2019-01-14)"
   sodipodi:docname="Final-Wedge-05.svg">
  <metadata
     id="metadata2247">
    <rdf:RDF>
      <cc:Work
         rdf:about="">
        <dc:format>image/svg+xml</dc:format>
        <dc:type
           rdf:resource="http://purl.org/dc/dcmitype/StillImage" />
        <dc:title></dc:title>
      </cc:Work>
    </rdf:RDF>
  </metadata>
  <sodipodi:namedview
     pagecolor="#ffffff"
     bordercolor="#666666"
     borderopacity="1"
     objecttolerance="10"
     gridtolerance="10"
     guidetolerance="10"
     inkscape:pageopacity="0"
     inkscape:pageshadow="2"
     inkscape:window-width="1920"
     inkscape:window-height="1000"
     id="namedview2245"
     showgrid="false"
     inkscape:zoom="0.11125147"
     inkscape:cx="1222.0751"
     inkscape:cy="1477.0097"
     inkscape:window-x="0"
     inkscape:window-y="52"
     inkscape:window-maximized="1"
     inkscape:current-layer="svg2" />
  <g
     id="g3831"
     transform="rotate(-45,1897.0143,438.81742)">
    <path
       inkscape:connector-curvature="0"
       id="path276"
       style="fill:#ffffb2;stroke:#000000;stroke-width:8.07166576;stroke-linecap:round"
       d="M 982.2824,1961.1495 A 1955.361,1955.361 0 0 1 816.94895,1773.1503 l -158.15341,122.0543 a 2155.1347,2155.1347 0 0 0 182.22552,207.2062 z" />
    <path
       inkscape:connector-curvature="0"
       id="path278"
       style="fill:#fed976;stroke:#000000;stroke-width:8.07166576;stroke-linecap:round"
       d="M 816.94895,1773.1503 A 1955.361,1955.361 0 0 1 676.9935,1565.5674 l -172.45189,100.8452 a 2155.1347,2155.1347 0 0 0 154.25393,228.792 z" />
    <path
       inkscape:connector-curvature="0"
       id="path280"
       style="fill:#feb24c;stroke:#000000;stroke-width:8.07166576;stroke-linecap:round"
       d="M 676.9935,1565.5674 A 1955.361,1955.361 0 0 1 564.70805,1341.8026 l -183.92399,77.9854 a 2155.1347,2155.1347 0 0 0 123.75755,246.6246 z" />
    <path
       inkscape:connector-curvature="0"
       id="path282"
       style="fill:#fd8d3c;stroke:#000000;stroke-width:8.07166576;stroke-linecap:round"
       d="M 564.70805,1341.8026 A 1955.361,1955.361 0 0 1 430.02748,860.60876 L 232.34382,889.43178 A 2155.1347,2155.1347 0 0 0 380.78406,1419.788 Z" />
    <path
       inkscape:connector-curvature="0"
       id="path284"
       style="fill:#bd0026;stroke:#000000;stroke-width:8.07166576;stroke-linecap:round"
       d="M 430.02748,860.60876 A 1955.361,1955.361 0 0 1 409.84226,611.06767 l -199.74641,3.32744 a 2155.1347,2155.1347 0 0 0 22.24797,275.03667 z" />
    <path
       inkscape:connector-curvature="0"
       id="path288"
       style="fill:#ffffb2;stroke:#000000;stroke-width:8.07166576;stroke-linecap:round"
       d="M 1055.0534,1888.3785 A 1852.4472,1852.4472 0 0 1 898.42271,1710.2739 l -81.47376,62.8764 a 1955.361,1955.361 0 0 0 165.33345,187.9992 z" />
    <path
       inkscape:connector-curvature="0"
       id="path290"
       style="fill:#fed976;stroke:#000000;stroke-width:8.07166576;stroke-linecap:round"
       d="M 898.42271,1710.2739 A 1852.4472,1852.4472 0 0 1 765.83234,1513.6175 l -88.83884,51.9499 a 1955.361,1955.361 0 0 0 139.95545,207.5829 z" />
    <path
       inkscape:connector-curvature="0"
       id="path292"
       style="fill:#feb24c;stroke:#000000;stroke-width:8.07166576;stroke-linecap:round"
       d="M 765.83234,1513.6175 A 1852.4472,1852.4472 0 0 1 659.45647,1301.6296 l -94.74842,40.173 a 1955.361,1955.361 0 0 0 112.28545,223.7648 z" />
    <path
       inkscape:connector-curvature="0"
       id="path294"
       style="fill:#fd8d3c;stroke:#000000;stroke-width:8.07166576;stroke-linecap:round"
       d="m 659.45647,1301.6296 a 1852.4472,1852.4472 0 0 1 -78.418,-223.8413 l -99.10441,27.7374 a 1955.361,1955.361 0 0 0 82.77399,236.2769 z" />
    <path
       inkscape:connector-curvature="0"
       id="path296"
       style="fill:#f03b20;stroke:#000000;stroke-width:8.07166576;stroke-linecap:round"
       d="M 581.03847,1077.7883 A 1852.4472,1852.4472 0 0 1 531.86471,845.76122 l -101.83723,14.84754 a 1955.361,1955.361 0 0 0 51.90658,244.91694 z" />
    <path
       inkscape:connector-curvature="0"
       id="path298"
       style="fill:#bd0026;stroke:#000000;stroke-width:8.07166576;stroke-linecap:round"
       d="m 531.86471,845.76122 a 1852.4472,1852.4472 0 0 1 -19.1237,-236.40701 l -102.89875,1.71346 a 1955.361,1955.361 0 0 0 20.18522,249.54109 z" />
    <path
       inkscape:connector-curvature="0"
       id="path302"
       style="fill:#fd8d3c;stroke-width:1.61433315;stroke-linecap:round"
       d="M 746.53858,2196.8933 A 2288.753,2288.753 0 0 1 76.495164,616.61988 l -43.095295,0.71803 A 2331.8557,2331.8557 0 0 0 716.06037,2227.3715 Z" />
    <path
       inkscape:connector-curvature="0"
       id="path306"
       style="fill:#000000;stroke-width:1.61433315;stroke-linecap:round"
       d="M 1995.2547,948.17715 A 522.80177,522.80177 0 0 1 1842.2015,587.20783 l -10.2895,0.17124 a 533.09315,533.09315 0 0 0 156.0656,368.0752 z" />
    <path
       inkscape:connector-curvature="0"
       id="path310"
       style="fill:#000000;stroke-width:1.61433315;stroke-linecap:round"
       d="m 1548.4407,1394.9911 a 1154.6921,1154.6921 0 0 1 -338.042,-797.25855 l -10.2897,0.17119 a 1164.9835,1164.9835 0 0 0 341.0547,804.36446 z" />
    <path
       inkscape:connector-curvature="0"
       id="path314"
       style="fill:#fd8d3c;stroke-width:1.61433315;stroke-linecap:round"
       d="m 2107.1759,836.25594 a 364.52126,364.52126 0 0 1 -106.7148,-251.6838 l -41.1593,0.68604 a 405.68675,405.68675 0 0 0 118.7657,280.10609 z" />
    <path
       inkscape:connector-curvature="0"
       id="path318"
       style="fill:#000000;stroke-width:1.61433315;stroke-linecap:round"
       d="M 1155.4774,1787.9545 A 1710.4263,1710.4263 0 0 1 654.74212,606.989 l -10.2896,0.17119 A 1720.7177,1720.7177 0 0 0 1148.2003,1795.2316 Z" />
    <path
       inkscape:connector-curvature="0"
       id="path322"
       style="fill:#000000;stroke-width:1.61433315;stroke-linecap:round"
       d="m 1456.7493,1486.6826 a 1284.3634,1284.3634 0 0 1 -376.003,-886.79033 l -10.2895,0.17119 a 1294.6548,1294.6548 0 0 0 379.0154,893.89614 z" />
    <path
       d="M 909.51135,2033.9205 A 2058.2747,2058.2747 0 0 1 306.94239,612.78212 l -96.84654,1.61299 A 2155.1347,2155.1347 0 0 0 841.02106,2102.4108 Z"
       style="fill:#fd8d3c;stroke:#000000;stroke-width:8.07166576;stroke-linecap:round"
       id="path324"
       inkscape:connector-curvature="0" />
    <path
       d="M 909.51135,2033.9205 A 2058.2747,2058.2747 0 0 1 735.47731,1836.0267 l -76.68177,59.1779 a 2155.1347,2155.1347 0 0 0 182.22552,207.2062 z"
       style="fill:#fd8d3c;fill-opacity:0.67000002;stroke-width:1.61433315;stroke-linecap:round"
       id="path326"
       inkscape:connector-curvature="0" />
    <path
       d="M 735.47731,1836.0267 A 2058.2747,2058.2747 0 0 1 588.15345,1617.5186 l -83.61184,48.894 a 2155.1347,2155.1347 0 0 0 154.25393,228.792 z"
       style="fill:#fd8d3c;fill-opacity:0.67000002;stroke-width:1.61433315;stroke-linecap:round"
       id="path328"
       inkscape:connector-curvature="0" />
    <path
       d="M 588.15345,1617.5186 A 2058.2747,2058.2747 0 0 1 469.95857,1381.9768 l -89.17451,37.8112 a 2155.1347,2155.1347 0 0 0 123.75755,246.6246 z"
       style="fill:#fd8d3c;fill-opacity:0.67000002;stroke-width:1.61433315;stroke-linecap:round"
       id="path330"
       inkscape:connector-curvature="0" />
    <path
       d="m 469.95857,1381.9768 a 2058.2747,2058.2747 0 0 1 -87.13005,-248.7125 l -93.27474,26.1063 a 2155.1347,2155.1347 0 0 0 91.23028,260.4174 z"
       style="fill:#fd8d3c;fill-opacity:0.67000002;stroke-width:1.61433315;stroke-linecap:round"
       id="path332"
       inkscape:connector-curvature="0" />
    <path
       d="M 382.82852,1133.2643 A 2058.2747,2058.2747 0 0 1 328.19144,875.45751 l -95.84762,13.97427 a 2155.1347,2155.1347 0 0 0 57.20996,269.93882 z"
       style="fill:#fd8d3c;fill-opacity:0.67000002;stroke-width:1.61433315;stroke-linecap:round"
       id="path334"
       inkscape:connector-curvature="0" />
    <path
       d="M 328.19144,875.45751 A 2058.2747,2058.2747 0 0 1 306.94239,612.78212 l -96.84654,1.61299 a 2155.1347,2155.1347 0 0 0 22.24797,275.03667 z"
       style="fill:#fd8d3c;fill-opacity:0.67000002;stroke-width:1.61433315;stroke-linecap:round"
       id="path336"
       inkscape:connector-curvature="0" />
    <path
       d="M 909.51135,2033.9205 A 2058.2747,2058.2747 0 0 1 306.94239,612.78212 l -96.84654,1.61299 A 2155.1347,2155.1347 0 0 0 841.02106,2102.4108 Z"
       style="fill:none;stroke:#000000;stroke-width:8.07166576;stroke-linecap:round"
       id="path338"
       inkscape:connector-curvature="0" />
    <path
       d="M 1229.7038,1713.7281 A 1605.4543,1605.4543 0 0 1 1093.957,1559.3702 l -81.4727,62.8776 a 1708.368,1708.368 0 0 0 144.4485,164.2513 z"
       style="fill:#ffffcc;stroke-width:1.61433315;stroke-linecap:round"
       id="path594"
       inkscape:connector-curvature="0" />
    <path
       d="M 1093.957,1559.3702 A 1605.4543,1605.4543 0 0 1 979.04618,1388.9343 l -88.83998,51.951 a 1708.368,1708.368 0 0 0 122.2781,181.3625 z"
       style="fill:#ffffcc;stroke-width:1.61433315;stroke-linecap:round"
       id="path596"
       inkscape:connector-curvature="0" />
    <path
       d="m 979.04618,1388.9343 a 1605.4543,1605.4543 0 0 1 -92.19378,-183.722 l -94.74835,40.173 a 1708.368,1708.368 0 0 0 98.10215,195.5 z"
       style="fill:#ffffcc;stroke-width:1.61433315;stroke-linecap:round"
       id="path598"
       inkscape:connector-curvature="0" />
    <path
       d="m 886.8524,1205.2123 a 1605.4543,1605.4543 0 0 1 -67.9618,-193.9955 l -99.10434,27.7374 a 1708.368,1708.368 0 0 0 72.31779,206.4311 z"
       style="fill:#ffffcc;stroke-width:1.61433315;stroke-linecap:round"
       id="path600"
       inkscape:connector-curvature="0" />
    <path
       d="M 818.8906,1011.2168 A 1605.4543,1605.4543 0 0 1 776.27362,810.12685 L 674.43653,824.9744 a 1708.368,1708.368 0 0 0 45.34973,213.9798 z"
       style="fill:#ffffcc;stroke-width:1.61433315;stroke-linecap:round"
       id="path602"
       inkscape:connector-curvature="0" />
    <path
       d="M 776.27362,810.12685 A 1605.4543,1605.4543 0 0 1 759.7001,605.23906 l -102.89987,1.71459 a 1708.368,1708.368 0 0 0 17.6363,218.02075 z"
       style="fill:#ffeda0;stroke-width:1.61433315;stroke-linecap:round"
       id="path604"
       inkscape:connector-curvature="0" />
    <path
       d="m 1302.4748,1640.9571 a 1502.5405,1502.5405 0 0 1 -127.0451,-144.4622 l -81.4727,62.8753 a 1605.4543,1605.4543 0 0 0 135.7468,154.3579 z"
       style="fill:#ffeda0;stroke-width:1.61433315;stroke-linecap:round"
       id="path700"
       inkscape:connector-curvature="0" />
    <path
       d="m 1175.4297,1496.4949 a 1502.5405,1502.5405 0 0 1 -107.5458,-159.5117 l -88.83772,51.9511 a 1605.4543,1605.4543 0 0 0 114.91082,170.4359 z"
       style="fill:#ffffcc;stroke-width:1.61433315;stroke-linecap:round"
       id="path702"
       inkscape:connector-curvature="0" />
    <path
       d="m 1067.8839,1336.9832 a 1502.5405,1502.5405 0 0 1 -86.28188,-171.945 l -94.74962,40.1741 a 1605.4543,1605.4543 0 0 0 92.19378,183.722 z"
       style="fill:#ffffcc;stroke-width:1.61433315;stroke-linecap:round"
       id="path704"
       inkscape:connector-curvature="0" />
    <path
       d="M 981.60202,1165.0382 A 1502.5405,1502.5405 0 0 1 917.99621,983.47818 l -99.10561,27.73862 a 1605.4543,1605.4543 0 0 0 67.9618,193.9955 z"
       style="fill:#ffffcc;stroke-width:1.61433315;stroke-linecap:round"
       id="path706"
       inkscape:connector-curvature="0" />
    <path
       d="M 917.99621,983.47818 A 1502.5405,1502.5405 0 0 1 878.11079,795.27924 l -101.83717,14.84761 a 1605.4543,1605.4543 0 0 0 42.61698,201.08995 z"
       style="fill:#ffffcc;stroke-width:1.61433315;stroke-linecap:round"
       id="path708"
       inkscape:connector-curvature="0" />
    <path
       d="M 878.11079,795.27924 A 1502.5405,1502.5405 0 0 1 862.59892,603.52567 l -102.89882,1.71339 a 1605.4543,1605.4543 0 0 0 16.57352,204.88779 z"
       style="fill:#ffffcc;stroke-width:1.61433315;stroke-linecap:round"
       id="path710"
       inkscape:connector-curvature="0" />
    <path
       d="m 1375.2458,1568.1861 a 1399.6268,1399.6268 0 0 1 -118.3446,-134.5676 l -81.4715,62.8764 a 1502.5405,1502.5405 0 0 0 127.0451,144.4622 z"
       style="fill:#fc4e2a;stroke-width:1.61433315;stroke-linecap:round"
       id="path806"
       inkscape:connector-curvature="0" />
    <path
       d="m 1256.9012,1433.6185 a 1399.6268,1399.6268 0 0 1 -100.1785,-148.5852 l -88.8388,51.9499 a 1502.5405,1502.5405 0 0 0 107.5458,159.5117 z"
       style="fill:#e31a1c;stroke-width:1.61433315;stroke-linecap:round"
       id="path808"
       inkscape:connector-curvature="0" />
    <path
       d="m 1156.7227,1285.0333 a 1399.6268,1399.6268 0 0 1 -80.3723,-160.1682 l -94.74838,40.1731 a 1502.5405,1502.5405 0 0 0 86.28188,171.945 z"
       style="fill:#fc4e2a;stroke-width:1.61433315;stroke-linecap:round"
       id="path810"
       inkscape:connector-curvature="0" />
    <path
       d="m 1076.3504,1124.8651 a 1399.6268,1399.6268 0 0 1 -59.2487,-169.12552 l -99.10549,27.7386 a 1502.5405,1502.5405 0 0 0 63.60581,181.56002 z"
       style="fill:#fc4e2a;stroke-width:1.61433315;stroke-linecap:round"
       id="path812"
       inkscape:connector-curvature="0" />
    <path
       d="M 1017.1017,955.73958 A 1399.6268,1399.6268 0 0 1 979.94803,780.43169 l -101.83724,14.84755 a 1502.5405,1502.5405 0 0 0 39.88542,188.19894 z"
       style="fill:#e31a1c;stroke-width:1.61433315;stroke-linecap:round"
       id="path814"
       inkscape:connector-curvature="0" />
    <path
       d="M 979.94803,780.43169 A 1399.6268,1399.6268 0 0 1 965.49872,601.81114 l -102.8998,1.71453 a 1502.5405,1502.5405 0 0 0 15.51187,191.75357 z"
       style="fill:#fc4e2a;stroke-width:1.61433315;stroke-linecap:round"
       id="path816"
       inkscape:connector-curvature="0" />
    <path
       d="M 1448.0168,1495.4151 A 1296.7131,1296.7131 0 0 1 1338.3751,1370.742 l -81.4739,62.8765 a 1399.6268,1399.6268 0 0 0 118.3446,134.5676 z"
       style="fill:#ffffcc;stroke-width:1.61433315;stroke-linecap:round"
       id="path912"
       inkscape:connector-curvature="0" />
    <path
       d="m 1338.3751,1370.742 a 1296.7131,1296.7131 0 0 1 -92.8136,-137.661 l -88.8388,51.9523 a 1399.6268,1399.6268 0 0 0 100.1785,148.5852 z"
       style="fill:#ffffcc;stroke-width:1.61433315;stroke-linecap:round"
       id="path914"
       inkscape:connector-curvature="0" />
    <path
       d="m 1245.5615,1233.081 a 1296.7131,1296.7131 0 0 1 -74.4626,-148.3912 l -94.7485,40.1753 a 1399.6268,1399.6268 0 0 0 80.3723,160.1682 z"
       style="fill:#ffffcc;stroke-width:1.61433315;stroke-linecap:round"
       id="path916"
       inkscape:connector-curvature="0" />
    <path
       d="m 1171.0989,1084.6898 a 1296.7131,1296.7131 0 0 1 -54.8928,-156.68761 l -99.1044,27.73739 a 1399.6268,1399.6268 0 0 0 59.2487,169.12552 z"
       style="fill:#ffffcc;stroke-width:1.61433315;stroke-linecap:round"
       id="path918"
       inkscape:connector-curvature="0" />
    <path
       d="M 1116.2061,928.00219 A 1296.7131,1296.7131 0 0 1 1081.784,765.58301 l -101.83597,14.84868 a 1399.6268,1399.6268 0 0 0 37.15367,175.30789 z"
       style="fill:#ffeda0;stroke-width:1.61433315;stroke-linecap:round"
       id="path920"
       inkscape:connector-curvature="0" />
    <path
       d="m 1081.784,765.58301 a 1296.7131,1296.7131 0 0 1 -13.3865,-165.48526 l -102.89878,1.71339 a 1399.6268,1399.6268 0 0 0 14.44931,178.62055 z"
       style="fill:#ffffcc;stroke-width:1.61433315;stroke-linecap:round"
       id="path922"
       inkscape:connector-curvature="0" />
    <path
       d="m 1986.5222,956.9097 a 535.15142,535.15142 0 0 1 -45.2494,-51.45234 l -488.8362,377.25854 a 1152.6338,1152.6338 0 0 0 97.4596,110.8198 z"
       style="fill:#feebe2;stroke-width:1.61433315;stroke-linecap:round"
       id="path1074"
       inkscape:connector-curvature="0" />
    <path
       d="M 1941.2728,905.45057 1452.4344,1282.7182"
       style="fill:#feebe2;stroke-width:1.61433315;stroke-linecap:round"
       id="path1076"
       inkscape:connector-curvature="0" />
    <path
       d="m 1941.2728,905.45736 a 535.15142,535.15142 0 0 1 -38.3032,-56.81157 L 1369.9366,1160.35 a 1152.6338,1152.6338 0 0 0 82.5,122.3659 z"
       style="fill:#feebe2;stroke-width:1.61433315;stroke-linecap:round"
       id="path1078"
       inkscape:connector-curvature="0" />
    <path
       d="M 1902.9639,848.64925 1369.9377,1160.3602"
       style="fill:#feebe2;stroke-width:1.61433315;stroke-linecap:round"
       id="path1080"
       inkscape:connector-curvature="0" />
    <path
       d="m 1902.9696,848.64579 a 535.15142,535.15142 0 0 1 -30.7316,-61.24174 l -568.4916,241.04375 a 1152.6338,1152.6338 0 0 0 66.1902,131.9022 z"
       style="fill:#feebe2;stroke-width:1.61433315;stroke-linecap:round"
       id="path1082"
       inkscape:connector-curvature="0" />
    <path
       d="M 1872.2459,787.40744 1303.7532,1028.4478"
       style="fill:#feebe2;stroke-width:1.61433315;stroke-linecap:round"
       id="path1084"
       inkscape:connector-curvature="0" />
    <path
       d="m 1872.238,787.40405 a 535.15142,535.15142 0 0 1 -22.6531,-64.6652 l -594.631,166.42932 a 1152.6338,1152.6338 0 0 0 48.7925,139.27963 z"
       style="fill:#feebe2;stroke-width:1.61433315;stroke-linecap:round"
       id="path1086"
       inkscape:connector-curvature="0" />
    <path
       d="M 1849.5871,722.74111 1254.9539,889.17269"
       style="fill:#feebe2;stroke-width:1.61433315;stroke-linecap:round"
       id="path1088"
       inkscape:connector-curvature="0" />
    <path
       d="m 1849.5849,722.73885 a 535.15142,535.15142 0 0 1 -14.2061,-67.03033 l -611.023,89.08768 a 1152.6338,1152.6338 0 0 0 30.5981,144.37197 z"
       style="fill:#feebe2;stroke-width:1.61433315;stroke-linecap:round"
       id="path1090"
       inkscape:connector-curvature="0" />
    <path
       d="m 1835.3867,655.71191 -611.0252,89.08308"
       style="fill:#feebe2;stroke-width:1.61433315;stroke-linecap:round"
       id="path1092"
       inkscape:connector-curvature="0" />
    <path
       d="m 1835.3788,655.70852 a 535.15142,535.15142 0 0 1 -5.5238,-68.2952 l -617.3971,10.28501 a 1152.6338,1152.6338 0 0 0 11.8979,147.09787 z"
       style="fill:#feebe2;stroke-width:1.61433315;stroke-linecap:round"
       id="path1094"
       inkscape:connector-curvature="0" />
    <path
       d="m 1212.4556,597.68914 617.3949,-10.27353"
       style="fill:none;stroke-width:1.61433315;stroke-linecap:round"
       id="path1096"
       inkscape:connector-curvature="0" />
    <path
       d="m 1986.5222,956.9097 a 535.15142,535.15142 0 0 1 -45.2494,-51.45234 l -460.3373,355.26414 a 1116.6342,1116.6342 0 0 0 94.4162,107.3586 z"
       style="fill:#fcc5c0;stroke-width:1.61433315;stroke-linecap:round"
       id="path1284"
       inkscape:connector-curvature="0" />
    <path
       d="m 1941.2728,905.45057 -460.335,355.27093"
       style="fill:#fcc5c0;stroke-width:1.61433315;stroke-linecap:round"
       id="path1286"
       inkscape:connector-curvature="0" />
    <path
       d="m 1941.2728,905.45736 a 535.15142,535.15142 0 0 1 -38.3032,-56.81157 l -501.9577,293.53251 a 1116.6342,1116.6342 0 0 0 79.9236,118.5432 z"
       style="fill:#fcc5c0;stroke-width:1.61433315;stroke-linecap:round"
       id="path1288"
       inkscape:connector-curvature="0" />
    <path
       d="m 1902.9639,848.64925 -501.943,293.52685"
       style="fill:#fcc5c0;stroke-width:1.61433315;stroke-linecap:round"
       id="path1290"
       inkscape:connector-curvature="0" />
    <path
       d="M 1902.9696,848.64579 A 535.15142,535.15142 0 0 1 1872.238,787.40405 L 1336.89,1014.3948 a 1116.6342,1116.6342 0 0 0 64.1219,127.7835 z"
       style="fill:#fcc5c0;stroke-width:1.61433315;stroke-linecap:round"
       id="path1292"
       inkscape:connector-curvature="0" />
    <path
       d="M 1872.2459,787.40744 1336.8911,1014.3959"
       style="fill:#fcc5c0;stroke-width:1.61433315;stroke-linecap:round"
       id="path1294"
       inkscape:connector-curvature="0" />
    <path
       d="m 1872.238,787.40405 a 535.15142,535.15142 0 0 1 -22.6531,-64.6652 l -559.9635,156.72647 a 1116.6342,1116.6342 0 0 0 47.2686,134.92948 z"
       style="fill:#fcc5c0;stroke-width:1.61433315;stroke-linecap:round"
       id="path1296"
       inkscape:connector-curvature="0" />
    <path
       d="M 1849.5871,722.74111 1289.6213,879.45846"
       style="fill:#fcc5c0;stroke-width:1.61433315;stroke-linecap:round"
       id="path1298"
       inkscape:connector-curvature="0" />
    <path
       d="m 1849.5849,722.73885 a 535.15142,535.15142 0 0 1 -14.2061,-67.03033 l -575.3989,83.89376 a 1116.6342,1116.6342 0 0 0 29.6415,139.86304 z"
       style="fill:#fcc5c0;stroke-width:1.61433315;stroke-linecap:round"
       id="path1300"
       inkscape:connector-curvature="0" />
    <path
       d="m 1835.3867,655.71191 -575.3988,83.88931"
       style="fill:#fcc5c0;stroke-width:1.61433315;stroke-linecap:round"
       id="path1302"
       inkscape:connector-curvature="0" />
    <path
       d="m 1835.3788,655.70852 a 535.15142,535.15142 0 0 1 -5.5238,-68.2952 l -581.4031,9.68453 a 1116.6342,1116.6342 0 0 0 11.528,142.50443 z"
       style="fill:#fcc5c0;stroke-width:1.61433315;stroke-linecap:round"
       id="path1304"
       inkscape:connector-curvature="0" />
    <path
       d="m 1248.4587,597.09559 581.3918,-9.67998"
       style="fill:none;stroke-width:1.61433315;stroke-linecap:round"
       id="path1306"
       inkscape:connector-curvature="0" />
    <path
       d="m 1986.5222,956.9097 a 535.15142,535.15142 0 0 1 -45.2494,-51.45234 L 1484.3578,1258.08 a 1112.3126,1112.3126 0 0 0 94.0498,106.9443 z"
       style="fill:#fa9fb5;stroke-width:1.61433315;stroke-linecap:round"
       id="path1494"
       inkscape:connector-curvature="0" />
    <path
       d="M 1941.2728,905.45057 1484.3509,1258.0846"
       style="fill:#fa9fb5;stroke-width:1.61433315;stroke-linecap:round"
       id="path1496"
       inkscape:connector-curvature="0" />
    <path
       d="m 1941.2728,905.45736 a 535.15142,535.15142 0 0 1 -38.3032,-56.81157 l -498.2262,291.35111 a 1112.3126,1112.3126 0 0 0 79.6144,118.0831 z"
       style="fill:#fa9fb5;stroke-width:1.61433315;stroke-linecap:round"
       id="path1498"
       inkscape:connector-curvature="0" />
    <path
       d="M 1902.9639,848.64925 1404.7537,1139.9958"
       style="fill:#fa9fb5;stroke-width:1.61433315;stroke-linecap:round"
       id="path1500"
       inkscape:connector-curvature="0" />
    <path
       d="m 1902.9696,848.64579 a 535.15142,535.15142 0 0 1 -30.7316,-61.24174 l -531.3687,225.30355 a 1112.3126,1112.3126 0 0 0 63.8741,127.2893 z"
       style="fill:#fa9fb5;stroke-width:1.61433315;stroke-linecap:round"
       id="path1502"
       inkscape:connector-curvature="0" />
    <path
       d="M 1872.2459,787.40744 1340.8636,1012.7064"
       style="fill:#fa9fb5;stroke-width:1.61433315;stroke-linecap:round"
       id="path1504"
       inkscape:connector-curvature="0" />
    <path
       d="m 1872.238,787.40405 a 535.15142,535.15142 0 0 1 -22.6531,-64.6652 L 1293.7833,878.301 a 1112.3126,1112.3126 0 0 0 47.086,134.4066 z"
       style="fill:#fa9fb5;stroke-width:1.61433315;stroke-linecap:round"
       id="path1506"
       inkscape:connector-curvature="0" />
    <path
       d="M 1849.5871,722.74111 1293.7879,878.30559"
       style="fill:#fa9fb5;stroke-width:1.61433315;stroke-linecap:round"
       id="path1508"
       inkscape:connector-curvature="0" />
    <path
       d="m 1849.5849,722.73885 a 535.15142,535.15142 0 0 1 -14.2061,-67.03033 l -571.1229,83.27052 a 1112.3126,1112.3126 0 0 0 29.5274,139.32196 z"
       style="fill:#fa9fb5;stroke-width:1.61433315;stroke-linecap:round"
       id="path1510"
       inkscape:connector-curvature="0" />
    <path
       d="m 1835.3867,655.71191 -571.1296,83.27286"
       style="fill:#fa9fb5;stroke-width:1.61433315;stroke-linecap:round"
       id="path1512"
       inkscape:connector-curvature="0" />
    <path
       d="m 1835.3788,655.70852 a 535.15142,535.15142 0 0 1 -5.5238,-68.2952 l -577.0814,9.61382 a 1112.3126,1112.3126 0 0 0 11.4823,141.9519 z"
       style="fill:#fa9fb5;stroke-width:1.61433315;stroke-linecap:round"
       id="path1514"
       inkscape:connector-curvature="0" />
    <path
       d="m 1252.7736,597.02714 577.0769,-9.61153"
       style="fill:none;stroke-width:1.61433315;stroke-linecap:round"
       id="path1516"
       inkscape:connector-curvature="0" />
    <path
       d="m 1986.5222,956.9097 a 535.15142,535.15142 0 0 1 -45.2494,-51.45234 l -399.2325,308.10614 a 1039.4497,1039.4497 0 0 0 87.8891,99.939 z"
       style="fill:#f768a1;stroke-width:1.61433315;stroke-linecap:round"
       id="path1704"
       inkscape:connector-curvature="0" />
    <path
       d="M 1941.2728,905.45057 1542.0426,1213.5658"
       style="fill:#f768a1;stroke-width:1.61433315;stroke-linecap:round"
       id="path1706"
       inkscape:connector-curvature="0" />
    <path
       d="m 1941.2728,905.45736 a 535.15142,535.15142 0 0 1 -38.3032,-56.81157 l -435.328,254.56841 a 1039.4497,1039.4497 0 0 0 74.3987,110.3493 z"
       style="fill:#f768a1;stroke-width:1.61433315;stroke-linecap:round"
       id="path1708"
       inkscape:connector-curvature="0" />
    <path
       d="M 1902.9639,848.64925 1467.6506,1103.2165"
       style="fill:#f768a1;stroke-width:1.61433315;stroke-linecap:round"
       id="path1710"
       inkscape:connector-curvature="0" />
    <path
       d="m 1902.9696,848.64579 a 535.15142,535.15142 0 0 1 -30.7316,-61.24174 l -464.287,196.85951 a 1039.4497,1039.4497 0 0 0 59.6906,118.95064 z"
       style="fill:#f768a1;stroke-width:1.61433315;stroke-linecap:round"
       id="path1712"
       inkscape:connector-curvature="0" />
    <path
       d="m 1872.2459,787.40744 -464.296,196.86411"
       style="fill:#f768a1;stroke-width:1.61433315;stroke-linecap:round"
       id="path1714"
       inkscape:connector-curvature="0" />
    <path
       d="m 1872.238,787.40405 a 535.15142,535.15142 0 0 1 -22.6531,-64.6652 l -485.6355,135.92367 a 1039.4497,1039.4497 0 0 0 44.0016,125.60104 z"
       style="fill:#f768a1;stroke-width:1.61433315;stroke-linecap:round"
       id="path1716"
       inkscape:connector-curvature="0" />
    <path
       d="M 1849.5871,722.74111 1363.9563,858.66026"
       style="fill:#f768a1;stroke-width:1.61433315;stroke-linecap:round"
       id="path1718"
       inkscape:connector-curvature="0" />
    <path
       d="m 1849.5849,722.73885 a 535.15142,535.15142 0 0 1 -14.2061,-67.03033 l -499.0219,72.75839 a 1039.4497,1039.4497 0 0 0 27.5925,130.19561 z"
       style="fill:#f768a1;stroke-width:1.61433315;stroke-linecap:round"
       id="path1720"
       inkscape:connector-curvature="0" />
    <path
       d="m 1835.3867,655.71191 -499.032,72.74821"
       style="fill:#f768a1;stroke-width:1.61433315;stroke-linecap:round"
       id="path1722"
       inkscape:connector-curvature="0" />
    <path
       d="m 1835.3788,655.70852 a 535.15142,535.15142 0 0 1 -5.5238,-68.2952 l -504.2283,8.39922 a 1039.4497,1039.4497 0 0 0 10.7302,132.65437 z"
       style="fill:#f768a1;stroke-width:1.61433315;stroke-linecap:round"
       id="path1724"
       inkscape:connector-curvature="0" />
    <path
       d="m 1325.6245,595.81707 504.226,-8.40146"
       style="fill:none;stroke-width:1.61433315;stroke-linecap:round"
       id="path1726"
       inkscape:connector-curvature="0" />
    <path
       d="m 1986.5222,956.9097 a 535.15142,535.15142 0 0 1 -45.2494,-51.45234 L 1741.143,1059.9066 a 787.94953,787.94953 0 0 0 66.625,75.7572 z"
       style="fill:#c51b8a;stroke-width:1.61433315;stroke-linecap:round"
       id="path1914"
       inkscape:connector-curvature="0" />
    <path
       d="M 1941.2728,905.45057 1741.144,1059.8963"
       style="fill:#c51b8a;stroke-width:1.61433315;stroke-linecap:round"
       id="path1916"
       inkscape:connector-curvature="0" />
    <path
       d="m 1941.2728,905.45736 a 535.15142,535.15142 0 0 1 -38.3032,-56.81157 l -218.2239,127.6112 a 787.94953,787.94953 0 0 0 56.3973,83.64961 z"
       style="fill:#c51b8a;stroke-width:1.61433315;stroke-linecap:round"
       id="path1918"
       inkscape:connector-curvature="0" />
    <path
       d="M 1902.9639,848.64925 1684.7422,976.2582"
       style="fill:#c51b8a;stroke-width:1.61433315;stroke-linecap:round"
       id="path1920"
       inkscape:connector-curvature="0" />
    <path
       d="m 1902.9696,848.64579 a 535.15142,535.15142 0 0 1 -30.7316,-61.24174 l -232.7394,98.68311 a 787.94953,787.94953 0 0 0 45.2471,90.16983 z"
       style="fill:#c51b8a;stroke-width:1.61433315;stroke-linecap:round"
       id="path1922"
       inkscape:connector-curvature="0" />
    <path
       d="m 1872.2459,787.40744 -232.7415,98.68319"
       style="fill:#c51b8a;stroke-width:1.61433315;stroke-linecap:round"
       id="path1924"
       inkscape:connector-curvature="0" />
    <path
       d="m 1872.238,787.40405 a 535.15142,535.15142 0 0 1 -22.6531,-64.6652 l -243.4422,68.13653 a 787.94953,787.94953 0 0 0 33.3559,95.21178 z"
       style="fill:#c51b8a;stroke-width:1.61433315;stroke-linecap:round"
       id="path1926"
       inkscape:connector-curvature="0" />
    <path
       d="m 1849.5871,722.74111 -243.4489,68.13653"
       style="fill:#c51b8a;stroke-width:1.61433315;stroke-linecap:round"
       id="path1928"
       inkscape:connector-curvature="0" />
    <path
       d="m 1849.5849,722.73885 a 535.15142,535.15142 0 0 1 -14.2061,-67.03033 l -250.1519,36.47342 a 787.94953,787.94953 0 0 0 20.9158,98.69344 z"
       style="fill:#c51b8a;stroke-width:1.61433315;stroke-linecap:round"
       id="path1930"
       inkscape:connector-curvature="0" />
    <path
       d="m 1835.3867,655.71191 -250.1609,36.47116"
       style="fill:#c51b8a;stroke-width:1.61433315;stroke-linecap:round"
       id="path1932"
       inkscape:connector-curvature="0" />
    <path
       d="m 1835.3788,655.70852 a 535.15142,535.15142 0 0 1 -5.5238,-68.2952 l -252.7624,4.21103 a 787.94953,787.94953 0 0 0 8.1343,100.55759 z"
       style="fill:#c51b8a;stroke-width:1.61433315;stroke-linecap:round"
       id="path1934"
       inkscape:connector-curvature="0" />
    <path
       d="m 1577.0868,591.62782 252.7637,-4.21221"
       style="fill:none;stroke-width:1.61433315;stroke-linecap:round"
       id="path1936"
       inkscape:connector-curvature="0" />
    <path
       d="m 1807.2943,1155.0408 185.586,-191.88706"
       style="fill:none;stroke-width:1.61433315;stroke-linecap:round"
       id="path2122"
       inkscape:connector-curvature="0" />
    <path
       d="m 1986.5222,956.9097 a 535.15142,535.15142 0 0 1 -45.2494,-51.45234 l -71.7127,55.34369 a 625.7365,625.7365 0 0 0 52.9088,60.16195 z"
       style="fill:#7a0177;stroke-width:1.61433315;stroke-linecap:round"
       id="path2124"
       inkscape:connector-curvature="0" />
    <path
       d="m 1941.2728,905.45057 -71.7208,55.35162"
       style="fill:#7a0177;stroke-width:1.61433315;stroke-linecap:round"
       id="path2126"
       inkscape:connector-curvature="0" />
    <path
       d="m 1941.2728,905.45736 a 535.15142,535.15142 0 0 1 -38.3032,-56.81157 l -78.1954,45.72647 a 625.7365,625.7365 0 0 0 44.7859,66.42879 z"
       style="fill:#7a0177;stroke-width:1.61433315;stroke-linecap:round"
       id="path2128"
       inkscape:connector-curvature="0" />
    <path
       d="m 1902.9639,848.64925 -78.1931,45.72874"
       style="fill:#7a0177;stroke-width:1.61433315;stroke-linecap:round"
       id="path2130"
       inkscape:connector-curvature="0" />
    <path
       d="m 1902.9696,848.64579 a 535.15142,535.15142 0 0 1 -30.7316,-61.24174 l -83.3973,35.36043 a 625.7365,625.7365 0 0 0 35.9335,71.60778 z"
       style="fill:#7a0177;stroke-width:1.61433315;stroke-linecap:round"
       id="path2132"
       inkscape:connector-curvature="0" />
    <path
       d="m 1872.2459,787.40744 -83.4098,35.35244"
       style="fill:#7a0177;stroke-width:1.61433315;stroke-linecap:round"
       id="path2134"
       inkscape:connector-curvature="0" />
    <path
       d="m 1872.238,787.40405 a 535.15142,535.15142 0 0 1 -22.6531,-64.6652 l -87.2328,24.41569 a 625.7365,625.7365 0 0 0 26.4886,75.60994 z"
       style="fill:#7a0177;stroke-width:1.61433315;stroke-linecap:round"
       id="path2136"
       inkscape:connector-curvature="0" />
    <path
       d="m 1849.5871,722.74111 -87.2338,24.40544"
       style="fill:#7a0177;stroke-width:1.61433315;stroke-linecap:round"
       id="path2138"
       inkscape:connector-curvature="0" />
    <path
       d="m 1849.5849,722.73885 a 535.15142,535.15142 0 0 1 -14.2061,-67.03033 l -89.6367,13.0691 a 625.7365,625.7365 0 0 0 16.61,78.37692 z"
       style="fill:#7a0177;stroke-width:1.61433315;stroke-linecap:round"
       id="path2140"
       inkscape:connector-curvature="0" />
    <path
       d="m 1835.3867,655.71191 -89.6424,13.07024"
       style="fill:#7a0177;stroke-width:1.61433315;stroke-linecap:round"
       id="path2142"
       inkscape:connector-curvature="0" />
    <path
       d="m 1835.3788,655.70852 a 535.15142,535.15142 0 0 1 -5.5238,-68.2952 l -90.5739,1.50911 a 625.7365,625.7365 0 0 0 6.461,79.85519 z"
       style="fill:#7a0177;stroke-width:1.61433315;stroke-linecap:round"
       id="path2144"
       inkscape:connector-curvature="0" />
    <path
       d="m 1739.2834,588.92243 90.5671,-1.50682"
       style="fill:none;stroke-width:1.61433315;stroke-linecap:round"
       id="path2146"
       inkscape:connector-curvature="0" />
  </g>
  <defs
     id="defs2220">
    <pattern
       id="hline-sparse"
       width="10"
       height="10"
       patternTransform="rotate(0 0 0)"
       patternUnits="userSpaceOnUse">
      <line
         x1="0"
         y1="0"
         x2="10"
         y2="0"
         style="stroke:black;stroke-width:2"
         id="line2223" />
    </pattern>
    <pattern
       id="checker"
       width="10"
       height="10"
       patternTransform="rotate(45 0 0)"
       patternUnits="userSpaceOnUse">
      <line
         x1="0"
         y1="0"
         x2="10"
         y2="0"
         style="stroke:black;stroke-width:5"
         id="line2226" />
      <line
         x1="0"
         y1="0"
         x2="0"
         y2="10"
         style="stroke:black;stroke-width:4"
         id="line2228" />
    </pattern>
    <pattern
       id="vline"
       width="10"
       height="10"
       patternTransform="rotate(0 0 0)"
       patternUnits="userSpaceOnUse">
      <line
         x1="0"
         y1="0"
         x2="0"
         y2="10"
         style="stroke:black;stroke-width:5"
         id="line2231" />
    </pattern>
    <pattern
       id="vline-sparse"
       width="10"
       height="10"
       patternTransform="rotate(0 0 0)"
       patternUnits="userSpaceOnUse">
      <line
         x1="0"
         y1="0"
         x2="0"
         y2="10"
         style="stroke:black;stroke-width:2"
         id="line2234" />
    </pattern>
    <pattern
       id="pattern2236"
       width="10"
       height="10"
       patternTransform="rotate(45 0 0)"
       patternUnits="userSpaceOnUse">
      <line
         x1="0"
         y1="0"
         x2="10"
         y2="0"
         style="stroke:black;stroke-width:2"
         id="line2238" />
      <line
         x1="0"
         y1="0"
         x2="0"
         y2="10"
         style="stroke:black;stroke-width:2"
         id="line2240" />
    </pattern>
    <pattern
       id="hline"
       width="10"
       height="10"
       patternTransform="rotate(0 0 0)"
       patternUnits="userSpaceOnUse">
      <line
         x1="0"
         y1="0"
         x2="10"
         y2="0"
         style="stroke:black;stroke-width:5"
         id="line2243" />
    </pattern>
  </defs>
</svg>
